<svg viewBox="0 0 10000 10000" xmlns="http://www.w3.org/2000/svg">
<path d="M0,0 l10000,0 l0,10000 l-10000,0 z" fill="white"/>
<path d="M7947,6619 l2053,0 l0,975 l-2053,0 z" fill="#dc00ff" stroke="black" stroke-width="5"/>
<path d="M7745,1008 l202,0 l0,6057 l-202,0 z" fill="#ff00ff" stroke="black" stroke-width="5"/>
<path d="M189,7243 l5003,0 l0,957 l-5003,0 z" fill="#fe00ff" stroke="black" stroke-width="5"/>
<path d="M90,170 l2072,0 l0,1354 l-2072,0 z" fill="#fe00ff" stroke="black" stroke-width="5"/>
<path d="M2,1524 l2358,0 l0,1056 l-2358,0 z" fill="#fe00ff" stroke="black" stroke-width="5"/>
<path d="M1191,6998 l1136,0 l0,62 l-1136,0 z" fill="#fe00ff" stroke="black" stroke-width="5"/>
<path d="M9388,0 l612,0 l0,4303 l-612,0 z" fill="#b600ff" stroke="black" stroke-width="5"/>
<path d="M240,8542 l3625,0 l0,434 l-3625,0 z" fill="#fe00ff" stroke="black" stroke-width="5"/>
<path d="M6377,920 l1180,0 l0,2915 l-1180,0 z" fill="#ef00ff" stroke="black" stroke-width="5"/>
<path d="M2323,3144 l780,0 l0,2638 l-780,0 z" fill="#fe00ff" stroke="black" stroke-width="5"/>
<path d="M410,2603 l2464,0 l0,432 l-2464,0 z" fill="#fe00ff" stroke="black" stroke-width="5"/>
<path d="M3727,919 l2650,0 l0,1486 l-2650,0 z" fill="#fe00ff" stroke="black" stroke-width="5"/>
<path d="M3183,123 l1712,0 l0,706 l-1712,0 z" fill="#fe00ff" stroke="black" stroke-width="5"/>
<path d="M189,9607 l9811,0 l0,393 l-9811,0 z" fill="#fe00ff" stroke="black" stroke-width="5"/>
<path d="M5291,143 l3652,0 l0,775 l-3652,0 z" fill="#fe00ff" stroke="black" stroke-width="5"/>
<path d="M7875,8880 l426,0 l0,541 l-426,0 z" fill="#fe00ff" stroke="black" stroke-width="5"/>
<path d="M189,3035 l967,0 l0,4208 l-967,0 z" fill="#fd00ff" stroke="black" stroke-width="5"/>
<path d="M8418,8477 l1141,0 l0,924 l-1141,0 z" fill="#fe00ff" stroke="black" stroke-width="5"/>
<path d="M3103,3074 l478,0 l0,2556 l-478,0 z" fill="#fe00ff" stroke="black" stroke-width="5"/>
<path d="M3602,3109 l488,0 l0,2409 l-488,0 z" fill="#fe00ff" stroke="black" stroke-width="5"/>
<path d="M1639,3044 l684,0 l0,827 l-684,0 z" fill="#fe00ff" stroke="black" stroke-width="5"/>
<path d="M2987,1248 l10,0 l0,647 l-10,0 z" fill="#fe00ff" stroke="black" stroke-width="5"/>
<path d="M7733,7594 l2267,0 l0,309 l-2267,0 z" fill="#fd00ff" stroke="black" stroke-width="5"/>
<path d="M3033,864 l694,0 l0,1065 l-694,0 z" fill="#fe00ff" stroke="black" stroke-width="5"/>
<path d="M9166,108 l222,0 l0,4181 l-222,0 z" fill="#cc00ff" stroke="black" stroke-width="5"/>
<path d="M3869,8231 l2007,0 l0,745 l-2007,0 z" fill="#fe00ff" stroke="black" stroke-width="5"/>
<path d="M4281,2963 l818,0 l0,1789 l-818,0 z" fill="#fe00ff" stroke="black" stroke-width="5"/>
<path d="M1727,3979 l461,0 l0,1713 l-461,0 z" fill="#fe00ff" stroke="black" stroke-width="5"/>
<path d="M8006,1106 l411,0 l0,2319 l-411,0 z" fill="#fe00ff" stroke="black" stroke-width="5"/>
<path d="M5696,4194 l219,0 l0,135 l-219,0 z" fill="#fe00ff" stroke="black" stroke-width="5"/>
<path d="M8417,918 l749,0 l0,3384 l-749,0 z" fill="#c400ff" stroke="black" stroke-width="5"/>
<path d="M1702,5782 l4212,0 l0,276 l-4212,0 z" fill="#fe00ff" stroke="black" stroke-width="5"/>
<path d="M2486,7064 l2694,0 l0,153 l-2694,0 z" fill="#fe00ff" stroke="black" stroke-width="5"/>
<path d="M5915,3848 l802,0 l0,5758 l-802,0 z" fill="#c700ff" stroke="black" stroke-width="5"/>
<path d="M0,2580 l189,0 l0,7420 l-189,0 z" fill="#fe00ff" stroke="black" stroke-width="5"/>
<path d="M3729,28 l5479,0 l0,80 l-5479,0 z" fill="#fe00ff" stroke="black" stroke-width="5"/>
<path d="M2874,2405 l3403,0 l0,467 l-3403,0 z" fill="#fe00ff" stroke="black" stroke-width="5"/>
<path d="M7947,6226 l2053,0 l0,393 l-2053,0 z" fill="#fe00ff" stroke="black" stroke-width="5"/>
<path d="M6717,8220 l1129,0 l0,1387 l-1129,0 z" fill="#fd00ff" stroke="black" stroke-width="5"/>
<path d="M2406,88 l581,0 l0,2296 l-581,0 z" fill="#fe00ff" stroke="black" stroke-width="5"/>
<path d="M7947,4303 l2053,0 l0,1843 l-2053,0 z" fill="#e300ff" stroke="black" stroke-width="5"/>
<path d="M7557,920 l176,0 l0,6888 l-176,0 z" fill="#fe00ff" stroke="black" stroke-width="5"/>
<path d="M1187,3057 l452,0 l0,2592 l-452,0 z" fill="#fe00ff" stroke="black" stroke-width="5"/>
<path d="M1156,6664 l4720,0 l0,334 l-4720,0 z" fill="#f200ff" stroke="black" stroke-width="5"/>
<path d="M5099,2872 l1278,0 l0,976 l-1278,0 z" fill="#fe00ff" stroke="black" stroke-width="5"/>
<path d="M5876,6683 l35,0 l0,2505 l-35,0 z" fill="#fe00ff" stroke="black" stroke-width="5"/>
<path d="M7846,7903 l2154,0 l0,574 l-2154,0 z" fill="#f600ff" stroke="black" stroke-width="5"/>
<path d="M350,8200 l3426,0 l0,270 l-3426,0 z" fill="#fe00ff" stroke="black" stroke-width="5"/>
<path d="M1156,6058 l4759,0 l0,606 l-4759,0 z" fill="#c800ff" stroke="black" stroke-width="5"/>
<path d="M660,8470 l3209,0 l0,72 l-3209,0 z" fill="#fe00ff" stroke="black" stroke-width="5"/>
<path d="M7955,6146 l2045,0 l0,80 l-2045,0 z" fill="#ff00ff" stroke="black" stroke-width="5"/>
<path d="M249,9038 l5544,0 l0,534 l-5544,0 z" fill="#fe00ff" stroke="black" stroke-width="5"/>
<path d="M6717,3835 l840,0 l0,4385 l-840,0 z" fill="#cb00ff" stroke="black" stroke-width="5"/>
<path d="M190,8976 l4048,0 l0,59 l-4048,0 z" fill="#fe00ff" stroke="black" stroke-width="5"/>
<path d="M5193,7927 l666,0 l0,304 l-666,0 z" fill="#fe00ff" stroke="black" stroke-width="5"/>
<path d="M9788,7115 l60,0 l0,60 l-60,0 z" fill="green"/>
<path d="M9818,7145 l-844.5,-38.5" stroke="black" stroke-width="5"/>
<path d="M7916,7032 l60,0 l0,60 l-60,0 z" fill="green"/>
<path d="M7946,7062 l-100,-3025.5" stroke="black" stroke-width="5"/>
<path d="M885,7277 l60,0 l0,60 l-60,0 z" fill="green"/>
<path d="M915,7307 l1775.5,414.5" stroke="black" stroke-width="5"/>
<path d="M258,1488 l60,0 l0,60 l-60,0 z" fill="green"/>
<path d="M288,1518 l838,-671" stroke="black" stroke-width="5"/>
<path d="M-12,1631 l60,0 l0,60 l-60,0 z" fill="green"/>
<path d="M18,1661 l1163,391" stroke="black" stroke-width="5"/>
<path d="M1164,6968 l60,0 l0,60 l-60,0 z" fill="green"/>
<path d="M1194,6998 l565,31" stroke="black" stroke-width="5"/>
<path d="M9358,969 l60,0 l0,60 l-60,0 z" fill="green"/>
<path d="M9388,999 l306,1152.5" stroke="black" stroke-width="5"/>
<path d="M660,8586 l60,0 l0,60 l-60,0 z" fill="green"/>
<path d="M690,8616 l1362.5,143" stroke="black" stroke-width="5"/>
<path d="M6691,1837 l60,0 l0,60 l-60,0 z" fill="green"/>
<path d="M6721,1867 l246,510.5" stroke="black" stroke-width="5"/>
<path d="M2688,3356 l60,0 l0,60 l-60,0 z" fill="green"/>
<path d="M2718,3386 l-5,1077" stroke="black" stroke-width="5"/>
<path d="M607,3004 l60,0 l0,60 l-60,0 z" fill="green"/>
<path d="M637,3034 l1005,-215" stroke="black" stroke-width="5"/>
<path d="M6346,1998 l60,0 l0,60 l-60,0 z" fill="green"/>
<path d="M6376,2028 l-1324,-366" stroke="black" stroke-width="5"/>
<path d="M4863,359 l60,0 l0,60 l-60,0 z" fill="green"/>
<path d="M4893,389 l-854,87" stroke="black" stroke-width="5"/>
<path d="M7171,9691 l60,0 l0,60 l-60,0 z" fill="green"/>
<path d="M7201,9721 l-2106.5,82.5" stroke="black" stroke-width="5"/>
<path d="M8910,887 l60,0 l0,60 l-60,0 z" fill="green"/>
<path d="M8940,917 l-1823,-386.5" stroke="black" stroke-width="5"/>
<path d="M7845,9087 l60,0 l0,60 l-60,0 z" fill="green"/>
<path d="M7875,9117 l213,33.5" stroke="black" stroke-width="5"/>
<path d="M236,6828 l60,0 l0,60 l-60,0 z" fill="green"/>
<path d="M266,6858 l406.5,-1719" stroke="black" stroke-width="5"/>
<path d="M9528,8447 l60,0 l0,60 l-60,0 z" fill="green"/>
<path d="M9558,8477 l-569.5,462" stroke="black" stroke-width="5"/>
<path d="M3461,3079 l60,0 l0,60 l-60,0 z" fill="green"/>
<path d="M3491,3109 l-149,1243" stroke="black" stroke-width="5"/>
<path d="M3572,3079 l60,0 l0,60 l-60,0 z" fill="green"/>
<path d="M3602,3109 l244,1204.5" stroke="black" stroke-width="5"/>
<path d="M2292,3839 l60,0 l0,60 l-60,0 z" fill="green"/>
<path d="M2322,3869 l-341,-411.5" stroke="black" stroke-width="5"/>
<path d="M2957,1345 l60,0 l0,60 l-60,0 z" fill="green"/>
<path d="M2987,1375 l5,196.5" stroke="black" stroke-width="5"/>
<path d="M9629,7565 l60,0 l0,60 l-60,0 z" fill="green"/>
<path d="M9659,7595 l-792.5,153.5" stroke="black" stroke-width="5"/>
<path d="M3696,1585 l60,0 l0,60 l-60,0 z" fill="green"/>
<path d="M3726,1615 l-346,-218.5" stroke="black" stroke-width="5"/>
<path d="M9220,1090 l60,0 l0,60 l-60,0 z" fill="green"/>
<path d="M9250,1120 l27,1078.5" stroke="black" stroke-width="5"/>
<path d="M4057,8917 l60,0 l0,60 l-60,0 z" fill="green"/>
<path d="M4087,8947 l785.5,-343.5" stroke="black" stroke-width="5"/>
<path d="M5068,2933 l60,0 l0,60 l-60,0 z" fill="green"/>
<path d="M5098,2963 l-408,894.5" stroke="black" stroke-width="5"/>
<path d="M2157,3949 l60,0 l0,60 l-60,0 z" fill="green"/>
<path d="M2187,3979 l-229.5,856.5" stroke="black" stroke-width="5"/>
<path d="M8386,1076 l60,0 l0,60 l-60,0 z" fill="green"/>
<path d="M8416,1106 l-204.5,1159.5" stroke="black" stroke-width="5"/>
<path d="M5884,4164 l60,0 l0,60 l-60,0 z" fill="green"/>
<path d="M5914,4194 l-108.5,67.5" stroke="black" stroke-width="5"/>
<path d="M9135,932 l60,0 l0,60 l-60,0 z" fill="green"/>
<path d="M9165,962 l-373.5,1648" stroke="black" stroke-width="5"/>
<path d="M1889,6027 l60,0 l0,60 l-60,0 z" fill="green"/>
<path d="M1919,6057 l1889,-137" stroke="black" stroke-width="5"/>
<path d="M5147,7186 l60,0 l0,60 l-60,0 z" fill="green"/>
<path d="M5177,7216 l-1344,-75.5" stroke="black" stroke-width="5"/>
<path d="M6432,7514 l60,0 l0,60 l-60,0 z" fill="green"/>
<path d="M6462,7544 l-146,-817" stroke="black" stroke-width="5"/>
<path d="M91,4237 l60,0 l0,60 l-60,0 z" fill="green"/>
<path d="M121,4267 l-26.5,2023" stroke="black" stroke-width="5"/>
<path d="M9177,77 l60,0 l0,60 l-60,0 z" fill="green"/>
<path d="M9207,107 l-2738.5,-39" stroke="black" stroke-width="5"/>
<path d="M6001,2375 l60,0 l0,60 l-60,0 z" fill="green"/>
<path d="M6031,2405 l-1455.5,233.5" stroke="black" stroke-width="5"/>
<path d="M9690,6588 l60,0 l0,60 l-60,0 z" fill="green"/>
<path d="M9720,6618 l-746.5,-195.5" stroke="black" stroke-width="5"/>
<path d="M6889,8196 l60,0 l0,60 l-60,0 z" fill="green"/>
<path d="M6919,8226 l362.5,687.5" stroke="black" stroke-width="5"/>
<path d="M2537,1990 l60,0 l0,60 l-60,0 z" fill="green"/>
<path d="M2567,2020 l129.5,-784" stroke="black" stroke-width="5"/>
<path d="M9810,4273 l60,0 l0,60 l-60,0 z" fill="green"/>
<path d="M9840,4303 l-866.5,921.5" stroke="black" stroke-width="5"/>
<path d="M7527,7737 l60,0 l0,60 l-60,0 z" fill="green"/>
<path d="M7557,7767 l88,-3403" stroke="black" stroke-width="5"/>
<path d="M1157,5618 l60,0 l0,60 l-60,0 z" fill="green"/>
<path d="M1187,5648 l226,-1295" stroke="black" stroke-width="5"/>
<path d="M1126,6883 l60,0 l0,60 l-60,0 z" fill="green"/>
<path d="M1156,6913 l2360,-82" stroke="black" stroke-width="5"/>
<path d="M6180,2868 l60,0 l0,60 l-60,0 z" fill="green"/>
<path d="M6210,2898 l-472,462" stroke="black" stroke-width="5"/>
<path d="M5880,6662 l60,0 l0,60 l-60,0 z" fill="green"/>
<path d="M5910,6692 l-16.5,1243.5" stroke="black" stroke-width="5"/>
<path d="M9915,8086 l60,0 l0,60 l-60,0 z" fill="green"/>
<path d="M9945,8116 l-1022,74" stroke="black" stroke-width="5"/>
<path d="M374,8171 l60,0 l0,60 l-60,0 z" fill="green"/>
<path d="M404,8201 l1659,134" stroke="black" stroke-width="5"/>
<path d="M1231,6202 l60,0 l0,60 l-60,0 z" fill="green"/>
<path d="M1261,6232 l2274.5,129" stroke="black" stroke-width="5"/>
<path d="M654,8511 l60,0 l0,60 l-60,0 z" fill="green"/>
<path d="M684,8541 l1580.5,-35" stroke="black" stroke-width="5"/>
<path d="M8799,6174 l60,0 l0,60 l-60,0 z" fill="green"/>
<path d="M8829,6204 l148.5,-18" stroke="black" stroke-width="5"/>
<path d="M1110,9459 l60,0 l0,60 l-60,0 z" fill="green"/>
<path d="M1140,9489 l1881,-184" stroke="black" stroke-width="5"/>
<path d="M6953,8029 l60,0 l0,60 l-60,0 z" fill="green"/>
<path d="M6983,8059 l154,-2031.5" stroke="black" stroke-width="5"/>
<path d="M4159,9004 l60,0 l0,60 l-60,0 z" fill="green"/>
<path d="M4189,9034 l-1975,-28.5" stroke="black" stroke-width="5"/>
<path d="M5163,8200 l60,0 l0,60 l-60,0 z" fill="green"/>
<path d="M5193,8230 l333,-151" stroke="black" stroke-width="5"/>
<text font-size="190.69251784911845" text-anchor="middle" x="8973.5" y="7173.242381247192">
0
</text>
<text font-size="190.69251784911845" text-anchor="middle" x="7846" y="4103.242381247192">
1
</text>
<text font-size="190.69251784911845" text-anchor="middle" x="2690.5" y="7788.242381247192">
2
</text>
<text font-size="190.69251784911845" text-anchor="middle" x="1126" y="913.7423812471915">
3
</text>
<text font-size="190.69251784911845" text-anchor="middle" x="1181" y="2118.7423812471916">
4
</text>
<text font-size="190.69251784911845" text-anchor="middle" x="1759" y="7095.742381247192">
5
</text>
<text font-size="190.69251784911845" text-anchor="middle" x="9694" y="2218.2423812471916">
6
</text>
<text font-size="190.69251784911845" text-anchor="middle" x="2052.5" y="8825.742381247192">
7
</text>
<text font-size="190.69251784911845" text-anchor="middle" x="6967" y="2444.2423812471916">
8
</text>
<text font-size="190.69251784911845" text-anchor="middle" x="2713" y="4529.742381247192">
9
</text>
<text font-size="190.69251784911845" text-anchor="middle" x="1642" y="2885.7423812471916">
10
</text>
<text font-size="190.69251784911845" text-anchor="middle" x="5052" y="1728.7423812471914">
11
</text>
<text font-size="190.69251784911845" text-anchor="middle" x="4039" y="542.7423812471915">
12
</text>
<text font-size="190.69251784911845" text-anchor="middle" x="5094.5" y="9870.242381247192">
13
</text>
<text font-size="190.69251784911845" text-anchor="middle" x="7117" y="597.2423812471915">
14
</text>
<text font-size="190.69251784911845" text-anchor="middle" x="8088" y="9217.242381247192">
15
</text>
<text font-size="190.69251784911845" text-anchor="middle" x="672.5" y="5205.742381247192">
16
</text>
<text font-size="190.69251784911845" text-anchor="middle" x="8988.5" y="9005.742381247192">
17
</text>
<text font-size="190.69251784911845" text-anchor="middle" x="3342" y="4418.742381247192">
18
</text>
<text font-size="190.69251784911845" text-anchor="middle" x="3846" y="4380.242381247192">
19
</text>
<text font-size="190.69251784911845" text-anchor="middle" x="1981" y="3524.2423812471916">
20
</text>
<text font-size="190.69251784911845" text-anchor="middle" x="2992" y="1638.2423812471914">
21
</text>
<text font-size="190.69251784911845" text-anchor="middle" x="8866.5" y="7815.242381247192">
22
</text>
<text font-size="190.69251784911845" text-anchor="middle" x="3380" y="1463.2423812471914">
23
</text>
<text font-size="190.69251784911845" text-anchor="middle" x="9277" y="2265.2423812471916">
24
</text>
<text font-size="190.69251784911845" text-anchor="middle" x="4872.5" y="8670.242381247192">
25
</text>
<text font-size="190.69251784911845" text-anchor="middle" x="4690" y="3924.2423812471916">
26
</text>
<text font-size="190.69251784911845" text-anchor="middle" x="1957.5" y="4902.242381247192">
27
</text>
<text font-size="190.69251784911845" text-anchor="middle" x="8211.5" y="2332.2423812471916">
28
</text>
<text font-size="190.69251784911845" text-anchor="middle" x="5805.5" y="4328.242381247192">
29
</text>
<text font-size="190.69251784911845" text-anchor="middle" x="8791.5" y="2676.7423812471916">
30
</text>
<text font-size="190.69251784911845" text-anchor="middle" x="3808" y="5986.742381247192">
31
</text>
<text font-size="190.69251784911845" text-anchor="middle" x="3833" y="7207.242381247192">
32
</text>
<text font-size="190.69251784911845" text-anchor="middle" x="6316" y="6793.742381247192">
33
</text>
<text font-size="190.69251784911845" text-anchor="middle" x="94.5" y="6356.742381247192">
34
</text>
<text font-size="190.69251784911845" text-anchor="middle" x="6468.5" y="134.74238124719145">
35
</text>
<text font-size="190.69251784911845" text-anchor="middle" x="4575.5" y="2705.2423812471916">
36
</text>
<text font-size="190.69251784911845" text-anchor="middle" x="8973.5" y="6489.242381247192">
37
</text>
<text font-size="190.69251784911845" text-anchor="middle" x="7281.5" y="8980.242381247192">
38
</text>
<text font-size="190.69251784911845" text-anchor="middle" x="2696.5" y="1302.7423812471914">
39
</text>
<text font-size="190.69251784911845" text-anchor="middle" x="8973.5" y="5291.242381247192">
40
</text>
<text font-size="190.69251784911845" text-anchor="middle" x="7645" y="4430.742381247192">
41
</text>
<text font-size="190.69251784911845" text-anchor="middle" x="1413" y="4419.742381247192">
42
</text>
<text font-size="190.69251784911845" text-anchor="middle" x="3516" y="6897.742381247192">
43
</text>
<text font-size="190.69251784911845" text-anchor="middle" x="5738" y="3426.7423812471916">
44
</text>
<text font-size="190.69251784911845" text-anchor="middle" x="5893.5" y="8002.242381247192">
45
</text>
<text font-size="190.69251784911845" text-anchor="middle" x="8923" y="8256.742381247192">
46
</text>
<text font-size="190.69251784911845" text-anchor="middle" x="2063" y="8401.742381247192">
47
</text>
<text font-size="190.69251784911845" text-anchor="middle" x="3535.5" y="6427.742381247192">
48
</text>
<text font-size="190.69251784911845" text-anchor="middle" x="2264.5" y="8572.742381247192">
49
</text>
<text font-size="190.69251784911845" text-anchor="middle" x="8977.5" y="6252.742381247192">
50
</text>
<text font-size="190.69251784911845" text-anchor="middle" x="3021" y="9371.742381247192">
51
</text>
<text font-size="190.69251784911845" text-anchor="middle" x="7137" y="6094.242381247192">
52
</text>
<text font-size="190.69251784911845" text-anchor="middle" x="2214" y="9072.242381247192">
53
</text>
<text font-size="190.69251784911845" text-anchor="middle" x="5526" y="8145.742381247192">
54
</text>
</svg>