<svg viewBox="0 0 10000 10000" xmlns="http://www.w3.org/2000/svg">
<path d="M0,0 l10000,0 l0,10000 l-10000,0 z" fill="white"/>
<path d="M7679,6 l846,0 l0,354 l-846,0 z" fill="#fe00ff" stroke="black" stroke-width="5"/>
<path d="M3303,6433 l2322,0 l0,530 l-2322,0 z" fill="#fe00ff" stroke="black" stroke-width="5"/>
<path d="M58,9532 l2299,0 l0,468 l-2299,0 z" fill="#fe00ff" stroke="black" stroke-width="5"/>
<path d="M8216,7524 l259,0 l0,755 l-259,0 z" fill="#fe00ff" stroke="black" stroke-width="5"/>
<path d="M9396,6986 l604,0 l0,1993 l-604,0 z" fill="#fe00ff" stroke="black" stroke-width="5"/>
<path d="M1357,2379 l217,0 l0,1934 l-217,0 z" fill="#fe00ff" stroke="black" stroke-width="5"/>
<path d="M2944,4633 l4565,0 l0,50 l-4565,0 z" fill="#fe00ff" stroke="black" stroke-width="5"/>
<path d="M6918,419 l648,0 l0,564 l-648,0 z" fill="#fe00ff" stroke="black" stroke-width="5"/>
<path d="M2653,4920 l5278,0 l0,141 l-5278,0 z" fill="#eb00ff" stroke="black" stroke-width="5"/>
<path d="M7399,7744 l565,0 l0,1627 l-565,0 z" fill="#f800ff" stroke="black" stroke-width="5"/>
<path d="M4011,4469 l3923,0 l0,164 l-3923,0 z" fill="#fe00ff" stroke="black" stroke-width="5"/>
<path d="M2604,9875 l4385,0 l0,125 l-4385,0 z" fill="#fb00ff" stroke="black" stroke-width="5"/>
<path d="M2837,4432 l1174,0 l0,166 l-1174,0 z" fill="#fe00ff" stroke="black" stroke-width="5"/>
<path d="M1409,0 l638,0 l0,1308 l-638,0 z" fill="#f500ff" stroke="black" stroke-width="5"/>
<path d="M649,6425 l108,0 l0,2527 l-108,0 z" fill="#fe00ff" stroke="black" stroke-width="5"/>
<path d="M5625,6472 l2591,0 l0,1272 l-2591,0 z" fill="#ec00ff" stroke="black" stroke-width="5"/>
<path d="M9296,4598 l200,0 l0,423 l-200,0 z" fill="#fe00ff" stroke="black" stroke-width="5"/>
<path d="M5858,7893 l268,0 l0,1567 l-268,0 z" fill="#fe00ff" stroke="black" stroke-width="5"/>
<path d="M4853,8465 l1005,0 l0,995 l-1005,0 z" fill="#fe00ff" stroke="black" stroke-width="5"/>
<path d="M2357,5355 l247,0 l0,4645 l-247,0 z" fill="#6700ff" stroke="black" stroke-width="5"/>
<path d="M1644,1471 l403,0 l0,504 l-403,0 z" fill="#fe00ff" stroke="black" stroke-width="5"/>
<path d="M6946,1260 l615,0 l0,165 l-615,0 z" fill="#fe00ff" stroke="black" stroke-width="5"/>
<path d="M1574,2379 l6456,0 l0,217 l-6456,0 z" fill="#fe00ff" stroke="black" stroke-width="5"/>
<path d="M79,9342 l2200,0 l0,190 l-2200,0 z" fill="#fe00ff" stroke="black" stroke-width="5"/>
<path d="M9007,5768 l352,0 l0,1340 l-352,0 z" fill="#fe00ff" stroke="black" stroke-width="5"/>
<path d="M9496,3916 l504,0 l0,1268 l-504,0 z" fill="#e300ff" stroke="black" stroke-width="5"/>
<path d="M3501,6963 l418,0 l0,620 l-418,0 z" fill="#fe00ff" stroke="black" stroke-width="5"/>
<path d="M7972,5021 l1524,0 l0,744 l-1524,0 z" fill="#fa00ff" stroke="black" stroke-width="5"/>
<path d="M3085,837 l1659,0 l0,446 l-1659,0 z" fill="#fe00ff" stroke="black" stroke-width="5"/>
<path d="M4,5954 l51,0 l0,4046 l-51,0 z" fill="#fe00ff" stroke="black" stroke-width="5"/>
<path d="M3346,6110 l3001,0 l0,323 l-3001,0 z" fill="#fc00ff" stroke="black" stroke-width="5"/>
<path d="M8525,0 l1475,0 l0,599 l-1475,0 z" fill="#fe00ff" stroke="black" stroke-width="5"/>
<path d="M7987,2002 l282,0 l0,330 l-282,0 z" fill="#fe00ff" stroke="black" stroke-width="5"/>
<path d="M942,2443 l415,0 l0,1637 l-415,0 z" fill="#fe00ff" stroke="black" stroke-width="5"/>
<path d="M12,4373 l107,0 l0,324 l-107,0 z" fill="#fe00ff" stroke="black" stroke-width="5"/>
<path d="M8475,6111 l436,0 l0,2868 l-436,0 z" fill="#fe00ff" stroke="black" stroke-width="5"/>
<path d="M4348,3988 l223,0 l0,450 l-223,0 z" fill="#fe00ff" stroke="black" stroke-width="5"/>
<path d="M2256,2602 l4567,0 l0,231 l-4567,0 z" fill="#fe00ff" stroke="black" stroke-width="5"/>
<path d="M6823,2596 l1111,0 l0,1385 l-1111,0 z" fill="#fe00ff" stroke="black" stroke-width="5"/>
<path d="M137,4002 l404,0 l0,5141 l-404,0 z" fill="#fe00ff" stroke="black" stroke-width="5"/>
<path d="M8142,2411 l1530,0 l0,1030 l-1530,0 z" fill="#fc00ff" stroke="black" stroke-width="5"/>
<path d="M8047,8979 l1673,0 l0,47 l-1673,0 z" fill="#fe00ff" stroke="black" stroke-width="5"/>
<path d="M8430,6371 l20,0 l0,1018 l-20,0 z" fill="#fe00ff" stroke="black" stroke-width="5"/>
<path d="M2604,5604 l318,0 l0,4271 l-318,0 z" fill="#fe00ff" stroke="black" stroke-width="5"/>
<path d="M4725,2885 l1995,0 l0,1164 l-1995,0 z" fill="#fe00ff" stroke="black" stroke-width="5"/>
<path d="M9672,2457 l214,0 l0,1459 l-214,0 z" fill="#fe00ff" stroke="black" stroke-width="5"/>
<path d="M2047,177 l513,0 l0,1618 l-513,0 z" fill="#fe00ff" stroke="black" stroke-width="5"/>
<path d="M8911,7108 l453,0 l0,1871 l-453,0 z" fill="#ff00ff" stroke="black" stroke-width="5"/>
<path d="M6430,255 l538,0 l0,128 l-538,0 z" fill="#fe00ff" stroke="black" stroke-width="5"/>
<path d="M2922,7585 l1001,0 l0,570 l-1001,0 z" fill="#fe00ff" stroke="black" stroke-width="5"/>
<path d="M8061,8281 l412,0 l0,425 l-412,0 z" fill="#fe00ff" stroke="black" stroke-width="5"/>
<path d="M7868,756 l398,0 l0,1246 l-398,0 z" fill="#fe00ff" stroke="black" stroke-width="5"/>
<path d="M757,6304 l440,0 l0,3038 l-440,0 z" fill="#c700ff" stroke="black" stroke-width="5"/>
<path d="M1010,5061 l6959,0 l0,82 l-6959,0 z" fill="#f800ff" stroke="black" stroke-width="5"/>
<path d="M6506,7744 l893,0 l0,1627 l-893,0 z" fill="#ec00ff" stroke="black" stroke-width="5"/>
<path d="M995,4353 l1655,0 l0,494 l-1655,0 z" fill="#fe00ff" stroke="black" stroke-width="5"/>
<path d="M8229,3441 l1067,0 l0,426 l-1067,0 z" fill="#fe00ff" stroke="black" stroke-width="5"/>
<path d="M2972,6121 l374,0 l0,296 l-374,0 z" fill="#fe00ff" stroke="black" stroke-width="5"/>
<path d="M2452,2872 l659,0 l0,277 l-659,0 z" fill="#fe00ff" stroke="black" stroke-width="5"/>
<path d="M541,3897 l401,0 l0,2407 l-401,0 z" fill="#ec00ff" stroke="black" stroke-width="5"/>
<path d="M2650,4683 l5281,0 l0,237 l-5281,0 z" fill="#a500ff" stroke="black" stroke-width="5"/>
<path d="M942,4082 l53,0 l0,2206 l-53,0 z" fill="#fe00ff" stroke="black" stroke-width="5"/>
<path d="M2357,5143 l5613,0 l0,205 l-5613,0 z" fill="#b200ff" stroke="black" stroke-width="5"/>
<path d="M3125,8155 l613,0 l0,1720 l-613,0 z" fill="#fe00ff" stroke="black" stroke-width="5"/>
<path d="M4909,498 l315,0 l0,1199 l-315,0 z" fill="#fe00ff" stroke="black" stroke-width="5"/>
<path d="M37,1462 l1498,0 l0,507 l-1498,0 z" fill="#fe00ff" stroke="black" stroke-width="5"/>
<path d="M9364,7514 l32,0 l0,1422 l-32,0 z" fill="#fe00ff" stroke="black" stroke-width="5"/>
<path d="M6989,9371 l2324,0 l0,629 l-2324,0 z" fill="#fe00ff" stroke="black" stroke-width="5"/>
<path d="M7976,3530 l253,0 l0,233 l-253,0 z" fill="#fe00ff" stroke="black" stroke-width="5"/>
<path d="M3738,8762 l1115,0 l0,668 l-1115,0 z" fill="#fe00ff" stroke="black" stroke-width="5"/>
<path d="M3152,2833 l1122,0 l0,1597 l-1122,0 z" fill="#fc00ff" stroke="black" stroke-width="5"/>
<path d="M7964,9026 l2036,0 l0,330 l-2036,0 z" fill="#fe00ff" stroke="black" stroke-width="5"/>
<path d="M9314,9646 l367,0 l0,118 l-367,0 z" fill="#fe00ff" stroke="black" stroke-width="5"/>
<path d="M5037,8406 l606,0 l0,59 l-606,0 z" fill="#fe00ff" stroke="black" stroke-width="5"/>
<path d="M1981,3286 l1171,0 l0,1067 l-1171,0 z" fill="#fd00ff" stroke="black" stroke-width="5"/>
<path d="M1427,6301 l435,0 l0,1031 l-435,0 z" fill="#fe00ff" stroke="black" stroke-width="5"/>
<path d="M6070,1490 l1708,0 l0,889 l-1708,0 z" fill="#fe00ff" stroke="black" stroke-width="5"/>
<path d="M9363,5821 l244,0 l0,1164 l-244,0 z" fill="#fe00ff" stroke="black" stroke-width="5"/>
<path d="M9607,5184 l393,0 l0,1802 l-393,0 z" fill="#fe00ff" stroke="black" stroke-width="5"/>
<path d="M6126,7870 l380,0 l0,1503 l-380,0 z" fill="#fe00ff" stroke="black" stroke-width="5"/>
<path d="M5315,4376 l1600,0 l0,93 l-1600,0 z" fill="#fe00ff" stroke="black" stroke-width="5"/>
<path d="M8037,2340 l105,0 l0,1190 l-105,0 z" fill="#fe00ff" stroke="black" stroke-width="5"/>
<path d="M1052,4847 l1597,0 l0,189 l-1597,0 z" fill="#fe00ff" stroke="black" stroke-width="5"/>
<path d="M1888,6455 l15,0 l0,551 l-15,0 z" fill="#fe00ff" stroke="black" stroke-width="5"/>
<path d="M2191,6285 l4,0 l0,39 l-4,0 z" fill="#fe00ff" stroke="black" stroke-width="5"/>
<path d="M6087,518 l805,0 l0,943 l-805,0 z" fill="#fe00ff" stroke="black" stroke-width="5"/>
<path d="M2050,2612 l200,0 l0,674 l-200,0 z" fill="#fe00ff" stroke="black" stroke-width="5"/>
<path d="M3923,6964 l1702,0 l0,1438 l-1702,0 z" fill="#fe00ff" stroke="black" stroke-width="5"/>
<path d="M1335,7803 l125,0 l0,1358 l-125,0 z" fill="#fe00ff" stroke="black" stroke-width="5"/>
<path d="M8237,6474 l193,0 l0,1014 l-193,0 z" fill="#fe00ff" stroke="black" stroke-width="5"/>
<path d="M6348,6110 l2082,0 l0,362 l-2082,0 z" fill="#fe00ff" stroke="black" stroke-width="5"/>
<path d="M5942,79 l128,0 l0,1492 l-128,0 z" fill="#fe00ff" stroke="black" stroke-width="5"/>
<path d="M5450,90 l452,0 l0,2137 l-452,0 z" fill="#fe00ff" stroke="black" stroke-width="5"/>
<path d="M2944,8178 l181,0 l0,1623 l-181,0 z" fill="#fe00ff" stroke="black" stroke-width="5"/>
<path d="M1197,6337 l132,0 l0,2860 l-132,0 z" fill="#fe00ff" stroke="black" stroke-width="5"/>
<path d="M1460,7445 l724,0 l0,1897 l-724,0 z" fill="#fe00ff" stroke="black" stroke-width="5"/>
<path d="M3740,8402 l1111,0 l0,360 l-1111,0 z" fill="#fe00ff" stroke="black" stroke-width="5"/>
<path d="M7934,3867 l1362,0 l0,1151 l-1362,0 z" fill="#b500ff" stroke="black" stroke-width="5"/>
<path d="M4274,3000 l451,0 l0,987 l-451,0 z" fill="#fe00ff" stroke="black" stroke-width="5"/>
<path d="M1690,2621 l291,0 l0,1653 l-291,0 z" fill="#fe00ff" stroke="black" stroke-width="5"/>
<path d="M0,1975 l5450,0 l0,404 l-5450,0 z" fill="#fe00ff" stroke="black" stroke-width="5"/>
<path d="M6286,9373 l692,0 l0,502 l-692,0 z" fill="#fe00ff" stroke="black" stroke-width="5"/>
<path d="M0,2380 l942,0 l0,1517 l-942,0 z" fill="#f600ff" stroke="black" stroke-width="5"/>
<path d="M2707,1490 l1576,0 l0,485 l-1576,0 z" fill="#fe00ff" stroke="black" stroke-width="5"/>
<path d="M2604,5348 l5368,0 l0,256 l-5368,0 z" fill="#ab00ff" stroke="black" stroke-width="5"/>
<path d="M741,1308 l1296,0 l0,150 l-1296,0 z" fill="#fe00ff" stroke="black" stroke-width="5"/>
<path d="M2192,6396 l165,0 l0,2423 l-165,0 z" fill="#fe00ff" stroke="black" stroke-width="5"/>
<path d="M8269,599 l1731,0 l0,1812 l-1731,0 z" fill="#f300ff" stroke="black" stroke-width="5"/>
<path d="M4573,4092 l3298,0 l0,284 l-3298,0 z" fill="#fe00ff" stroke="black" stroke-width="5"/>
<path d="M2922,5604 l3798,0 l0,506 l-3798,0 z" fill="#f700ff" stroke="black" stroke-width="5"/>
<path d="M3738,9460 l2548,0 l0,415 l-2548,0 z" fill="#fe00ff" stroke="black" stroke-width="5"/>
<path d="M9296,3441 l200,0 l0,1157 l-200,0 z" fill="#fe00ff" stroke="black" stroke-width="5"/>
<path d="M5642,6433 l706,0 l0,39 l-706,0 z" fill="#fe00ff" stroke="black" stroke-width="5"/>
<path d="M0,0 l1409,0 l0,1308 l-1409,0 z" fill="#7400ff" stroke="black" stroke-width="5"/>
<path d="M995,5143 l1362,0 l0,1142 l-1362,0 z" fill="#9b00ff" stroke="black" stroke-width="5"/>
<path d="M2957,6417 l346,0 l0,1091 l-346,0 z" fill="#fe00ff" stroke="black" stroke-width="5"/>
<path d="M6720,5765 l2287,0 l0,345 l-2287,0 z" fill="#fe00ff" stroke="black" stroke-width="5"/>
<path d="M8494,271 l60,0 l0,60 l-60,0 z" fill="green"/>
<path d="M8524,301 l-422,-118" stroke="black" stroke-width="5"/>
<path d="M3614,6403 l60,0 l0,60 l-60,0 z" fill="green"/>
<path d="M3644,6433 l820,265" stroke="black" stroke-width="5"/>
<path d="M854,9654 l60,0 l0,60 l-60,0 z" fill="green"/>
<path d="M884,9684 l323.5,82" stroke="black" stroke-width="5"/>
<path d="M8186,7506 l60,0 l0,60 l-60,0 z" fill="green"/>
<path d="M8216,7536 l129.5,365.5" stroke="black" stroke-width="5"/>
<path d="M9410,8942 l60,0 l0,60 l-60,0 z" fill="green"/>
<path d="M9440,8972 l258,-989.5" stroke="black" stroke-width="5"/>
<path d="M1499,3947 l60,0 l0,60 l-60,0 z" fill="green"/>
<path d="M1529,3977 l-63.5,-631" stroke="black" stroke-width="5"/>
<path d="M7393,4652 l60,0 l0,60 l-60,0 z" fill="green"/>
<path d="M7423,4682 l-2196.5,-24" stroke="black" stroke-width="5"/>
<path d="M7535,389 l60,0 l0,60 l-60,0 z" fill="green"/>
<path d="M7565,419 l-323,282" stroke="black" stroke-width="5"/>
<path d="M7435,4894 l60,0 l0,60 l-60,0 z" fill="green"/>
<path d="M7465,4924 l-2173,66.5" stroke="black" stroke-width="5"/>
<path d="M7565,7758 l60,0 l0,60 l-60,0 z" fill="green"/>
<path d="M7595,7788 l86.5,769.5" stroke="black" stroke-width="5"/>
<path d="M7903,4582 l60,0 l0,60 l-60,0 z" fill="green"/>
<path d="M7933,4612 l-1960.5,-61" stroke="black" stroke-width="5"/>
<path d="M5407,9854 l60,0 l0,60 l-60,0 z" fill="green"/>
<path d="M5437,9884 l-640.5,53.5" stroke="black" stroke-width="5"/>
<path d="M3980,4566 l60,0 l0,60 l-60,0 z" fill="green"/>
<path d="M4010,4596 l-586,-81" stroke="black" stroke-width="5"/>
<path d="M1379,745 l60,0 l0,60 l-60,0 z" fill="green"/>
<path d="M1409,775 l319,-121" stroke="black" stroke-width="5"/>
<path d="M726,6395 l60,0 l0,60 l-60,0 z" fill="green"/>
<path d="M756,6425 l-53,1263.5" stroke="black" stroke-width="5"/>
<path d="M7651,7319 l60,0 l0,60 l-60,0 z" fill="green"/>
<path d="M7681,7349 l-760.5,-241" stroke="black" stroke-width="5"/>
<path d="M9337,4802 l60,0 l0,60 l-60,0 z" fill="green"/>
<path d="M9367,4832 l29,-22.5" stroke="black" stroke-width="5"/>
<path d="M5828,8369 l60,0 l0,60 l-60,0 z" fill="green"/>
<path d="M5858,8399 l134,277.5" stroke="black" stroke-width="5"/>
<path d="M4920,9374 l60,0 l0,60 l-60,0 z" fill="green"/>
<path d="M4950,9404 l405.5,-441.5" stroke="black" stroke-width="5"/>
<path d="M2413,5409 l60,0 l0,60 l-60,0 z" fill="green"/>
<path d="M2443,5439 l37.5,2238.5" stroke="black" stroke-width="5"/>
<path d="M1621,1508 l60,0 l0,60 l-60,0 z" fill="green"/>
<path d="M1651,1538 l194.5,185" stroke="black" stroke-width="5"/>
<path d="M6928,1234 l60,0 l0,60 l-60,0 z" fill="green"/>
<path d="M6958,1264 l295.5,78.5" stroke="black" stroke-width="5"/>
<path d="M7349,2356 l60,0 l0,60 l-60,0 z" fill="green"/>
<path d="M7379,2386 l-2577,101.5" stroke="black" stroke-width="5"/>
<path d="M1429,9312 l60,0 l0,60 l-60,0 z" fill="green"/>
<path d="M1459,9342 l-280,95" stroke="black" stroke-width="5"/>
<path d="M9019,5804 l60,0 l0,60 l-60,0 z" fill="green"/>
<path d="M9049,5834 l134,604" stroke="black" stroke-width="5"/>
<path d="M9594,4824 l60,0 l0,60 l-60,0 z" fill="green"/>
<path d="M9624,4854 l124,-304" stroke="black" stroke-width="5"/>
<path d="M3521,7550 l60,0 l0,60 l-60,0 z" fill="green"/>
<path d="M3551,7580 l159,-307" stroke="black" stroke-width="5"/>
<path d="M9465,4993 l60,0 l0,60 l-60,0 z" fill="green"/>
<path d="M9495,5023 l-761,370" stroke="black" stroke-width="5"/>
<path d="M3269,1160 l60,0 l0,60 l-60,0 z" fill="green"/>
<path d="M3299,1190 l615.5,-130" stroke="black" stroke-width="5"/>
<path d="M-26,6539 l60,0 l0,60 l-60,0 z" fill="green"/>
<path d="M4,6569 l25.5,1408" stroke="black" stroke-width="5"/>
<path d="M4155,6318 l60,0 l0,60 l-60,0 z" fill="green"/>
<path d="M4185,6348 l661.5,-76.5" stroke="black" stroke-width="5"/>
<path d="M9458,300 l60,0 l0,60 l-60,0 z" fill="green"/>
<path d="M9488,330 l-225.5,-30.5" stroke="black" stroke-width="5"/>
<path d="M8238,1972 l60,0 l0,60 l-60,0 z" fill="green"/>
<path d="M8268,2002 l-140,165" stroke="black" stroke-width="5"/>
<path d="M912,4049 l60,0 l0,60 l-60,0 z" fill="green"/>
<path d="M942,4079 l207.5,-817.5" stroke="black" stroke-width="5"/>
<path d="M88,4665 l60,0 l0,60 l-60,0 z" fill="green"/>
<path d="M118,4695 l-52.5,-160" stroke="black" stroke-width="5"/>
<path d="M8567,8181 l60,0 l0,60 l-60,0 z" fill="green"/>
<path d="M8597,8211 l96,-666" stroke="black" stroke-width="5"/>
<path d="M4332,3958 l60,0 l0,60 l-60,0 z" fill="green"/>
<path d="M4362,3988 l97.5,225" stroke="black" stroke-width="5"/>
<path d="M2410,2625 l60,0 l0,60 l-60,0 z" fill="green"/>
<path d="M2440,2655 l2099.5,62.5" stroke="black" stroke-width="5"/>
<path d="M7640,3843 l60,0 l0,60 l-60,0 z" fill="green"/>
<path d="M7670,3873 l-291.5,-584.5" stroke="black" stroke-width="5"/>
<path d="M510,3972 l60,0 l0,60 l-60,0 z" fill="green"/>
<path d="M540,4002 l-201,2570.5" stroke="black" stroke-width="5"/>
<path d="M9390,3410 l60,0 l0,60 l-60,0 z" fill="green"/>
<path d="M9420,3440 l-513,-514" stroke="black" stroke-width="5"/>
<path d="M9689,8949 l60,0 l0,60 l-60,0 z" fill="green"/>
<path d="M9719,8979 l-835.5,23.5" stroke="black" stroke-width="5"/>
<path d="M8400,6357 l60,0 l0,60 l-60,0 z" fill="green"/>
<path d="M8430,6387 l10,493" stroke="black" stroke-width="5"/>
<path d="M2612,5574 l60,0 l0,60 l-60,0 z" fill="green"/>
<path d="M2642,5604 l121,2135.5" stroke="black" stroke-width="5"/>
<path d="M6411,3893 l60,0 l0,60 l-60,0 z" fill="green"/>
<path d="M6441,3923 l-718.5,-456" stroke="black" stroke-width="5"/>
<path d="M9642,3885 l60,0 l0,60 l-60,0 z" fill="green"/>
<path d="M9672,3915 l107,-728.5" stroke="black" stroke-width="5"/>
<path d="M2017,1764 l60,0 l0,60 l-60,0 z" fill="green"/>
<path d="M2047,1794 l256.5,-808" stroke="black" stroke-width="5"/>
<path d="M9300,8865 l60,0 l0,60 l-60,0 z" fill="green"/>
<path d="M9330,8895 l-192.5,-851.5" stroke="black" stroke-width="5"/>
<path d="M6931,296 l60,0 l0,60 l-60,0 z" fill="green"/>
<path d="M6961,326 l-262,-7" stroke="black" stroke-width="5"/>
<path d="M3651,7884 l60,0 l0,60 l-60,0 z" fill="green"/>
<path d="M3681,7914 l-258.5,-44" stroke="black" stroke-width="5"/>
<path d="M8031,8252 l60,0 l0,60 l-60,0 z" fill="green"/>
<path d="M8061,8282 l206,211.5" stroke="black" stroke-width="5"/>
<path d="M8203,726 l60,0 l0,60 l-60,0 z" fill="green"/>
<path d="M8233,756 l-166,623" stroke="black" stroke-width="5"/>
<path d="M773,6341 l60,0 l0,60 l-60,0 z" fill="green"/>
<path d="M803,6371 l174,1452" stroke="black" stroke-width="5"/>
<path d="M1162,5074 l60,0 l0,60 l-60,0 z" fill="green"/>
<path d="M1192,5104 l3297.5,-2" stroke="black" stroke-width="5"/>
<path d="M7025,7766 l60,0 l0,60 l-60,0 z" fill="green"/>
<path d="M7055,7796 l-102.5,761.5" stroke="black" stroke-width="5"/>
<path d="M1130,4670 l60,0 l0,60 l-60,0 z" fill="green"/>
<path d="M1160,4700 l662.5,-100" stroke="black" stroke-width="5"/>
<path d="M8948,3836 l60,0 l0,60 l-60,0 z" fill="green"/>
<path d="M8978,3866 l-215.5,-212" stroke="black" stroke-width="5"/>
<path d="M3094,6325 l60,0 l0,60 l-60,0 z" fill="green"/>
<path d="M3124,6355 l35,-86" stroke="black" stroke-width="5"/>
<path d="M2517,3048 l60,0 l0,60 l-60,0 z" fill="green"/>
<path d="M2547,3078 l234.5,-67.5" stroke="black" stroke-width="5"/>
<path d="M813,6111 l60,0 l0,60 l-60,0 z" fill="green"/>
<path d="M843,6141 l-101.5,-1040.5" stroke="black" stroke-width="5"/>
<path d="M7761,4855 l60,0 l0,60 l-60,0 z" fill="green"/>
<path d="M7791,4885 l-2500.5,-83.5" stroke="black" stroke-width="5"/>
<path d="M936,5500 l60,0 l0,60 l-60,0 z" fill="green"/>
<path d="M966,5530 l2.5,-345" stroke="black" stroke-width="5"/>
<path d="M7845,5198 l60,0 l0,60 l-60,0 z" fill="green"/>
<path d="M7875,5228 l-2711.5,17.5" stroke="black" stroke-width="5"/>
<path d="M3619,9772 l60,0 l0,60 l-60,0 z" fill="green"/>
<path d="M3649,9802 l-217.5,-787" stroke="black" stroke-width="5"/>
<path d="M5177,1666 l60,0 l0,60 l-60,0 z" fill="green"/>
<path d="M5207,1696 l-140.5,-598.5" stroke="black" stroke-width="5"/>
<path d="M948,1432 l60,0 l0,60 l-60,0 z" fill="green"/>
<path d="M978,1462 l-192,253.5" stroke="black" stroke-width="5"/>
<path d="M9365,7484 l60,0 l0,60 l-60,0 z" fill="green"/>
<path d="M9395,7514 l-15,711" stroke="black" stroke-width="5"/>
<path d="M8686,9697 l60,0 l0,60 l-60,0 z" fill="green"/>
<path d="M8716,9727 l-565,-41.5" stroke="black" stroke-width="5"/>
<path d="M8198,3702 l60,0 l0,60 l-60,0 z" fill="green"/>
<path d="M8228,3732 l-125.5,-85.5" stroke="black" stroke-width="5"/>
<path d="M4421,9398 l60,0 l0,60 l-60,0 z" fill="green"/>
<path d="M4451,9428 l-155.5,-332" stroke="black" stroke-width="5"/>
<path d="M3811,4175 l60,0 l0,60 l-60,0 z" fill="green"/>
<path d="M3841,4205 l-128,-573.5" stroke="black" stroke-width="5"/>
<path d="M7934,9050 l60,0 l0,60 l-60,0 z" fill="green"/>
<path d="M7964,9080 l1018,111" stroke="black" stroke-width="5"/>
<path d="M9284,9646 l60,0 l0,60 l-60,0 z" fill="green"/>
<path d="M9314,9676 l183.5,29" stroke="black" stroke-width="5"/>
<path d="M5572,8434 l60,0 l0,60 l-60,0 z" fill="green"/>
<path d="M5602,8464 l-262,-28.5" stroke="black" stroke-width="5"/>
<path d="M2250,3774 l60,0 l0,60 l-60,0 z" fill="green"/>
<path d="M2280,3804 l286.5,15.5" stroke="black" stroke-width="5"/>
<path d="M1831,7301 l60,0 l0,60 l-60,0 z" fill="green"/>
<path d="M1861,7331 l-216.5,-514.5" stroke="black" stroke-width="5"/>
<path d="M7736,1490 l60,0 l0,60 l-60,0 z" fill="green"/>
<path d="M7766,1520 l-842,414.5" stroke="black" stroke-width="5"/>
<path d="M9345,5801 l60,0 l0,60 l-60,0 z" fill="green"/>
<path d="M9375,5831 l110,572" stroke="black" stroke-width="5"/>
<path d="M9588,5154 l60,0 l0,60 l-60,0 z" fill="green"/>
<path d="M9618,5184 l185.5,901" stroke="black" stroke-width="5"/>
<path d="M6475,7842 l60,0 l0,60 l-60,0 z" fill="green"/>
<path d="M6505,7872 l-189,749.5" stroke="black" stroke-width="5"/>
<path d="M5805,4346 l60,0 l0,60 l-60,0 z" fill="green"/>
<path d="M5835,4376 l280,46.5" stroke="black" stroke-width="5"/>
<path d="M8040,2658 l60,0 l0,60 l-60,0 z" fill="green"/>
<path d="M8070,2688 l19.5,247" stroke="black" stroke-width="5"/>
<path d="M2618,4817 l60,0 l0,60 l-60,0 z" fill="green"/>
<path d="M2648,4847 l-797.5,94.5" stroke="black" stroke-width="5"/>
<path d="M1861,6425 l60,0 l0,60 l-60,0 z" fill="green"/>
<path d="M1891,6455 l4.5,275.5" stroke="black" stroke-width="5"/>
<path d="M2161,6255 l60,0 l0,60 l-60,0 z" fill="green"/>
<path d="M2191,6285 l2,19.5" stroke="black" stroke-width="5"/>
<path d="M6368,884 l60,0 l0,60 l-60,0 z" fill="green"/>
<path d="M6398,914 l91.5,75.5" stroke="black" stroke-width="5"/>
<path d="M2219,3255 l60,0 l0,60 l-60,0 z" fill="green"/>
<path d="M2249,3285 l-99,-336" stroke="black" stroke-width="5"/>
<path d="M5584,7991 l60,0 l0,60 l-60,0 z" fill="green"/>
<path d="M5614,8021 l-840,-338" stroke="black" stroke-width="5"/>
<path d="M1305,7781 l60,0 l0,60 l-60,0 z" fill="green"/>
<path d="M1335,7811 l62.5,671" stroke="black" stroke-width="5"/>
<path d="M8217,7276 l60,0 l0,60 l-60,0 z" fill="green"/>
<path d="M8247,7306 l86.5,-325" stroke="black" stroke-width="5"/>
<path d="M7173,6241 l60,0 l0,60 l-60,0 z" fill="green"/>
<path d="M7203,6271 l186,20" stroke="black" stroke-width="5"/>
<path d="M6039,1540 l60,0 l0,60 l-60,0 z" fill="green"/>
<path d="M6069,1570 l-63,-745" stroke="black" stroke-width="5"/>
<path d="M5420,2192 l60,0 l0,60 l-60,0 z" fill="green"/>
<path d="M5450,2222 l226,-1063.5" stroke="black" stroke-width="5"/>
<path d="M3094,8148 l60,0 l0,60 l-60,0 z" fill="green"/>
<path d="M3124,8178 l-89.5,811.5" stroke="black" stroke-width="5"/>
<path d="M1167,7481 l60,0 l0,60 l-60,0 z" fill="green"/>
<path d="M1197,7511 l66,256" stroke="black" stroke-width="5"/>
<path d="M2009,7426 l60,0 l0,60 l-60,0 z" fill="green"/>
<path d="M2039,7456 l-217,937.5" stroke="black" stroke-width="5"/>
<path d="M4192,8372 l60,0 l0,60 l-60,0 z" fill="green"/>
<path d="M4222,8402 l73.5,180" stroke="black" stroke-width="5"/>
<path d="M9199,4139 l60,0 l0,60 l-60,0 z" fill="green"/>
<path d="M9229,4169 l-614,273.5" stroke="black" stroke-width="5"/>
<path d="M4244,3125 l60,0 l0,60 l-60,0 z" fill="green"/>
<path d="M4274,3155 l225.5,338.5" stroke="black" stroke-width="5"/>
<path d="M1950,4243 l60,0 l0,60 l-60,0 z" fill="green"/>
<path d="M1980,4273 l-144.5,-825.5" stroke="black" stroke-width="5"/>
<path d="M315,2039 l60,0 l0,60 l-60,0 z" fill="green"/>
<path d="M345,2069 l2380,108" stroke="black" stroke-width="5"/>
<path d="M6266,9657 l60,0 l0,60 l-60,0 z" fill="green"/>
<path d="M6296,9687 l336,-63" stroke="black" stroke-width="5"/>
<path d="M568,3265 l60,0 l0,60 l-60,0 z" fill="green"/>
<path d="M598,3295 l-127,-156.5" stroke="black" stroke-width="5"/>
<path d="M2740,1944 l60,0 l0,60 l-60,0 z" fill="green"/>
<path d="M2770,1974 l725,-241.5" stroke="black" stroke-width="5"/>
<path d="M2574,5318 l60,0 l0,60 l-60,0 z" fill="green"/>
<path d="M2604,5348 l2684,128" stroke="black" stroke-width="5"/>
<path d="M887,1278 l60,0 l0,60 l-60,0 z" fill="green"/>
<path d="M917,1308 l472,75" stroke="black" stroke-width="5"/>
<path d="M2326,8788 l60,0 l0,60 l-60,0 z" fill="green"/>
<path d="M2356,8818 l-81.5,-1210.5" stroke="black" stroke-width="5"/>
<path d="M9232,1441 l60,0 l0,60 l-60,0 z" fill="green"/>
<path d="M9262,1471 l-127.5,34" stroke="black" stroke-width="5"/>
<path d="M7483,4077 l60,0 l0,60 l-60,0 z" fill="green"/>
<path d="M7513,4107 l-1291,127" stroke="black" stroke-width="5"/>
<path d="M6468,5886 l60,0 l0,60 l-60,0 z" fill="green"/>
<path d="M6498,5916 l-1677,-59" stroke="black" stroke-width="5"/>
<path d="M5145,9844 l60,0 l0,60 l-60,0 z" fill="green"/>
<path d="M5175,9874 l-163,-206.5" stroke="black" stroke-width="5"/>
<path d="M9441,4178 l60,0 l0,60 l-60,0 z" fill="green"/>
<path d="M9471,4208 l-75,-188.5" stroke="black" stroke-width="5"/>
<path d="M5984,6441 l60,0 l0,60 l-60,0 z" fill="green"/>
<path d="M6014,6471 l-19,-18.5" stroke="black" stroke-width="5"/>
<path d="M595,864 l60,0 l0,60 l-60,0 z" fill="green"/>
<path d="M625,894 l79.5,-240" stroke="black" stroke-width="5"/>
<path d="M1031,5680 l60,0 l0,60 l-60,0 z" fill="green"/>
<path d="M1061,5710 l615,4" stroke="black" stroke-width="5"/>
<path d="M2928,7445 l60,0 l0,60 l-60,0 z" fill="green"/>
<path d="M2958,7475 l172,-512.5" stroke="black" stroke-width="5"/>
<path d="M6690,6021 l60,0 l0,60 l-60,0 z" fill="green"/>
<path d="M6720,6051 l1143.5,-113.5" stroke="black" stroke-width="5"/>
<text font-size="130.7440900921227" text-anchor="middle" x="8102" y="228.76043153224293">
0
</text>
<text font-size="130.7440900921227" text-anchor="middle" x="4464" y="6743.760431532243">
1
</text>
<text font-size="130.7440900921227" text-anchor="middle" x="1207.5" y="9811.760431532242">
2
</text>
<text font-size="130.7440900921227" text-anchor="middle" x="8345.5" y="7947.260431532243">
3
</text>
<text font-size="130.7440900921227" text-anchor="middle" x="9698" y="8028.260431532243">
4
</text>
<text font-size="130.7440900921227" text-anchor="middle" x="1465.5" y="3391.760431532243">
5
</text>
<text font-size="130.7440900921227" text-anchor="middle" x="5226.5" y="4703.760431532243">
6
</text>
<text font-size="130.7440900921227" text-anchor="middle" x="7242" y="746.7604315322429">
7
</text>
<text font-size="130.7440900921227" text-anchor="middle" x="5292" y="5036.260431532243">
8
</text>
<text font-size="130.7440900921227" text-anchor="middle" x="7681.5" y="8603.260431532242">
9
</text>
<text font-size="130.7440900921227" text-anchor="middle" x="5972.5" y="4596.760431532243">
10
</text>
<text font-size="130.7440900921227" text-anchor="middle" x="4796.5" y="9983.260431532242">
11
</text>
<text font-size="130.7440900921227" text-anchor="middle" x="3424" y="4560.760431532243">
12
</text>
<text font-size="130.7440900921227" text-anchor="middle" x="1728" y="699.7604315322429">
13
</text>
<text font-size="130.7440900921227" text-anchor="middle" x="703" y="7734.260431532243">
14
</text>
<text font-size="130.7440900921227" text-anchor="middle" x="6920.5" y="7153.760431532243">
15
</text>
<text font-size="130.7440900921227" text-anchor="middle" x="9396" y="4855.260431532243">
16
</text>
<text font-size="130.7440900921227" text-anchor="middle" x="5992" y="8722.260431532242">
17
</text>
<text font-size="130.7440900921227" text-anchor="middle" x="5355.5" y="9008.260431532242">
18
</text>
<text font-size="130.7440900921227" text-anchor="middle" x="2480.5" y="7723.260431532243">
19
</text>
<text font-size="130.7440900921227" text-anchor="middle" x="1845.5" y="1768.760431532243">
20
</text>
<text font-size="130.7440900921227" text-anchor="middle" x="7253.5" y="1388.260431532243">
21
</text>
<text font-size="130.7440900921227" text-anchor="middle" x="4802" y="2533.260431532243">
22
</text>
<text font-size="130.7440900921227" text-anchor="middle" x="1179" y="9482.760431532242">
23
</text>
<text font-size="130.7440900921227" text-anchor="middle" x="9183" y="6483.760431532243">
24
</text>
<text font-size="130.7440900921227" text-anchor="middle" x="9748" y="4595.760431532243">
25
</text>
<text font-size="130.7440900921227" text-anchor="middle" x="3710" y="7318.760431532243">
26
</text>
<text font-size="130.7440900921227" text-anchor="middle" x="8734" y="5438.760431532243">
27
</text>
<text font-size="130.7440900921227" text-anchor="middle" x="3914.5" y="1105.760431532243">
28
</text>
<text font-size="130.7440900921227" text-anchor="middle" x="29.5" y="8022.760431532243">
29
</text>
<text font-size="130.7440900921227" text-anchor="middle" x="4846.5" y="6317.260431532243">
30
</text>
<text font-size="130.7440900921227" text-anchor="middle" x="9262.5" y="345.26043153224293">
31
</text>
<text font-size="130.7440900921227" text-anchor="middle" x="8128" y="2212.760431532243">
32
</text>
<text font-size="130.7440900921227" text-anchor="middle" x="1149.5" y="3307.260431532243">
33
</text>
<text font-size="130.7440900921227" text-anchor="middle" x="65.5" y="4580.760431532243">
34
</text>
<text font-size="130.7440900921227" text-anchor="middle" x="8693" y="7590.760431532243">
35
</text>
<text font-size="130.7440900921227" text-anchor="middle" x="4459.5" y="4258.760431532243">
36
</text>
<text font-size="130.7440900921227" text-anchor="middle" x="4539.5" y="2763.260431532243">
37
</text>
<text font-size="130.7440900921227" text-anchor="middle" x="7378.5" y="3334.260431532243">
38
</text>
<text font-size="130.7440900921227" text-anchor="middle" x="339" y="6618.260431532243">
39
</text>
<text font-size="130.7440900921227" text-anchor="middle" x="8907" y="2971.760431532243">
40
</text>
<text font-size="130.7440900921227" text-anchor="middle" x="8883.5" y="9048.260431532242">
41
</text>
<text font-size="130.7440900921227" text-anchor="middle" x="8440" y="6925.760431532243">
42
</text>
<text font-size="130.7440900921227" text-anchor="middle" x="2763" y="7785.260431532243">
43
</text>
<text font-size="130.7440900921227" text-anchor="middle" x="5722.5" y="3512.760431532243">
44
</text>
<text font-size="130.7440900921227" text-anchor="middle" x="9779" y="3232.260431532243">
45
</text>
<text font-size="130.7440900921227" text-anchor="middle" x="2303.5" y="1031.760431532243">
46
</text>
<text font-size="130.7440900921227" text-anchor="middle" x="9137.5" y="8089.260431532243">
47
</text>
<text font-size="130.7440900921227" text-anchor="middle" x="6699" y="364.76043153224293">
48
</text>
<text font-size="130.7440900921227" text-anchor="middle" x="3422.5" y="7915.760431532243">
49
</text>
<text font-size="130.7440900921227" text-anchor="middle" x="8267" y="8539.260431532242">
50
</text>
<text font-size="130.7440900921227" text-anchor="middle" x="8067" y="1424.760431532243">
51
</text>
<text font-size="130.7440900921227" text-anchor="middle" x="977" y="7868.760431532243">
52
</text>
<text font-size="130.7440900921227" text-anchor="middle" x="4489.5" y="5147.760431532243">
53
</text>
<text font-size="130.7440900921227" text-anchor="middle" x="6952.5" y="8603.260431532242">
54
</text>
<text font-size="130.7440900921227" text-anchor="middle" x="1822.5" y="4645.760431532243">
55
</text>
<text font-size="130.7440900921227" text-anchor="middle" x="8762.5" y="3699.760431532243">
56
</text>
<text font-size="130.7440900921227" text-anchor="middle" x="3159" y="6314.760431532243">
57
</text>
<text font-size="130.7440900921227" text-anchor="middle" x="2781.5" y="3056.260431532243">
58
</text>
<text font-size="130.7440900921227" text-anchor="middle" x="741.5" y="5146.260431532243">
59
</text>
<text font-size="130.7440900921227" text-anchor="middle" x="5290.5" y="4847.260431532243">
60
</text>
<text font-size="130.7440900921227" text-anchor="middle" x="968.5" y="5230.760431532243">
61
</text>
<text font-size="130.7440900921227" text-anchor="middle" x="5163.5" y="5291.260431532243">
62
</text>
<text font-size="130.7440900921227" text-anchor="middle" x="3431.5" y="9060.760431532242">
63
</text>
<text font-size="130.7440900921227" text-anchor="middle" x="5066.5" y="1143.260431532243">
64
</text>
<text font-size="130.7440900921227" text-anchor="middle" x="786" y="1761.260431532243">
65
</text>
<text font-size="130.7440900921227" text-anchor="middle" x="9380" y="8270.760431532242">
66
</text>
<text font-size="130.7440900921227" text-anchor="middle" x="8151" y="9731.260431532242">
67
</text>
<text font-size="130.7440900921227" text-anchor="middle" x="8102.5" y="3692.260431532243">
68
</text>
<text font-size="130.7440900921227" text-anchor="middle" x="4295.5" y="9141.760431532242">
69
</text>
<text font-size="130.7440900921227" text-anchor="middle" x="3713" y="3677.260431532243">
70
</text>
<text font-size="130.7440900921227" text-anchor="middle" x="8982" y="9236.760431532242">
71
</text>
<text font-size="130.7440900921227" text-anchor="middle" x="9497.5" y="9750.760431532242">
72
</text>
<text font-size="130.7440900921227" text-anchor="middle" x="5340" y="8481.260431532242">
73
</text>
<text font-size="130.7440900921227" text-anchor="middle" x="2566.5" y="3865.260431532243">
74
</text>
<text font-size="130.7440900921227" text-anchor="middle" x="1644.5" y="6862.260431532243">
75
</text>
<text font-size="130.7440900921227" text-anchor="middle" x="6924" y="1980.260431532243">
76
</text>
<text font-size="130.7440900921227" text-anchor="middle" x="9485" y="6448.760431532243">
77
</text>
<text font-size="130.7440900921227" text-anchor="middle" x="9803.5" y="6130.760431532243">
78
</text>
<text font-size="130.7440900921227" text-anchor="middle" x="6316" y="8667.260431532242">
79
</text>
<text font-size="130.7440900921227" text-anchor="middle" x="6115" y="4468.260431532243">
80
</text>
<text font-size="130.7440900921227" text-anchor="middle" x="8089.5" y="2980.760431532243">
81
</text>
<text font-size="130.7440900921227" text-anchor="middle" x="1850.5" y="4987.260431532243">
82
</text>
<text font-size="130.7440900921227" text-anchor="middle" x="1895.5" y="6776.260431532243">
83
</text>
<text font-size="130.7440900921227" text-anchor="middle" x="2193" y="6350.260431532243">
84
</text>
<text font-size="130.7440900921227" text-anchor="middle" x="6489.5" y="1035.260431532243">
85
</text>
<text font-size="130.7440900921227" text-anchor="middle" x="2150" y="2994.760431532243">
86
</text>
<text font-size="130.7440900921227" text-anchor="middle" x="4774" y="7728.760431532243">
87
</text>
<text font-size="130.7440900921227" text-anchor="middle" x="1397.5" y="8527.760431532242">
88
</text>
<text font-size="130.7440900921227" text-anchor="middle" x="8333.5" y="7026.760431532243">
89
</text>
<text font-size="130.7440900921227" text-anchor="middle" x="7389" y="6336.760431532243">
90
</text>
<text font-size="130.7440900921227" text-anchor="middle" x="6006" y="870.7604315322429">
91
</text>
<text font-size="130.7440900921227" text-anchor="middle" x="5676" y="1204.260431532243">
92
</text>
<text font-size="130.7440900921227" text-anchor="middle" x="3034.5" y="9035.260431532242">
93
</text>
<text font-size="130.7440900921227" text-anchor="middle" x="1263" y="7812.760431532243">
94
</text>
<text font-size="130.7440900921227" text-anchor="middle" x="1822" y="8439.260431532242">
95
</text>
<text font-size="130.7440900921227" text-anchor="middle" x="4295.5" y="8627.760431532242">
96
</text>
<text font-size="130.7440900921227" text-anchor="middle" x="8615" y="4488.260431532243">
97
</text>
<text font-size="130.7440900921227" text-anchor="middle" x="4499.5" y="3539.260431532243">
98
</text>
<text font-size="130.7440900921227" text-anchor="middle" x="1835.5" y="3493.260431532243">
99
</text>
<text font-size="130.7440900921227" text-anchor="middle" x="2725" y="2222.760431532243">
100
</text>
<text font-size="130.7440900921227" text-anchor="middle" x="6632" y="9669.760431532242">
101
</text>
<text font-size="130.7440900921227" text-anchor="middle" x="471" y="3184.260431532243">
102
</text>
<text font-size="130.7440900921227" text-anchor="middle" x="3495" y="1778.260431532243">
103
</text>
<text font-size="130.7440900921227" text-anchor="middle" x="5288" y="5521.760431532243">
104
</text>
<text font-size="130.7440900921227" text-anchor="middle" x="1389" y="1428.760431532243">
105
</text>
<text font-size="130.7440900921227" text-anchor="middle" x="2274.5" y="7653.260431532243">
106
</text>
<text font-size="130.7440900921227" text-anchor="middle" x="9134.5" y="1550.760431532243">
107
</text>
<text font-size="130.7440900921227" text-anchor="middle" x="6222" y="4279.760431532243">
108
</text>
<text font-size="130.7440900921227" text-anchor="middle" x="4821" y="5902.760431532243">
109
</text>
<text font-size="130.7440900921227" text-anchor="middle" x="5012" y="9713.260431532242">
110
</text>
<text font-size="130.7440900921227" text-anchor="middle" x="9396" y="4065.260431532243">
111
</text>
<text font-size="130.7440900921227" text-anchor="middle" x="5995" y="6498.260431532243">
112
</text>
<text font-size="130.7440900921227" text-anchor="middle" x="704.5" y="699.7604315322429">
113
</text>
<text font-size="130.7440900921227" text-anchor="middle" x="1676" y="5759.760431532243">
114
</text>
<text font-size="130.7440900921227" text-anchor="middle" x="3130" y="7008.260431532243">
115
</text>
<text font-size="130.7440900921227" text-anchor="middle" x="7863.5" y="5983.260431532243">
116
</text>
</svg>