<svg viewBox="0 0 10000 10000" xmlns="http://www.w3.org/2000/svg">
<path d="M0,0 l10000,0 l0,10000 l-10000,0 z" fill="white"/>
<path d="M5555,6003 l1174,0 l0,505 l-1174,0 z" fill="#fe00ff" stroke="black" stroke-width="5"/>
<path d="M5127,282 l4873,0 l0,56 l-4873,0 z" fill="#fe00ff" stroke="black" stroke-width="5"/>
<path d="M1544,4550 l113,0 l0,1591 l-113,0 z" fill="#fe00ff" stroke="black" stroke-width="5"/>
<path d="M0,9733 l10000,0 l0,130 l-10000,0 z" fill="#d000ff" stroke="black" stroke-width="5"/>
<path d="M7737,6002 l579,0 l0,2073 l-579,0 z" fill="#fe00ff" stroke="black" stroke-width="5"/>
<path d="M3787,994 l2319,0 l0,323 l-2319,0 z" fill="#fe00ff" stroke="black" stroke-width="5"/>
<path d="M5009,6002 l379,0 l0,3391 l-379,0 z" fill="#fe00ff" stroke="black" stroke-width="5"/>
<path d="M758,9863 l6138,0 l0,1 l-6138,0 z" fill="#ff00ff" stroke="black" stroke-width="5"/>
<path d="M2725,9501 l7275,0 l0,106 l-7275,0 z" fill="#fe00ff" stroke="black" stroke-width="5"/>
<path d="M6106,790 l2643,0 l0,415 l-2643,0 z" fill="#fe00ff" stroke="black" stroke-width="5"/>
<path d="M1956,110 l2980,0 l0,475 l-2980,0 z" fill="#fe00ff" stroke="black" stroke-width="5"/>
<path d="M1956,896 l1831,0 l0,376 l-1831,0 z" fill="#fe00ff" stroke="black" stroke-width="5"/>
<path d="M882,5038 l340,0 l0,1832 l-340,0 z" fill="#fe00ff" stroke="black" stroke-width="5"/>
<path d="M4949,3220 l3328,0 l0,657 l-3328,0 z" fill="#fe00ff" stroke="black" stroke-width="5"/>
<path d="M8277,2860 l481,0 l0,1653 l-481,0 z" fill="#fe00ff" stroke="black" stroke-width="5"/>
<path d="M2748,7805 l403,0 l0,869 l-403,0 z" fill="#fe00ff" stroke="black" stroke-width="5"/>
<path d="M1854,7588 l894,0 l0,1086 l-894,0 z" fill="#fe00ff" stroke="black" stroke-width="5"/>
<path d="M1446,3963 l67,0 l0,1334 l-67,0 z" fill="#fe00ff" stroke="black" stroke-width="5"/>
<path d="M544,111 l686,0 l0,1976 l-686,0 z" fill="#fe00ff" stroke="black" stroke-width="5"/>
<path d="M1808,138 l20,0 l0,1724 l-20,0 z" fill="#fe00ff" stroke="black" stroke-width="5"/>
<path d="M4233,6226 l230,0 l0,342 l-230,0 z" fill="#fe00ff" stroke="black" stroke-width="5"/>
<path d="M7145,6002 l588,0 l0,2113 l-588,0 z" fill="#fe00ff" stroke="black" stroke-width="5"/>
<path d="M4995,4025 l1972,0 l0,1312 l-1972,0 z" fill="#fe00ff" stroke="black" stroke-width="5"/>
<path d="M6967,4513 l1788,0 l0,789 l-1788,0 z" fill="#fe00ff" stroke="black" stroke-width="5"/>
<path d="M3349,2713 l1349,0 l0,960 l-1349,0 z" fill="#fe00ff" stroke="black" stroke-width="5"/>
<path d="M3336,3679 l364,0 l0,697 l-364,0 z" fill="#fe00ff" stroke="black" stroke-width="5"/>
<path d="M3541,8122 l1092,0 l0,708 l-1092,0 z" fill="#fe00ff" stroke="black" stroke-width="5"/>
<path d="M537,8674 l3004,0 l0,156 l-3004,0 z" fill="#fe00ff" stroke="black" stroke-width="5"/>
<path d="M8466,7062 l1190,0 l0,1142 l-1190,0 z" fill="#fe00ff" stroke="black" stroke-width="5"/>
<path d="M2217,1272 l1260,0 l0,34 l-1260,0 z" fill="#fe00ff" stroke="black" stroke-width="5"/>
<path d="M878,2108 l352,0 l0,2921 l-352,0 z" fill="#fe00ff" stroke="black" stroke-width="5"/>
<path d="M8316,6252 l1380,0 l0,644 l-1380,0 z" fill="#fe00ff" stroke="black" stroke-width="5"/>
<path d="M6663,1205 l2086,0 l0,249 l-2086,0 z" fill="#fe00ff" stroke="black" stroke-width="5"/>
<path d="M4399,602 l526,0 l0,390 l-526,0 z" fill="#fe00ff" stroke="black" stroke-width="5"/>
<path d="M1409,109 l356,0 l0,3854 l-356,0 z" fill="#f700ff" stroke="black" stroke-width="5"/>
<path d="M7106,8204 l2554,0 l0,823 l-2554,0 z" fill="#fe00ff" stroke="black" stroke-width="5"/>
<path d="M2473,1317 l1856,0 l0,412 l-1856,0 z" fill="#fe00ff" stroke="black" stroke-width="5"/>
<path d="M57,121 l155,0 l0,2063 l-155,0 z" fill="#fe00ff" stroke="black" stroke-width="5"/>
<path d="M9843,437 l157,0 l0,9052 l-157,0 z" fill="#fe00ff" stroke="black" stroke-width="5"/>
<path d="M4329,1322 l2334,0 l0,132 l-2334,0 z" fill="#fe00ff" stroke="black" stroke-width="5"/>
<path d="M2920,1729 l410,0 l0,5818 l-410,0 z" fill="#fe00ff" stroke="black" stroke-width="5"/>
<path d="M536,8830 l4097,0 l0,242 l-4097,0 z" fill="#fe00ff" stroke="black" stroke-width="5"/>
<path d="M4932,813 l745,0 l0,161 l-745,0 z" fill="#fe00ff" stroke="black" stroke-width="5"/>
<path d="M8576,9072 l1054,0 l0,268 l-1054,0 z" fill="#fe00ff" stroke="black" stroke-width="5"/>
<path d="M7088,4073 l1178,0 l0,329 l-1178,0 z" fill="#fe00ff" stroke="black" stroke-width="5"/>
<path d="M536,5158 l180,0 l0,3516 l-180,0 z" fill="#fe00ff" stroke="black" stroke-width="5"/>
<path d="M5131,2714 l3140,0 l0,504 l-3140,0 z" fill="#fe00ff" stroke="black" stroke-width="5"/>
<path d="M3700,3673 l790,0 l0,1601 l-790,0 z" fill="#fe00ff" stroke="black" stroke-width="5"/>
<path d="M6729,6002 l377,0 l0,3025 l-377,0 z" fill="#fe00ff" stroke="black" stroke-width="5"/>
<path d="M1802,5187 l1082,0 l0,2360 l-1082,0 z" fill="#fe00ff" stroke="black" stroke-width="5"/>
<path d="M4698,1909 l138,0 l0,5790 l-138,0 z" fill="#fe00ff" stroke="black" stroke-width="5"/>
<path d="M4490,4190 l206,0 l0,2558 l-206,0 z" fill="#fe00ff" stroke="black" stroke-width="5"/>
<path d="M868,6898 l442,0 l0,1776 l-442,0 z" fill="#fe00ff" stroke="black" stroke-width="5"/>
<path d="M5388,9027 l3188,0 l0,366 l-3188,0 z" fill="#fe00ff" stroke="black" stroke-width="5"/>
<path d="M2587,2185 l158,0 l0,1340 l-158,0 z" fill="#fe00ff" stroke="black" stroke-width="5"/>
<path d="M6124,6615 l408,0 l0,562 l-408,0 z" fill="#fe00ff" stroke="black" stroke-width="5"/>
<path d="M1765,1389 l37,0 l0,7181 l-37,0 z" fill="#fe00ff" stroke="black" stroke-width="5"/>
<path d="M0,9607 l10000,0 l0,126 l-10000,0 z" fill="#2b00ff" stroke="black" stroke-width="5"/>
<path d="M0,9864 l10000,0 l0,136 l-10000,0 z" fill="#8400ff" stroke="black" stroke-width="5"/>
<path d="M4936,338 l5064,0 l0,87 l-5064,0 z" fill="#fe00ff" stroke="black" stroke-width="5"/>
<path d="M1802,4412 l1118,0 l0,216 l-1118,0 z" fill="#fe00ff" stroke="black" stroke-width="5"/>
<path d="M5009,425 l3741,0 l0,365 l-3741,0 z" fill="#fe00ff" stroke="black" stroke-width="5"/>
<path d="M5051,9393 l4792,0 l0,107 l-4792,0 z" fill="#fe00ff" stroke="black" stroke-width="5"/>
<path d="M1803,3057 l765,0 l0,1355 l-765,0 z" fill="#fe00ff" stroke="black" stroke-width="5"/>
<path d="M9660,6896 l181,0 l0,2497 l-181,0 z" fill="#fe00ff" stroke="black" stroke-width="5"/>
<path d="M2721,9072 l2288,0 l0,429 l-2288,0 z" fill="#fd00ff" stroke="black" stroke-width="5"/>
<path d="M4956,118 l5044,0 l0,164 l-5044,0 z" fill="#fe00ff" stroke="black" stroke-width="5"/>
<path d="M228,0 l308,0 l0,9607 l-308,0 z" fill="#cf00ff" stroke="black" stroke-width="5"/>
<path d="M8750,425 l1079,0 l0,1781 l-1079,0 z" fill="#fe00ff" stroke="black" stroke-width="5"/>
<path d="M2739,108 l1095,0 l0,2 l-1095,0 z" fill="#ff00ff" stroke="black" stroke-width="5"/>
<path d="M9665,2231 l173,0 l0,3814 l-173,0 z" fill="#fe00ff" stroke="black" stroke-width="5"/>
<path d="M2030,1324 l269,0 l0,1467 l-269,0 z" fill="#fe00ff" stroke="black" stroke-width="5"/>
<path d="M1230,108 l179,0 l0,6790 l-179,0 z" fill="#fe00ff" stroke="black" stroke-width="5"/>
<path d="M1310,7155 l393,0 l0,1149 l-393,0 z" fill="#fe00ff" stroke="black" stroke-width="5"/>
<path d="M3336,4376 l290,0 l0,2374 l-290,0 z" fill="#fe00ff" stroke="black" stroke-width="5"/>
<path d="M536,0 l9464,0 l0,108 l-9464,0 z" fill="#fe00ff" stroke="black" stroke-width="5"/>
<path d="M1802,4633 l587,0 l0,503 l-587,0 z" fill="#fe00ff" stroke="black" stroke-width="5"/>
<path d="M4633,8116 l375,0 l0,953 l-375,0 z" fill="#fe00ff" stroke="black" stroke-width="5"/>
<path d="M1828,277 l128,0 l0,2780 l-128,0 z" fill="#fe00ff" stroke="black" stroke-width="5"/>
<path d="M2485,7547 l845,0 l0,41 l-845,0 z" fill="#fe00ff" stroke="black" stroke-width="5"/>
<path d="M3638,1801 l679,0 l0,880 l-679,0 z" fill="#fe00ff" stroke="black" stroke-width="5"/>
<path d="M3626,5277 l603,0 l0,1472 l-603,0 z" fill="#fe00ff" stroke="black" stroke-width="5"/>
<path d="M9512,2206 l136,0 l0,2704 l-136,0 z" fill="#fe00ff" stroke="black" stroke-width="5"/>
<path d="M4669,1454 l3603,0 l0,443 l-3603,0 z" fill="#fb00ff" stroke="black" stroke-width="5"/>
<path d="M4982,3881 l1943,0 l0,144 l-1943,0 z" fill="#fe00ff" stroke="black" stroke-width="5"/>
<path d="M3337,1731 l301,0 l0,976 l-301,0 z" fill="#fe00ff" stroke="black" stroke-width="5"/>
<path d="M4868,2913 l263,0 l0,220 l-263,0 z" fill="#fe00ff" stroke="black" stroke-width="5"/>
<path d="M0,2184 l228,0 l0,7423 l-228,0 z" fill="#f000ff" stroke="black" stroke-width="5"/>
<path d="M5512,7191 l1217,0 l0,1591 l-1217,0 z" fill="#fe00ff" stroke="black" stroke-width="5"/>
<path d="M8756,5063 l381,0 l0,1039 l-381,0 z" fill="#fe00ff" stroke="black" stroke-width="5"/>
<path d="M1956,585 l2443,0 l0,311 l-2443,0 z" fill="#fe00ff" stroke="black" stroke-width="5"/>
<path d="M3330,6750 l1367,0 l0,1176 l-1367,0 z" fill="#fe00ff" stroke="black" stroke-width="5"/>
<path d="M4836,1897 l2847,0 l0,812 l-2847,0 z" fill="#fd00ff" stroke="black" stroke-width="5"/>
<path d="M2884,5762 l33,0 l0,1730 l-33,0 z" fill="#fe00ff" stroke="black" stroke-width="5"/>
<path d="M4837,4025 l158,0 l0,3901 l-158,0 z" fill="#fe00ff" stroke="black" stroke-width="5"/>
<path d="M8769,2206 l742,0 l0,2842 l-742,0 z" fill="#fe00ff" stroke="black" stroke-width="5"/>
<path d="M4998,5337 l3758,0 l0,665 l-3758,0 z" fill="#fe00ff" stroke="black" stroke-width="5"/>
<path d="M8272,1474 l477,0 l0,1386 l-477,0 z" fill="#fe00ff" stroke="black" stroke-width="5"/>
<path d="M536,2101 l181,0 l0,3057 l-181,0 z" fill="#fe00ff" stroke="black" stroke-width="5"/>
<path d="M2319,1667 l138,0 l0,1343 l-138,0 z" fill="#fe00ff" stroke="black" stroke-width="5"/>
<path d="M3151,7926 l1856,0 l0,190 l-1856,0 z" fill="#fe00ff" stroke="black" stroke-width="5"/>
<path d="M536,9072 l2185,0 l0,535 l-2185,0 z" fill="#fd00ff" stroke="black" stroke-width="5"/>
<path d="M2745,1850 l170,0 l0,2550 l-170,0 z" fill="#fe00ff" stroke="black" stroke-width="5"/>
<path d="M9143,5070 l492,0 l0,1113 l-492,0 z" fill="#fe00ff" stroke="black" stroke-width="5"/>
<path d="M717,2130 l151,0 l0,6544 l-151,0 z" fill="#fe00ff" stroke="black" stroke-width="5"/>
<path d="M4448,1518 l221,0 l0,1160 l-221,0 z" fill="#fe00ff" stroke="black" stroke-width="5"/>
<path d="M2392,4764 l527,0 l0,423 l-527,0 z" fill="#fe00ff" stroke="black" stroke-width="5"/>
<path d="M7683,1897 l588,0 l0,817 l-588,0 z" fill="#fe00ff" stroke="black" stroke-width="5"/>
<path d="M5529,6319 l60,0 l0,60 l-60,0 z" fill="green"/>
<path d="M5559,6349 l583,-93.5" stroke="black" stroke-width="5"/>
<path d="M5236,271 l60,0 l0,60 l-60,0 z" fill="green"/>
<path d="M5266,301 l2297.5,9" stroke="black" stroke-width="5"/>
<path d="M1625,6002 l60,0 l0,60 l-60,0 z" fill="green"/>
<path d="M1655,6032 l-54.5,-686.5" stroke="black" stroke-width="5"/>
<path d="M6362,9824 l60,0 l0,60 l-60,0 z" fill="green"/>
<path d="M6392,9854 l-1392,-56" stroke="black" stroke-width="5"/>
<path d="M8038,8034 l60,0 l0,60 l-60,0 z" fill="green"/>
<path d="M8068,8064 l-41.5,-1025.5" stroke="black" stroke-width="5"/>
<path d="M4730,1113 l60,0 l0,60 l-60,0 z" fill="green"/>
<path d="M4760,1143 l186.5,12.5" stroke="black" stroke-width="5"/>
<path d="M4979,9238 l60,0 l0,60 l-60,0 z" fill="green"/>
<path d="M5009,9268 l189.5,-1570.5" stroke="black" stroke-width="5"/>
<path d="M6865,9833 l60,0 l0,60 l-60,0 z" fill="green"/>
<path d="M6895,9863 l-3068,0.5" stroke="black" stroke-width="5"/>
<path d="M3342,9565 l60,0 l0,60 l-60,0 z" fill="green"/>
<path d="M3372,9595 l2990.5,-41" stroke="black" stroke-width="5"/>
<path d="M6622,1138 l60,0 l0,60 l-60,0 z" fill="green"/>
<path d="M6652,1168 l775.5,-170.5" stroke="black" stroke-width="5"/>
<path d="M3917,84 l60,0 l0,60 l-60,0 z" fill="green"/>
<path d="M3947,114 l-501,233.5" stroke="black" stroke-width="5"/>
<path d="M2192,874 l60,0 l0,60 l-60,0 z" fill="green"/>
<path d="M2222,904 l649.5,180" stroke="black" stroke-width="5"/>
<path d="M1017,5417 l60,0 l0,60 l-60,0 z" fill="green"/>
<path d="M1047,5447 l5,507" stroke="black" stroke-width="5"/>
<path d="M5055,3191 l60,0 l0,60 l-60,0 z" fill="green"/>
<path d="M5085,3221 l1528,327.5" stroke="black" stroke-width="5"/>
<path d="M8693,3518 l60,0 l0,60 l-60,0 z" fill="green"/>
<path d="M8723,3548 l-205.5,138.5" stroke="black" stroke-width="5"/>
<path d="M3115,7776 l60,0 l0,60 l-60,0 z" fill="green"/>
<path d="M3145,7806 l-195.5,433.5" stroke="black" stroke-width="5"/>
<path d="M1888,8643 l60,0 l0,60 l-60,0 z" fill="green"/>
<path d="M1918,8673 l383,-542" stroke="black" stroke-width="5"/>
<path d="M1482,3933 l60,0 l0,60 l-60,0 z" fill="green"/>
<path d="M1512,3963 l-32.5,667" stroke="black" stroke-width="5"/>
<path d="M941,192 l60,0 l0,60 l-60,0 z" fill="green"/>
<path d="M971,222 l-84,877" stroke="black" stroke-width="5"/>
<path d="M1797,1830 l60,0 l0,60 l-60,0 z" fill="green"/>
<path d="M1827,1860 l-9,-860" stroke="black" stroke-width="5"/>
<path d="M4203,6537 l60,0 l0,60 l-60,0 z" fill="green"/>
<path d="M4233,6567 l115,-170" stroke="black" stroke-width="5"/>
<path d="M7501,6236 l60,0 l0,60 l-60,0 z" fill="green"/>
<path d="M7531,6266 l-92,792.5" stroke="black" stroke-width="5"/>
<path d="M5512,4947 l60,0 l0,60 l-60,0 z" fill="green"/>
<path d="M5542,4977 l439,-296" stroke="black" stroke-width="5"/>
<path d="M6937,4767 l60,0 l0,60 l-60,0 z" fill="green"/>
<path d="M6967,4797 l894,110.5" stroke="black" stroke-width="5"/>
<path d="M3529,3274 l60,0 l0,60 l-60,0 z" fill="green"/>
<path d="M3559,3304 l464.5,-111" stroke="black" stroke-width="5"/>
<path d="M3510,4268 l60,0 l0,60 l-60,0 z" fill="green"/>
<path d="M3540,4298 l-22,-270.5" stroke="black" stroke-width="5"/>
<path d="M3818,8306 l60,0 l0,60 l-60,0 z" fill="green"/>
<path d="M3848,8336 l239,140" stroke="black" stroke-width="5"/>
<path d="M2939,8779 l60,0 l0,60 l-60,0 z" fill="green"/>
<path d="M2969,8809 l-930,-57" stroke="black" stroke-width="5"/>
<path d="M8547,7136 l60,0 l0,60 l-60,0 z" fill="green"/>
<path d="M8577,7166 l484,467" stroke="black" stroke-width="5"/>
<path d="M2595,1267 l60,0 l0,60 l-60,0 z" fill="green"/>
<path d="M2625,1297 l222,-8" stroke="black" stroke-width="5"/>
<path d="M848,3925 l60,0 l0,60 l-60,0 z" fill="green"/>
<path d="M878,3955 l176,-386.5" stroke="black" stroke-width="5"/>
<path d="M9665,6241 l60,0 l0,60 l-60,0 z" fill="green"/>
<path d="M9695,6271 l-689,303" stroke="black" stroke-width="5"/>
<path d="M6665,1222 l60,0 l0,60 l-60,0 z" fill="green"/>
<path d="M6695,1252 l1011,77.5" stroke="black" stroke-width="5"/>
<path d="M4369,572 l60,0 l0,60 l-60,0 z" fill="green"/>
<path d="M4399,602 l263,195" stroke="black" stroke-width="5"/>
<path d="M1437,310 l60,0 l0,60 l-60,0 z" fill="green"/>
<path d="M1467,340 l120,1696" stroke="black" stroke-width="5"/>
<path d="M7678,8663 l60,0 l0,60 l-60,0 z" fill="green"/>
<path d="M7708,8693 l675,-77.5" stroke="black" stroke-width="5"/>
<path d="M2568,1308 l60,0 l0,60 l-60,0 z" fill="green"/>
<path d="M2598,1338 l803,185" stroke="black" stroke-width="5"/>
<path d="M79,2153 l60,0 l0,60 l-60,0 z" fill="green"/>
<path d="M109,2183 l25.5,-1030.5" stroke="black" stroke-width="5"/>
<path d="M9946,1380 l60,0 l0,60 l-60,0 z" fill="green"/>
<path d="M9976,1410 l-54.5,3553" stroke="black" stroke-width="5"/>
<path d="M4308,1423 l60,0 l0,60 l-60,0 z" fill="green"/>
<path d="M4338,1453 l1158,-65" stroke="black" stroke-width="5"/>
<path d="M2958,1711 l60,0 l0,60 l-60,0 z" fill="green"/>
<path d="M2988,1741 l137,2897" stroke="black" stroke-width="5"/>
<path d="M3574,8850 l60,0 l0,60 l-60,0 z" fill="green"/>
<path d="M3604,8880 l-1019.5,71" stroke="black" stroke-width="5"/>
<path d="M5618,835 l60,0 l0,60 l-60,0 z" fill="green"/>
<path d="M5648,865 l-343.5,28.5" stroke="black" stroke-width="5"/>
<path d="M8546,9042 l60,0 l0,60 l-60,0 z" fill="green"/>
<path d="M8576,9072 l527,134" stroke="black" stroke-width="5"/>
<path d="M7548,4371 l60,0 l0,60 l-60,0 z" fill="green"/>
<path d="M7578,4401 l99,-163.5" stroke="black" stroke-width="5"/>
<path d="M516,5904 l60,0 l0,60 l-60,0 z" fill="green"/>
<path d="M546,5934 l80,982" stroke="black" stroke-width="5"/>
<path d="M7367,2809 l60,0 l0,60 l-60,0 z" fill="green"/>
<path d="M7397,2839 l-696,127" stroke="black" stroke-width="5"/>
<path d="M4062,4186 l60,0 l0,60 l-60,0 z" fill="green"/>
<path d="M4092,4216 l3,257.5" stroke="black" stroke-width="5"/>
<path d="M6854,5972 l60,0 l0,60 l-60,0 z" fill="green"/>
<path d="M6884,6002 l33.5,1512.5" stroke="black" stroke-width="5"/>
<path d="M2223,7131 l60,0 l0,60 l-60,0 z" fill="green"/>
<path d="M2253,7161 l90,-794" stroke="black" stroke-width="5"/>
<path d="M4805,2250 l60,0 l0,60 l-60,0 z" fill="green"/>
<path d="M4835,2280 l-68,2524" stroke="black" stroke-width="5"/>
<path d="M4474,4232 l60,0 l0,60 l-60,0 z" fill="green"/>
<path d="M4504,4262 l89,1207" stroke="black" stroke-width="5"/>
<path d="M891,7352 l60,0 l0,60 l-60,0 z" fill="green"/>
<path d="M921,7382 l168,404" stroke="black" stroke-width="5"/>
<path d="M7882,9068 l60,0 l0,60 l-60,0 z" fill="green"/>
<path d="M7912,9098 l-930,112" stroke="black" stroke-width="5"/>
<path d="M2557,2156 l60,0 l0,60 l-60,0 z" fill="green"/>
<path d="M2587,2186 l79,669" stroke="black" stroke-width="5"/>
<path d="M6500,6589 l60,0 l0,60 l-60,0 z" fill="green"/>
<path d="M6530,6619 l-202,277" stroke="black" stroke-width="5"/>
<path d="M1769,1448 l60,0 l0,60 l-60,0 z" fill="green"/>
<path d="M1799,1478 l-15.5,3501.5" stroke="black" stroke-width="5"/>
<path d="M3276,9654 l60,0 l0,60 l-60,0 z" fill="green"/>
<path d="M3306,9684 l1694,-14" stroke="black" stroke-width="5"/>
<path d="M4574,9865 l60,0 l0,60 l-60,0 z" fill="green"/>
<path d="M4604,9895 l396,37" stroke="black" stroke-width="5"/>
<path d="M9209,394 l60,0 l0,60 l-60,0 z" fill="green"/>
<path d="M9239,424 l-1771,-42.5" stroke="black" stroke-width="5"/>
<path d="M2231,4547 l60,0 l0,60 l-60,0 z" fill="green"/>
<path d="M2261,4577 l100,-57" stroke="black" stroke-width="5"/>
<path d="M5456,750 l60,0 l0,60 l-60,0 z" fill="green"/>
<path d="M5486,780 l1393.5,-172.5" stroke="black" stroke-width="5"/>
<path d="M5088,9363 l60,0 l0,60 l-60,0 z" fill="green"/>
<path d="M5118,9393 l2329,53.5" stroke="black" stroke-width="5"/>
<path d="M2519,3866 l60,0 l0,60 l-60,0 z" fill="green"/>
<path d="M2549,3896 l-363.5,-161.5" stroke="black" stroke-width="5"/>
<path d="M9639,7684 l60,0 l0,60 l-60,0 z" fill="green"/>
<path d="M9669,7714 l81.5,430.5" stroke="black" stroke-width="5"/>
<path d="M3853,9417 l60,0 l0,60 l-60,0 z" fill="green"/>
<path d="M3883,9447 l-18,-160.5" stroke="black" stroke-width="5"/>
<path d="M6940,90 l60,0 l0,60 l-60,0 z" fill="green"/>
<path d="M6970,120 l508,80" stroke="black" stroke-width="5"/>
<path d="M337,7553 l60,0 l0,60 l-60,0 z" fill="green"/>
<path d="M367,7583 l15,-2779.5" stroke="black" stroke-width="5"/>
<path d="M8720,1906 l60,0 l0,60 l-60,0 z" fill="green"/>
<path d="M8750,1936 l539.5,-620.5" stroke="black" stroke-width="5"/>
<path d="M3790,79 l60,0 l0,60 l-60,0 z" fill="green"/>
<path d="M3820,109 l-533.5,0" stroke="black" stroke-width="5"/>
<path d="M9635,5585 l60,0 l0,60 l-60,0 z" fill="green"/>
<path d="M9665,5615 l86.5,-1477" stroke="black" stroke-width="5"/>
<path d="M2268,1294 l60,0 l0,60 l-60,0 z" fill="green"/>
<path d="M2298,1324 l-133.5,733.5" stroke="black" stroke-width="5"/>
<path d="M1378,1082 l60,0 l0,60 l-60,0 z" fill="green"/>
<path d="M1408,1112 l-88.5,2391" stroke="black" stroke-width="5"/>
<path d="M1280,7195 l60,0 l0,60 l-60,0 z" fill="green"/>
<path d="M1310,7225 l196.5,504.5" stroke="black" stroke-width="5"/>
<path d="M3552,5814 l60,0 l0,60 l-60,0 z" fill="green"/>
<path d="M3582,5844 l-101,-281" stroke="black" stroke-width="5"/>
<path d="M2747,36 l60,0 l0,60 l-60,0 z" fill="green"/>
<path d="M2777,66 l2491,-12" stroke="black" stroke-width="5"/>
<path d="M2357,5105 l60,0 l0,60 l-60,0 z" fill="green"/>
<path d="M2387,5135 l-291.5,-250.5" stroke="black" stroke-width="5"/>
<path d="M4856,8319 l60,0 l0,60 l-60,0 z" fill="green"/>
<path d="M4886,8349 l-65.5,243.5" stroke="black" stroke-width="5"/>
<path d="M1821,248 l60,0 l0,60 l-60,0 z" fill="green"/>
<path d="M1851,278 l41,1389" stroke="black" stroke-width="5"/>
<path d="M2457,7557 l60,0 l0,60 l-60,0 z" fill="green"/>
<path d="M2487,7587 l420.5,-19.5" stroke="black" stroke-width="5"/>
<path d="M3608,1771 l60,0 l0,60 l-60,0 z" fill="green"/>
<path d="M3638,1801 l339.5,440" stroke="black" stroke-width="5"/>
<path d="M4043,5251 l60,0 l0,60 l-60,0 z" fill="green"/>
<path d="M4073,5281 l-145.5,732" stroke="black" stroke-width="5"/>
<path d="M9555,3342 l60,0 l0,60 l-60,0 z" fill="green"/>
<path d="M9585,3372 l-5,186" stroke="black" stroke-width="5"/>
<path d="M7702,1532 l60,0 l0,60 l-60,0 z" fill="green"/>
<path d="M7732,1562 l-1261.5,113.5" stroke="black" stroke-width="5"/>
<path d="M4955,3994 l60,0 l0,60 l-60,0 z" fill="green"/>
<path d="M4985,4024 l968.5,-71" stroke="black" stroke-width="5"/>
<path d="M3557,2188 l60,0 l0,60 l-60,0 z" fill="green"/>
<path d="M3587,2218 l-99.5,1" stroke="black" stroke-width="5"/>
<path d="M5100,2916 l60,0 l0,60 l-60,0 z" fill="green"/>
<path d="M5130,2946 l-130.5,77" stroke="black" stroke-width="5"/>
<path d="M65,4005 l60,0 l0,60 l-60,0 z" fill="green"/>
<path d="M95,4035 l19,1860.5" stroke="black" stroke-width="5"/>
<path d="M6698,7161 l60,0 l0,60 l-60,0 z" fill="green"/>
<path d="M6728,7191 l-607.5,795.5" stroke="black" stroke-width="5"/>
<path d="M8726,5651 l60,0 l0,60 l-60,0 z" fill="green"/>
<path d="M8756,5681 l190.5,-98.5" stroke="black" stroke-width="5"/>
<path d="M2331,611 l60,0 l0,60 l-60,0 z" fill="green"/>
<path d="M2361,641 l816.5,99.5" stroke="black" stroke-width="5"/>
<path d="M3307,6954 l60,0 l0,60 l-60,0 z" fill="green"/>
<path d="M3337,6984 l676.5,354" stroke="black" stroke-width="5"/>
<path d="M7279,1868 l60,0 l0,60 l-60,0 z" fill="green"/>
<path d="M7309,1898 l-1049.5,405" stroke="black" stroke-width="5"/>
<path d="M2886,6481 l60,0 l0,60 l-60,0 z" fill="green"/>
<path d="M2916,6511 l-15.5,116" stroke="black" stroke-width="5"/>
<path d="M4953,4538 l60,0 l0,60 l-60,0 z" fill="green"/>
<path d="M4983,4568 l-67,1407.5" stroke="black" stroke-width="5"/>
<path d="M9054,2374 l60,0 l0,60 l-60,0 z" fill="green"/>
<path d="M9084,2404 l56,1223" stroke="black" stroke-width="5"/>
<path d="M5735,5486 l60,0 l0,60 l-60,0 z" fill="green"/>
<path d="M5765,5516 l1112,153.5" stroke="black" stroke-width="5"/>
<path d="M8243,1784 l60,0 l0,60 l-60,0 z" fill="green"/>
<path d="M8273,1814 l237.5,353" stroke="black" stroke-width="5"/>
<path d="M506,3820 l60,0 l0,60 l-60,0 z" fill="green"/>
<path d="M536,3850 l90.5,-220.5" stroke="black" stroke-width="5"/>
<path d="M2290,1637 l60,0 l0,60 l-60,0 z" fill="green"/>
<path d="M2320,1667 l68,671.5" stroke="black" stroke-width="5"/>
<path d="M3233,7899 l60,0 l0,60 l-60,0 z" fill="green"/>
<path d="M3263,7929 l816,92" stroke="black" stroke-width="5"/>
<path d="M639,9576 l60,0 l0,60 l-60,0 z" fill="green"/>
<path d="M669,9606 l959.5,-266.5" stroke="black" stroke-width="5"/>
<path d="M2768,1820 l60,0 l0,60 l-60,0 z" fill="green"/>
<path d="M2798,1850 l32,1275" stroke="black" stroke-width="5"/>
<path d="M9120,5087 l60,0 l0,60 l-60,0 z" fill="green"/>
<path d="M9150,5117 l239,509.5" stroke="black" stroke-width="5"/>
<path d="M818,5185 l60,0 l0,60 l-60,0 z" fill="green"/>
<path d="M848,5215 l-55.5,187" stroke="black" stroke-width="5"/>
<path d="M4420,1576 l60,0 l0,60 l-60,0 z" fill="green"/>
<path d="M4450,1606 l108.5,492" stroke="black" stroke-width="5"/>
<path d="M2593,4779 l60,0 l0,60 l-60,0 z" fill="green"/>
<path d="M2623,4809 l32.5,166.5" stroke="black" stroke-width="5"/>
<path d="M7704,2095 l60,0 l0,60 l-60,0 z" fill="green"/>
<path d="M7734,2125 l243,180.5" stroke="black" stroke-width="5"/>
<text font-size="136.08276348795434" text-anchor="middle" x="6142" y="6303.128967220784">
0
</text>
<text font-size="136.08276348795434" text-anchor="middle" x="7563.5" y="357.62896722078403">
1
</text>
<text font-size="136.08276348795434" text-anchor="middle" x="1600.5" y="5393.128967220784">
2
</text>
<text font-size="136.08276348795434" text-anchor="middle" x="5000" y="9845.628967220784">
3
</text>
<text font-size="136.08276348795434" text-anchor="middle" x="8026.5" y="7086.128967220784">
4
</text>
<text font-size="136.08276348795434" text-anchor="middle" x="4946.5" y="1203.128967220784">
5
</text>
<text font-size="136.08276348795434" text-anchor="middle" x="5198.5" y="7745.128967220784">
6
</text>
<text font-size="136.08276348795434" text-anchor="middle" x="3827" y="9911.128967220784">
7
</text>
<text font-size="136.08276348795434" text-anchor="middle" x="6362.5" y="9601.628967220784">
8
</text>
<text font-size="136.08276348795434" text-anchor="middle" x="7427.5" y="1045.128967220784">
9
</text>
<text font-size="136.08276348795434" text-anchor="middle" x="3446" y="395.12896722078403">
10
</text>
<text font-size="136.08276348795434" text-anchor="middle" x="2871.5" y="1131.628967220784">
11
</text>
<text font-size="136.08276348795434" text-anchor="middle" x="1052" y="6001.628967220784">
12
</text>
<text font-size="136.08276348795434" text-anchor="middle" x="6613" y="3596.128967220784">
13
</text>
<text font-size="136.08276348795434" text-anchor="middle" x="8517.5" y="3734.128967220784">
14
</text>
<text font-size="136.08276348795434" text-anchor="middle" x="2949.5" y="8287.128967220784">
15
</text>
<text font-size="136.08276348795434" text-anchor="middle" x="2301" y="8178.628967220784">
16
</text>
<text font-size="136.08276348795434" text-anchor="middle" x="1479.5" y="4677.628967220784">
17
</text>
<text font-size="136.08276348795434" text-anchor="middle" x="887" y="1146.628967220784">
18
</text>
<text font-size="136.08276348795434" text-anchor="middle" x="1818" y="1047.628967220784">
19
</text>
<text font-size="136.08276348795434" text-anchor="middle" x="4348" y="6444.628967220784">
20
</text>
<text font-size="136.08276348795434" text-anchor="middle" x="7439" y="7106.128967220784">
21
</text>
<text font-size="136.08276348795434" text-anchor="middle" x="5981" y="4728.628967220784">
22
</text>
<text font-size="136.08276348795434" text-anchor="middle" x="7861" y="4955.128967220784">
23
</text>
<text font-size="136.08276348795434" text-anchor="middle" x="4023.5" y="3240.628967220784">
24
</text>
<text font-size="136.08276348795434" text-anchor="middle" x="3518" y="4075.128967220784">
25
</text>
<text font-size="136.08276348795434" text-anchor="middle" x="4087" y="8523.628967220784">
26
</text>
<text font-size="136.08276348795434" text-anchor="middle" x="2039" y="8799.628967220784">
27
</text>
<text font-size="136.08276348795434" text-anchor="middle" x="9061" y="7680.628967220784">
28
</text>
<text font-size="136.08276348795434" text-anchor="middle" x="2847" y="1336.628967220784">
29
</text>
<text font-size="136.08276348795434" text-anchor="middle" x="1054" y="3616.128967220784">
30
</text>
<text font-size="136.08276348795434" text-anchor="middle" x="9006" y="6621.628967220784">
31
</text>
<text font-size="136.08276348795434" text-anchor="middle" x="7706" y="1377.128967220784">
32
</text>
<text font-size="136.08276348795434" text-anchor="middle" x="4662" y="844.628967220784">
33
</text>
<text font-size="136.08276348795434" text-anchor="middle" x="1587" y="2083.628967220784">
34
</text>
<text font-size="136.08276348795434" text-anchor="middle" x="8383" y="8663.128967220784">
35
</text>
<text font-size="136.08276348795434" text-anchor="middle" x="3401" y="1570.628967220784">
36
</text>
<text font-size="136.08276348795434" text-anchor="middle" x="134.5" y="1200.128967220784">
37
</text>
<text font-size="136.08276348795434" text-anchor="middle" x="9921.5" y="5010.628967220784">
38
</text>
<text font-size="136.08276348795434" text-anchor="middle" x="5496" y="1435.628967220784">
39
</text>
<text font-size="136.08276348795434" text-anchor="middle" x="3125" y="4685.628967220784">
40
</text>
<text font-size="136.08276348795434" text-anchor="middle" x="2584.5" y="8998.628967220784">
41
</text>
<text font-size="136.08276348795434" text-anchor="middle" x="5304.5" y="941.128967220784">
42
</text>
<text font-size="136.08276348795434" text-anchor="middle" x="9103" y="9253.628967220784">
43
</text>
<text font-size="136.08276348795434" text-anchor="middle" x="7677" y="4285.128967220784">
44
</text>
<text font-size="136.08276348795434" text-anchor="middle" x="626" y="6963.628967220784">
45
</text>
<text font-size="136.08276348795434" text-anchor="middle" x="6701" y="3013.628967220784">
46
</text>
<text font-size="136.08276348795434" text-anchor="middle" x="4095" y="4521.128967220784">
47
</text>
<text font-size="136.08276348795434" text-anchor="middle" x="6917.5" y="7562.128967220784">
48
</text>
<text font-size="136.08276348795434" text-anchor="middle" x="2343" y="6414.628967220784">
49
</text>
<text font-size="136.08276348795434" text-anchor="middle" x="4767" y="4851.628967220784">
50
</text>
<text font-size="136.08276348795434" text-anchor="middle" x="4593" y="5516.628967220784">
51
</text>
<text font-size="136.08276348795434" text-anchor="middle" x="1089" y="7833.628967220784">
52
</text>
<text font-size="136.08276348795434" text-anchor="middle" x="6982" y="9257.628967220784">
53
</text>
<text font-size="136.08276348795434" text-anchor="middle" x="2666" y="2902.628967220784">
54
</text>
<text font-size="136.08276348795434" text-anchor="middle" x="6328" y="6943.628967220784">
55
</text>
<text font-size="136.08276348795434" text-anchor="middle" x="1783.5" y="5027.128967220784">
56
</text>
<text font-size="136.08276348795434" text-anchor="middle" x="5000" y="9717.628967220784">
57
</text>
<text font-size="136.08276348795434" text-anchor="middle" x="5000" y="9979.628967220784">
58
</text>
<text font-size="136.08276348795434" text-anchor="middle" x="7468" y="429.12896722078403">
59
</text>
<text font-size="136.08276348795434" text-anchor="middle" x="2361" y="4567.628967220784">
60
</text>
<text font-size="136.08276348795434" text-anchor="middle" x="6879.5" y="655.128967220784">
61
</text>
<text font-size="136.08276348795434" text-anchor="middle" x="7447" y="9494.128967220784">
62
</text>
<text font-size="136.08276348795434" text-anchor="middle" x="2185.5" y="3782.128967220784">
63
</text>
<text font-size="136.08276348795434" text-anchor="middle" x="9750.5" y="8192.128967220784">
64
</text>
<text font-size="136.08276348795434" text-anchor="middle" x="3865" y="9334.128967220784">
65
</text>
<text font-size="136.08276348795434" text-anchor="middle" x="7478" y="247.628967220784">
66
</text>
<text font-size="136.08276348795434" text-anchor="middle" x="382" y="4851.128967220784">
67
</text>
<text font-size="136.08276348795434" text-anchor="middle" x="9289.5" y="1363.128967220784">
68
</text>
<text font-size="136.08276348795434" text-anchor="middle" x="3286.5" y="156.628967220784">
69
</text>
<text font-size="136.08276348795434" text-anchor="middle" x="9751.5" y="4185.628967220784">
70
</text>
<text font-size="136.08276348795434" text-anchor="middle" x="2164.5" y="2105.128967220784">
71
</text>
<text font-size="136.08276348795434" text-anchor="middle" x="1319.5" y="3550.628967220784">
72
</text>
<text font-size="136.08276348795434" text-anchor="middle" x="1506.5" y="7777.128967220784">
73
</text>
<text font-size="136.08276348795434" text-anchor="middle" x="3481" y="5610.628967220784">
74
</text>
<text font-size="136.08276348795434" text-anchor="middle" x="5268" y="101.628967220784">
75
</text>
<text font-size="136.08276348795434" text-anchor="middle" x="2095.5" y="4932.128967220784">
76
</text>
<text font-size="136.08276348795434" text-anchor="middle" x="4820.5" y="8640.128967220784">
77
</text>
<text font-size="136.08276348795434" text-anchor="middle" x="1892" y="1714.628967220784">
78
</text>
<text font-size="136.08276348795434" text-anchor="middle" x="2907.5" y="7615.128967220784">
79
</text>
<text font-size="136.08276348795434" text-anchor="middle" x="3977.5" y="2288.628967220784">
80
</text>
<text font-size="136.08276348795434" text-anchor="middle" x="3927.5" y="6060.628967220784">
81
</text>
<text font-size="136.08276348795434" text-anchor="middle" x="9580" y="3605.628967220784">
82
</text>
<text font-size="136.08276348795434" text-anchor="middle" x="6470.5" y="1723.128967220784">
83
</text>
<text font-size="136.08276348795434" text-anchor="middle" x="5953.5" y="4000.628967220784">
84
</text>
<text font-size="136.08276348795434" text-anchor="middle" x="3487.5" y="2266.628967220784">
85
</text>
<text font-size="136.08276348795434" text-anchor="middle" x="4999.5" y="3070.628967220784">
86
</text>
<text font-size="136.08276348795434" text-anchor="middle" x="114" y="5943.128967220784">
87
</text>
<text font-size="136.08276348795434" text-anchor="middle" x="6120.5" y="8034.128967220784">
88
</text>
<text font-size="136.08276348795434" text-anchor="middle" x="8946.5" y="5630.128967220784">
89
</text>
<text font-size="136.08276348795434" text-anchor="middle" x="3177.5" y="788.128967220784">
90
</text>
<text font-size="136.08276348795434" text-anchor="middle" x="4013.5" y="7385.628967220784">
91
</text>
<text font-size="136.08276348795434" text-anchor="middle" x="6259.5" y="2350.628967220784">
92
</text>
<text font-size="136.08276348795434" text-anchor="middle" x="2900.5" y="6674.628967220784">
93
</text>
<text font-size="136.08276348795434" text-anchor="middle" x="4916" y="6023.128967220784">
94
</text>
<text font-size="136.08276348795434" text-anchor="middle" x="9140" y="3674.628967220784">
95
</text>
<text font-size="136.08276348795434" text-anchor="middle" x="6877" y="5717.128967220784">
96
</text>
<text font-size="136.08276348795434" text-anchor="middle" x="8510.5" y="2214.628967220784">
97
</text>
<text font-size="136.08276348795434" text-anchor="middle" x="626.5" y="3677.128967220784">
98
</text>
<text font-size="136.08276348795434" text-anchor="middle" x="2388" y="2386.128967220784">
99
</text>
<text font-size="136.08276348795434" text-anchor="middle" x="4079" y="8068.628967220784">
100
</text>
<text font-size="136.08276348795434" text-anchor="middle" x="1628.5" y="9387.128967220784">
101
</text>
<text font-size="136.08276348795434" text-anchor="middle" x="2830" y="3172.628967220784">
102
</text>
<text font-size="136.08276348795434" text-anchor="middle" x="9389" y="5674.128967220784">
103
</text>
<text font-size="136.08276348795434" text-anchor="middle" x="792.5" y="5449.628967220784">
104
</text>
<text font-size="136.08276348795434" text-anchor="middle" x="4558.5" y="2145.628967220784">
105
</text>
<text font-size="136.08276348795434" text-anchor="middle" x="2655.5" y="5023.128967220784">
106
</text>
<text font-size="136.08276348795434" text-anchor="middle" x="7977" y="2353.128967220784">
107
</text>
</svg>