<svg viewBox="0 0 10000 10000" xmlns="http://www.w3.org/2000/svg">
<path d="M0,0 l10000,0 l0,10000 l-10000,0 z" fill="white"/>
<path d="M6187,4713 l947,0 l0,526 l-947,0 z" fill="#fe00ff" stroke="black" stroke-width="5"/>
<path d="M6190,5239 l2850,0 l0,133 l-2850,0 z" fill="#fe00ff" stroke="black" stroke-width="5"/>
<path d="M245,3015 l7366,0 l0,74 l-7366,0 z" fill="#fe00ff" stroke="black" stroke-width="5"/>
<path d="M528,4575 l305,0 l0,1355 l-305,0 z" fill="#fe00ff" stroke="black" stroke-width="5"/>
<path d="M863,4865 l2693,0 l0,248 l-2693,0 z" fill="#fe00ff" stroke="black" stroke-width="5"/>
<path d="M6067,7570 l322,0 l0,2148 l-322,0 z" fill="#fe00ff" stroke="black" stroke-width="5"/>
<path d="M4149,6805 l3471,0 l0,380 l-3471,0 z" fill="#fe00ff" stroke="black" stroke-width="5"/>
<path d="M0,9872 l10000,0 l0,128 l-10000,0 z" fill="#bc00ff" stroke="black" stroke-width="5"/>
<path d="M184,5741 l258,0 l0,2278 l-258,0 z" fill="#fe00ff" stroke="black" stroke-width="5"/>
<path d="M2555,9452 l2214,0 l0,258 l-2214,0 z" fill="#fe00ff" stroke="black" stroke-width="5"/>
<path d="M5055,858 l966,0 l0,274 l-966,0 z" fill="#fe00ff" stroke="black" stroke-width="5"/>
<path d="M377,849 l4674,0 l0,187 l-4674,0 z" fill="#fd00ff" stroke="black" stroke-width="5"/>
<path d="M3876,5037 l495,0 l0,1240 l-495,0 z" fill="#fe00ff" stroke="black" stroke-width="5"/>
<path d="M7203,1557 l2797,0 l0,235 l-2797,0 z" fill="#fe00ff" stroke="black" stroke-width="5"/>
<path d="M4829,6138 l579,0 l0,124 l-579,0 z" fill="#fe00ff" stroke="black" stroke-width="5"/>
<path d="M3716,4003 l818,0 l0,239 l-818,0 z" fill="#fe00ff" stroke="black" stroke-width="5"/>
<path d="M8663,7685 l343,0 l0,349 l-343,0 z" fill="#fe00ff" stroke="black" stroke-width="5"/>
<path d="M8101,380 l1899,0 l0,843 l-1899,0 z" fill="#8600ff" stroke="black" stroke-width="5"/>
<path d="M9639,8903 l361,0 l0,963 l-361,0 z" fill="#fe00ff" stroke="black" stroke-width="5"/>
<path d="M841,4256 l6356,0 l0,301 l-6356,0 z" fill="#f200ff" stroke="black" stroke-width="5"/>
<path d="M0,8965 l2375,0 l0,753 l-2375,0 z" fill="#fe00ff" stroke="black" stroke-width="5"/>
<path d="M6882,8188 l844,0 l0,1528 l-844,0 z" fill="#fe00ff" stroke="black" stroke-width="5"/>
<path d="M7611,2855 l2077,0 l0,570 l-2077,0 z" fill="#fe00ff" stroke="black" stroke-width="5"/>
<path d="M1210,4856 l2222,0 l0,9 l-2222,0 z" fill="#fe00ff" stroke="black" stroke-width="5"/>
<path d="M9983,4396 l13,0 l0,1209 l-13,0 z" fill="#fe00ff" stroke="black" stroke-width="5"/>
<path d="M7197,4256 l1858,0 l0,983 l-1858,0 z" fill="#fe00ff" stroke="black" stroke-width="5"/>
<path d="M9555,1792 l403,0 l0,822 l-403,0 z" fill="#fe00ff" stroke="black" stroke-width="5"/>
<path d="M0,618 l361,0 l0,450 l-361,0 z" fill="#fe00ff" stroke="black" stroke-width="5"/>
<path d="M563,1234 l4306,0 l0,304 l-4306,0 z" fill="#fe00ff" stroke="black" stroke-width="5"/>
<path d="M442,6277 l5871,0 l0,527 l-5871,0 z" fill="#fe00ff" stroke="black" stroke-width="5"/>
<path d="M0,8422 l2914,0 l0,460 l-2914,0 z" fill="#fe00ff" stroke="black" stroke-width="5"/>
<path d="M9006,7279 l633,0 l0,2593 l-633,0 z" fill="#de00ff" stroke="black" stroke-width="5"/>
<path d="M0,9718 l9005,0 l0,107 l-9005,0 z" fill="#fe00ff" stroke="black" stroke-width="5"/>
<path d="M4464,7185 l3157,0 l0,304 l-3157,0 z" fill="#fe00ff" stroke="black" stroke-width="5"/>
<path d="M245,1544 l8405,0 l0,13 l-8405,0 z" fill="#fe00ff" stroke="black" stroke-width="5"/>
<path d="M11,8318 l4240,0 l0,64 l-4240,0 z" fill="#fe00ff" stroke="black" stroke-width="5"/>
<path d="M7218,2707 l2468,0 l0,148 l-2468,0 z" fill="#fe00ff" stroke="black" stroke-width="5"/>
<path d="M3071,2241 l2997,0 l0,774 l-2997,0 z" fill="#d500ff" stroke="black" stroke-width="5"/>
<path d="M8239,6473 l4,0 l0,669 l-4,0 z" fill="#fe00ff" stroke="black" stroke-width="5"/>
<path d="M8239,7420 l220,0 l0,2298 l-220,0 z" fill="#fe00ff" stroke="black" stroke-width="5"/>
<path d="M74,9831 l8778,0 l0,41 l-8778,0 z" fill="#fe00ff" stroke="black" stroke-width="5"/>
<path d="M464,2847 l2607,0 l0,164 l-2607,0 z" fill="#fe00ff" stroke="black" stroke-width="5"/>
<path d="M8243,5372 l812,0 l0,1904 l-812,0 z" fill="#fe00ff" stroke="black" stroke-width="5"/>
<path d="M6313,5382 l1298,0 l0,1423 l-1298,0 z" fill="#fe00ff" stroke="black" stroke-width="5"/>
<path d="M863,7932 l71,0 l0,368 l-71,0 z" fill="#fe00ff" stroke="black" stroke-width="5"/>
<path d="M6940,7494 l525,0 l0,378 l-525,0 z" fill="#fe00ff" stroke="black" stroke-width="5"/>
<path d="M7726,5381 l513,0 l0,4329 l-513,0 z" fill="#f600ff" stroke="black" stroke-width="5"/>
<path d="M6021,380 l714,0 l0,752 l-714,0 z" fill="#fe00ff" stroke="black" stroke-width="5"/>
<path d="M1309,5113 l2567,0 l0,1164 l-2567,0 z" fill="#fe00ff" stroke="black" stroke-width="5"/>
<path d="M297,3447 l1010,0 l0,520 l-1010,0 z" fill="#fe00ff" stroke="black" stroke-width="5"/>
<path d="M387,4301 l97,0 l0,1146 l-97,0 z" fill="#fe00ff" stroke="black" stroke-width="5"/>
<path d="M0,186 l4289,0 l0,345 l-4289,0 z" fill="#e200ff" stroke="black" stroke-width="5"/>
<path d="M3629,58 l461,0 l0,121 l-461,0 z" fill="#fe00ff" stroke="black" stroke-width="5"/>
<path d="M2535,7331 l1929,0 l0,987 l-1929,0 z" fill="#fe00ff" stroke="black" stroke-width="5"/>
<path d="M92,2328 l72,0 l0,5150 l-72,0 z" fill="#fe00ff" stroke="black" stroke-width="5"/>
<path d="M164,1071 l81,0 l0,4670 l-81,0 z" fill="#fe00ff" stroke="black" stroke-width="5"/>
<path d="M4289,107 l5711,0 l0,273 l-5711,0 z" fill="#5d00ff" stroke="black" stroke-width="5"/>
<path d="M610,4196 l227,0 l0,377 l-227,0 z" fill="#fe00ff" stroke="black" stroke-width="5"/>
<path d="M2923,8382 l3140,0 l0,426 l-3140,0 z" fill="#fe00ff" stroke="black" stroke-width="5"/>
<path d="M3984,7030 l165,0 l0,240 l-165,0 z" fill="#fe00ff" stroke="black" stroke-width="5"/>
<path d="M9692,2614 l291,0 l0,6289 l-291,0 z" fill="#f900ff" stroke="black" stroke-width="5"/>
<path d="M1248,5260 l61,0 l0,854 l-61,0 z" fill="#fe00ff" stroke="black" stroke-width="5"/>
<path d="M1164,1766 l4484,0 l0,475 l-4484,0 z" fill="#f600ff" stroke="black" stroke-width="5"/>
<path d="M7205,1792 l1154,0 l0,915 l-1154,0 z" fill="#fb00ff" stroke="black" stroke-width="5"/>
<path d="M9055,4256 l637,0 l0,3023 l-637,0 z" fill="#e900ff" stroke="black" stroke-width="5"/>
<path d="M0,0 l3629,0 l0,186 l-3629,0 z" fill="#fe00ff" stroke="black" stroke-width="5"/>
<path d="M2686,8889 l3333,0 l0,320 l-3333,0 z" fill="#fe00ff" stroke="black" stroke-width="5"/>
<path d="M913,4557 l3438,0 l0,299 l-3438,0 z" fill="#fe00ff" stroke="black" stroke-width="5"/>
<path d="M4534,3790 l5154,0 l0,466 l-5154,0 z" fill="#de00ff" stroke="black" stroke-width="5"/>
<path d="M361,618 l5654,0 l0,231 l-5654,0 z" fill="#f700ff" stroke="black" stroke-width="5"/>
<path d="M442,7084 l3230,0 l0,176 l-3230,0 z" fill="#fe00ff" stroke="black" stroke-width="5"/>
<path d="M1068,3997 l2483,0 l0,52 l-2483,0 z" fill="#fe00ff" stroke="black" stroke-width="5"/>
<path d="M7621,5372 l105,0 l0,2816 l-105,0 z" fill="#fe00ff" stroke="black" stroke-width="5"/>
<path d="M384,1036 l4550,0 l0,94 l-4550,0 z" fill="#fe00ff" stroke="black" stroke-width="5"/>
<path d="M0,531 l6019,0 l0,87 l-6019,0 z" fill="#fe00ff" stroke="black" stroke-width="5"/>
<path d="M4644,7491 l1417,0 l0,891 l-1417,0 z" fill="#fe00ff" stroke="black" stroke-width="5"/>
<path d="M137,8392 l2295,0 l0,30 l-2295,0 z" fill="#fe00ff" stroke="black" stroke-width="5"/>
<path d="M6068,2132 l1136,0 l0,883 l-1136,0 z" fill="#fc00ff" stroke="black" stroke-width="5"/>
<path d="M5648,1557 l1555,0 l0,575 l-1555,0 z" fill="#fe00ff" stroke="black" stroke-width="5"/>
<path d="M4090,0 l5910,0 l0,107 l-5910,0 z" fill="#f800ff" stroke="black" stroke-width="5"/>
<path d="M245,1132 l6490,0 l0,91 l-6490,0 z" fill="#fe00ff" stroke="black" stroke-width="5"/>
<path d="M4871,8808 l431,0 l0,64 l-431,0 z" fill="#fe00ff" stroke="black" stroke-width="5"/>
<path d="M245,1769 l919,0 l0,575 l-919,0 z" fill="#fe00ff" stroke="black" stroke-width="5"/>
<path d="M442,7269 l3306,0 l0,55 l-3306,0 z" fill="#fe00ff" stroke="black" stroke-width="5"/>
<path d="M6735,380 l1366,0 l0,843 l-1366,0 z" fill="#fa00ff" stroke="black" stroke-width="5"/>
<path d="M757,2344 l2071,0 l0,141 l-2071,0 z" fill="#fe00ff" stroke="black" stroke-width="5"/>
<path d="M4371,4557 l1816,0 l0,1581 l-1816,0 z" fill="#fe00ff" stroke="black" stroke-width="5"/>
<path d="M9644,7449 l35,0 l0,973 l-35,0 z" fill="#fe00ff" stroke="black" stroke-width="5"/>
<path d="M2665,9219 l3402,0 l0,228 l-3402,0 z" fill="#fe00ff" stroke="black" stroke-width="5"/>
<path d="M937,7625 l1598,0 l0,693 l-1598,0 z" fill="#fe00ff" stroke="black" stroke-width="5"/>
<path d="M245,1557 l5402,0 l0,209 l-5402,0 z" fill="#fe00ff" stroke="black" stroke-width="5"/>
<path d="M8360,1792 l1195,0 l0,907 l-1195,0 z" fill="#fe00ff" stroke="black" stroke-width="5"/>
<path d="M6389,7489 l483,0 l0,2229 l-483,0 z" fill="#fe00ff" stroke="black" stroke-width="5"/>
<path d="M1308,3429 l8377,0 l0,361 l-8377,0 z" fill="#ee00ff" stroke="black" stroke-width="5"/>
<path d="M245,3401 l6378,0 l0,28 l-6378,0 z" fill="#fe00ff" stroke="black" stroke-width="5"/>
<path d="M245,3089 l7337,0 l0,312 l-7337,0 z" fill="#fe00ff" stroke="black" stroke-width="5"/>
<path d="M615,2492 l2156,0 l0,190 l-2156,0 z" fill="#fe00ff" stroke="black" stroke-width="5"/>
<path d="M485,6809 l3364,0 l0,259 l-3364,0 z" fill="#fe00ff" stroke="black" stroke-width="5"/>
<path d="M4869,1223 l5131,0 l0,321 l-5131,0 z" fill="#d300ff" stroke="black" stroke-width="5"/>
<path d="M7074,4768 l60,0 l0,60 l-60,0 z" fill="green"/>
<path d="M7104,4798 l-443.5,178" stroke="black" stroke-width="5"/>
<path d="M8973,5341 l60,0 l0,60 l-60,0 z" fill="green"/>
<path d="M9003,5371 l-1388,-65.5" stroke="black" stroke-width="5"/>
<path d="M6517,3010 l60,0 l0,60 l-60,0 z" fill="green"/>
<path d="M6547,3040 l-2619,12" stroke="black" stroke-width="5"/>
<path d="M798,4622 l60,0 l0,60 l-60,0 z" fill="green"/>
<path d="M828,4652 l-147.5,600.5" stroke="black" stroke-width="5"/>
<path d="M3123,5071 l60,0 l0,60 l-60,0 z" fill="green"/>
<path d="M3153,5101 l-943.5,-112" stroke="black" stroke-width="5"/>
<path d="M6155,8241 l60,0 l0,60 l-60,0 z" fill="green"/>
<path d="M6185,8271 l43,373" stroke="black" stroke-width="5"/>
<path d="M5726,6935 l60,0 l0,60 l-60,0 z" fill="green"/>
<path d="M5756,6965 l128.5,30" stroke="black" stroke-width="5"/>
<path d="M3773,9855 l60,0 l0,60 l-60,0 z" fill="green"/>
<path d="M3803,9885 l1197,51" stroke="black" stroke-width="5"/>
<path d="M411,5713 l60,0 l0,60 l-60,0 z" fill="green"/>
<path d="M441,5743 l-128,1137" stroke="black" stroke-width="5"/>
<path d="M4738,9422 l60,0 l0,60 l-60,0 z" fill="green"/>
<path d="M4768,9452 l-1106,129" stroke="black" stroke-width="5"/>
<path d="M5098,1055 l60,0 l0,60 l-60,0 z" fill="green"/>
<path d="M5128,1085 l410,-90" stroke="black" stroke-width="5"/>
<path d="M4021,968 l60,0 l0,60 l-60,0 z" fill="green"/>
<path d="M4051,998 l-1337,-55.5" stroke="black" stroke-width="5"/>
<path d="M4313,5315 l60,0 l0,60 l-60,0 z" fill="green"/>
<path d="M4343,5345 l-219.5,312" stroke="black" stroke-width="5"/>
<path d="M7564,1733 l60,0 l0,60 l-60,0 z" fill="green"/>
<path d="M7594,1763 l1007.5,-88.5" stroke="black" stroke-width="5"/>
<path d="M4799,6108 l60,0 l0,60 l-60,0 z" fill="green"/>
<path d="M4829,6138 l289.5,62" stroke="black" stroke-width="5"/>
<path d="M4503,3973 l60,0 l0,60 l-60,0 z" fill="green"/>
<path d="M4533,4003 l-408,119.5" stroke="black" stroke-width="5"/>
<path d="M8975,7758 l60,0 l0,60 l-60,0 z" fill="green"/>
<path d="M9005,7788 l-170.5,71.5" stroke="black" stroke-width="5"/>
<path d="M8173,1152 l60,0 l0,60 l-60,0 z" fill="green"/>
<path d="M8203,1182 l847.5,-380.5" stroke="black" stroke-width="5"/>
<path d="M9609,8953 l60,0 l0,60 l-60,0 z" fill="green"/>
<path d="M9639,8983 l180.5,401.5" stroke="black" stroke-width="5"/>
<path d="M6322,4251 l60,0 l0,60 l-60,0 z" fill="green"/>
<path d="M6352,4281 l-2333,125.5" stroke="black" stroke-width="5"/>
<path d="M2254,8969 l60,0 l0,60 l-60,0 z" fill="green"/>
<path d="M2284,8999 l-1096.5,342.5" stroke="black" stroke-width="5"/>
<path d="M6855,8880 l60,0 l0,60 l-60,0 z" fill="green"/>
<path d="M6885,8910 l419,42" stroke="black" stroke-width="5"/>
<path d="M7608,3382 l60,0 l0,60 l-60,0 z" fill="green"/>
<path d="M7638,3412 l1011.5,-272" stroke="black" stroke-width="5"/>
<path d="M3042,4826 l60,0 l0,60 l-60,0 z" fill="green"/>
<path d="M3072,4856 l-751,4.5" stroke="black" stroke-width="5"/>
<path d="M9953,4941 l60,0 l0,60 l-60,0 z" fill="green"/>
<path d="M9983,4971 l6.5,29.5" stroke="black" stroke-width="5"/>
<path d="M7773,4365 l60,0 l0,60 l-60,0 z" fill="green"/>
<path d="M7803,4395 l323,352.5" stroke="black" stroke-width="5"/>
<path d="M9926,2582 l60,0 l0,60 l-60,0 z" fill="green"/>
<path d="M9956,2612 l-199.5,-409" stroke="black" stroke-width="5"/>
<path d="M330,728 l60,0 l0,60 l-60,0 z" fill="green"/>
<path d="M360,758 l-179.5,85" stroke="black" stroke-width="5"/>
<path d="M4838,1316 l60,0 l0,60 l-60,0 z" fill="green"/>
<path d="M4868,1346 l-2152,40" stroke="black" stroke-width="5"/>
<path d="M5932,6429 l60,0 l0,60 l-60,0 z" fill="green"/>
<path d="M5962,6459 l-2584.5,81.5" stroke="black" stroke-width="5"/>
<path d="M2849,8849 l60,0 l0,60 l-60,0 z" fill="green"/>
<path d="M2879,8879 l-1422,-227" stroke="black" stroke-width="5"/>
<path d="M9220,7283 l60,0 l0,60 l-60,0 z" fill="green"/>
<path d="M9250,7313 l72.5,1262.5" stroke="black" stroke-width="5"/>
<path d="M3428,9785 l60,0 l0,60 l-60,0 z" fill="green"/>
<path d="M3458,9815 l1044.5,-43.5" stroke="black" stroke-width="5"/>
<path d="M4893,7353 l60,0 l0,60 l-60,0 z" fill="green"/>
<path d="M4923,7383 l1119.5,-46" stroke="black" stroke-width="5"/>
<path d="M8612,1514 l60,0 l0,60 l-60,0 z" fill="green"/>
<path d="M8642,1544 l-4194.5,6.5" stroke="black" stroke-width="5"/>
<path d="M4220,8288 l60,0 l0,60 l-60,0 z" fill="green"/>
<path d="M4250,8318 l-2119,32" stroke="black" stroke-width="5"/>
<path d="M7771,2733 l60,0 l0,60 l-60,0 z" fill="green"/>
<path d="M7801,2763 l651,18" stroke="black" stroke-width="5"/>
<path d="M4602,2531 l60,0 l0,60 l-60,0 z" fill="green"/>
<path d="M4632,2561 l-62.5,67" stroke="black" stroke-width="5"/>
<path d="M8209,6777 l60,0 l0,60 l-60,0 z" fill="green"/>
<path d="M8239,6807 l2,0.5" stroke="black" stroke-width="5"/>
<path d="M8419,7435 l60,0 l0,60 l-60,0 z" fill="green"/>
<path d="M8449,7465 l-100,1104" stroke="black" stroke-width="5"/>
<path d="M3916,9841 l60,0 l0,60 l-60,0 z" fill="green"/>
<path d="M3946,9871 l517,-19.5" stroke="black" stroke-width="5"/>
<path d="M3039,2829 l60,0 l0,60 l-60,0 z" fill="green"/>
<path d="M3069,2859 l-1301.5,70" stroke="black" stroke-width="5"/>
<path d="M9024,5497 l60,0 l0,60 l-60,0 z" fill="green"/>
<path d="M9054,5527 l-405,797" stroke="black" stroke-width="5"/>
<path d="M7580,5413 l60,0 l0,60 l-60,0 z" fill="green"/>
<path d="M7610,5443 l-648,650.5" stroke="black" stroke-width="5"/>
<path d="M865,7903 l60,0 l0,60 l-60,0 z" fill="green"/>
<path d="M895,7933 l3.5,183" stroke="black" stroke-width="5"/>
<path d="M7434,7464 l60,0 l0,60 l-60,0 z" fill="green"/>
<path d="M7464,7494 l-261.5,189" stroke="black" stroke-width="5"/>
<path d="M7703,6973 l60,0 l0,60 l-60,0 z" fill="green"/>
<path d="M7733,7003 l249.5,542.5" stroke="black" stroke-width="5"/>
<path d="M6403,350 l60,0 l0,60 l-60,0 z" fill="green"/>
<path d="M6433,380 l-55,376" stroke="black" stroke-width="5"/>
<path d="M2121,5905 l60,0 l0,60 l-60,0 z" fill="green"/>
<path d="M2151,5935 l441.5,-240" stroke="black" stroke-width="5"/>
<path d="M1274,3935 l60,0 l0,60 l-60,0 z" fill="green"/>
<path d="M1304,3965 l-502,-258" stroke="black" stroke-width="5"/>
<path d="M453,4644 l60,0 l0,60 l-60,0 z" fill="green"/>
<path d="M483,4674 l-47.5,200" stroke="black" stroke-width="5"/>
<path d="M3924,379 l60,0 l0,60 l-60,0 z" fill="green"/>
<path d="M3954,409 l-1809.5,-50.5" stroke="black" stroke-width="5"/>
<path d="M4056,29 l60,0 l0,60 l-60,0 z" fill="green"/>
<path d="M4086,59 l-226.5,59.5" stroke="black" stroke-width="5"/>
<path d="M3681,7305 l60,0 l0,60 l-60,0 z" fill="green"/>
<path d="M3711,7335 l-211.5,489.5" stroke="black" stroke-width="5"/>
<path d="M133,2298 l60,0 l0,60 l-60,0 z" fill="green"/>
<path d="M163,2328 l-35,2575" stroke="black" stroke-width="5"/>
<path d="M190,1041 l60,0 l0,60 l-60,0 z" fill="green"/>
<path d="M220,1071 l-15.5,2335" stroke="black" stroke-width="5"/>
<path d="M5207,79 l60,0 l0,60 l-60,0 z" fill="green"/>
<path d="M5237,109 l1907.5,134.5" stroke="black" stroke-width="5"/>
<path d="M806,4542 l60,0 l0,60 l-60,0 z" fill="green"/>
<path d="M836,4572 l-112.5,-187.5" stroke="black" stroke-width="5"/>
<path d="M3867,8705 l60,0 l0,60 l-60,0 z" fill="green"/>
<path d="M3897,8735 l596,-140" stroke="black" stroke-width="5"/>
<path d="M4118,7055 l60,0 l0,60 l-60,0 z" fill="green"/>
<path d="M4148,7085 l-81.5,65" stroke="black" stroke-width="5"/>
<path d="M9697,4547 l60,0 l0,60 l-60,0 z" fill="green"/>
<path d="M9727,4577 l110.5,1181.5" stroke="black" stroke-width="5"/>
<path d="M1278,5262 l60,0 l0,60 l-60,0 z" fill="green"/>
<path d="M1308,5292 l-29.5,395" stroke="black" stroke-width="5"/>
<path d="M3799,2055 l60,0 l0,60 l-60,0 z" fill="green"/>
<path d="M3829,2085 l-423,-81.5" stroke="black" stroke-width="5"/>
<path d="M7739,2246 l60,0 l0,60 l-60,0 z" fill="green"/>
<path d="M7769,2276 l13,-26.5" stroke="black" stroke-width="5"/>
<path d="M9591,5106 l60,0 l0,60 l-60,0 z" fill="green"/>
<path d="M9621,5136 l-247.5,631.5" stroke="black" stroke-width="5"/>
<path d="M3221,155 l60,0 l0,60 l-60,0 z" fill="green"/>
<path d="M3251,185 l-1436.5,-92" stroke="black" stroke-width="5"/>
<path d="M2656,9105 l60,0 l0,60 l-60,0 z" fill="green"/>
<path d="M2686,9135 l1666.5,-86" stroke="black" stroke-width="5"/>
<path d="M4320,4527 l60,0 l0,60 l-60,0 z" fill="green"/>
<path d="M4350,4557 l-1718,149.5" stroke="black" stroke-width="5"/>
<path d="M9567,4094 l60,0 l0,60 l-60,0 z" fill="green"/>
<path d="M9597,4124 l-2486,-101" stroke="black" stroke-width="5"/>
<path d="M5722,749 l60,0 l0,60 l-60,0 z" fill="green"/>
<path d="M5752,779 l-2564,-45.5" stroke="black" stroke-width="5"/>
<path d="M3636,7229 l60,0 l0,60 l-60,0 z" fill="green"/>
<path d="M3666,7259 l-1609,-87" stroke="black" stroke-width="5"/>
<path d="M1038,3967 l60,0 l0,60 l-60,0 z" fill="green"/>
<path d="M1068,3997 l1241.5,26" stroke="black" stroke-width="5"/>
<path d="M7647,5380 l60,0 l0,60 l-60,0 z" fill="green"/>
<path d="M7677,5410 l-3.5,1370" stroke="black" stroke-width="5"/>
<path d="M4341,1006 l60,0 l0,60 l-60,0 z" fill="green"/>
<path d="M4371,1036 l-1712,47" stroke="black" stroke-width="5"/>
<path d="M5146,519 l60,0 l0,60 l-60,0 z" fill="green"/>
<path d="M5176,549 l-2166.5,25.5" stroke="black" stroke-width="5"/>
<path d="M4795,7465 l60,0 l0,60 l-60,0 z" fill="green"/>
<path d="M4825,7495 l527.5,441.5" stroke="black" stroke-width="5"/>
<path d="M2401,8391 l60,0 l0,60 l-60,0 z" fill="green"/>
<path d="M2431,8421 l-1146.5,-14" stroke="black" stroke-width="5"/>
<path d="M7119,2309 l60,0 l0,60 l-60,0 z" fill="green"/>
<path d="M7149,2339 l-513,234.5" stroke="black" stroke-width="5"/>
<path d="M6343,1698 l60,0 l0,60 l-60,0 z" fill="green"/>
<path d="M6373,1728 l52.5,116.5" stroke="black" stroke-width="5"/>
<path d="M4343,-13 l60,0 l0,60 l-60,0 z" fill="green"/>
<path d="M4373,17 l2672,36.5" stroke="black" stroke-width="5"/>
<path d="M6704,1192 l60,0 l0,60 l-60,0 z" fill="green"/>
<path d="M6734,1222 l-3244,-44.5" stroke="black" stroke-width="5"/>
<path d="M5166,8785 l60,0 l0,60 l-60,0 z" fill="green"/>
<path d="M5196,8815 l-109.5,25" stroke="black" stroke-width="5"/>
<path d="M843,1750 l60,0 l0,60 l-60,0 z" fill="green"/>
<path d="M873,1780 l-168.5,276.5" stroke="black" stroke-width="5"/>
<path d="M3696,7293 l60,0 l0,60 l-60,0 z" fill="green"/>
<path d="M3726,7323 l-1631,-26.5" stroke="black" stroke-width="5"/>
<path d="M8070,1029 l60,0 l0,60 l-60,0 z" fill="green"/>
<path d="M8100,1059 l-682,-257.5" stroke="black" stroke-width="5"/>
<path d="M727,2314 l60,0 l0,60 l-60,0 z" fill="green"/>
<path d="M757,2344 l1035.5,70.5" stroke="black" stroke-width="5"/>
<path d="M5362,4613 l60,0 l0,60 l-60,0 z" fill="green"/>
<path d="M5392,4643 l-113,704.5" stroke="black" stroke-width="5"/>
<path d="M9614,7419 l60,0 l0,60 l-60,0 z" fill="green"/>
<path d="M9644,7449 l17.5,486.5" stroke="black" stroke-width="5"/>
<path d="M2673,9190 l60,0 l0,60 l-60,0 z" fill="green"/>
<path d="M2703,9220 l1663,113" stroke="black" stroke-width="5"/>
<path d="M2504,7647 l60,0 l0,60 l-60,0 z" fill="green"/>
<path d="M2534,7677 l-798,294.5" stroke="black" stroke-width="5"/>
<path d="M5386,1543 l60,0 l0,60 l-60,0 z" fill="green"/>
<path d="M5416,1573 l-2470,88.5" stroke="black" stroke-width="5"/>
<path d="M8330,2632 l60,0 l0,60 l-60,0 z" fill="green"/>
<path d="M8360,2662 l597.5,-416.5" stroke="black" stroke-width="5"/>
<path d="M6552,8159 l60,0 l0,60 l-60,0 z" fill="green"/>
<path d="M6582,8189 l48.5,414.5" stroke="black" stroke-width="5"/>
<path d="M8323,3617 l60,0 l0,60 l-60,0 z" fill="green"/>
<path d="M8353,3647 l-2856.5,-37.5" stroke="black" stroke-width="5"/>
<path d="M6537,3398 l60,0 l0,60 l-60,0 z" fill="green"/>
<path d="M6567,3428 l-3133,-13" stroke="black" stroke-width="5"/>
<path d="M7523,3059 l60,0 l0,60 l-60,0 z" fill="green"/>
<path d="M7553,3089 l-3639.5,156" stroke="black" stroke-width="5"/>
<path d="M2740,2462 l60,0 l0,60 l-60,0 z" fill="green"/>
<path d="M2770,2492 l-1077,95" stroke="black" stroke-width="5"/>
<path d="M3814,6940 l60,0 l0,60 l-60,0 z" fill="green"/>
<path d="M3844,6970 l-1677,-31.5" stroke="black" stroke-width="5"/>
<path d="M7690,1428 l60,0 l0,60 l-60,0 z" fill="green"/>
<path d="M7720,1458 l-285.5,-74.5" stroke="black" stroke-width="5"/>
<text font-size="142.13381090374028" text-anchor="middle" x="6660.5" y="5025.746833816309">
0
</text>
<text font-size="142.13381090374028" text-anchor="middle" x="7615" y="5355.246833816309">
1
</text>
<text font-size="142.13381090374028" text-anchor="middle" x="3928" y="3101.746833816309">
2
</text>
<text font-size="142.13381090374028" text-anchor="middle" x="680.5" y="5302.246833816309">
3
</text>
<text font-size="142.13381090374028" text-anchor="middle" x="2209.5" y="5038.746833816309">
4
</text>
<text font-size="142.13381090374028" text-anchor="middle" x="6228" y="8693.746833816309">
5
</text>
<text font-size="142.13381090374028" text-anchor="middle" x="5884.5" y="7044.746833816309">
6
</text>
<text font-size="142.13381090374028" text-anchor="middle" x="5000" y="9985.746833816309">
7
</text>
<text font-size="142.13381090374028" text-anchor="middle" x="313" y="6929.746833816309">
8
</text>
<text font-size="142.13381090374028" text-anchor="middle" x="3662" y="9630.746833816309">
9
</text>
<text font-size="142.13381090374028" text-anchor="middle" x="5538" y="1044.7468338163092">
10
</text>
<text font-size="142.13381090374028" text-anchor="middle" x="2714" y="992.246833816309">
11
</text>
<text font-size="142.13381090374028" text-anchor="middle" x="4123.5" y="5706.746833816309">
12
</text>
<text font-size="142.13381090374028" text-anchor="middle" x="8601.5" y="1724.2468338163092">
13
</text>
<text font-size="142.13381090374028" text-anchor="middle" x="5118.5" y="6249.746833816309">
14
</text>
<text font-size="142.13381090374028" text-anchor="middle" x="4125" y="4172.246833816309">
15
</text>
<text font-size="142.13381090374028" text-anchor="middle" x="8834.5" y="7909.246833816309">
16
</text>
<text font-size="142.13381090374028" text-anchor="middle" x="9050.5" y="851.246833816309">
17
</text>
<text font-size="142.13381090374028" text-anchor="middle" x="9819.5" y="9434.246833816309">
18
</text>
<text font-size="142.13381090374028" text-anchor="middle" x="4019" y="4456.246833816309">
19
</text>
<text font-size="142.13381090374028" text-anchor="middle" x="1187.5" y="9391.246833816309">
20
</text>
<text font-size="142.13381090374028" text-anchor="middle" x="7304" y="9001.746833816309">
21
</text>
<text font-size="142.13381090374028" text-anchor="middle" x="8649.5" y="3189.746833816309">
22
</text>
<text font-size="142.13381090374028" text-anchor="middle" x="2321" y="4910.246833816309">
23
</text>
<text font-size="142.13381090374028" text-anchor="middle" x="9989.5" y="5050.246833816309">
24
</text>
<text font-size="142.13381090374028" text-anchor="middle" x="8126" y="4797.246833816309">
25
</text>
<text font-size="142.13381090374028" text-anchor="middle" x="9756.5" y="2252.746833816309">
26
</text>
<text font-size="142.13381090374028" text-anchor="middle" x="180.5" y="892.746833816309">
27
</text>
<text font-size="142.13381090374028" text-anchor="middle" x="2716" y="1435.7468338163092">
28
</text>
<text font-size="142.13381090374028" text-anchor="middle" x="3377.5" y="6590.246833816309">
29
</text>
<text font-size="142.13381090374028" text-anchor="middle" x="1457" y="8701.746833816309">
30
</text>
<text font-size="142.13381090374028" text-anchor="middle" x="9322.5" y="8625.246833816309">
31
</text>
<text font-size="142.13381090374028" text-anchor="middle" x="4502.5" y="9821.246833816309">
32
</text>
<text font-size="142.13381090374028" text-anchor="middle" x="6042.5" y="7386.746833816309">
33
</text>
<text font-size="142.13381090374028" text-anchor="middle" x="4447.5" y="1600.2468338163092">
34
</text>
<text font-size="142.13381090374028" text-anchor="middle" x="2131" y="8399.746833816309">
35
</text>
<text font-size="142.13381090374028" text-anchor="middle" x="8452" y="2830.746833816309">
36
</text>
<text font-size="142.13381090374028" text-anchor="middle" x="4569.5" y="2677.746833816309">
37
</text>
<text font-size="142.13381090374028" text-anchor="middle" x="8241" y="6857.246833816309">
38
</text>
<text font-size="142.13381090374028" text-anchor="middle" x="8349" y="8618.746833816309">
39
</text>
<text font-size="142.13381090374028" text-anchor="middle" x="4463" y="9901.246833816309">
40
</text>
<text font-size="142.13381090374028" text-anchor="middle" x="1767.5" y="2978.746833816309">
41
</text>
<text font-size="142.13381090374028" text-anchor="middle" x="8649" y="6373.746833816309">
42
</text>
<text font-size="142.13381090374028" text-anchor="middle" x="6962" y="6143.246833816309">
43
</text>
<text font-size="142.13381090374028" text-anchor="middle" x="898.5" y="8165.746833816309">
44
</text>
<text font-size="142.13381090374028" text-anchor="middle" x="7202.5" y="7732.746833816309">
45
</text>
<text font-size="142.13381090374028" text-anchor="middle" x="7982.5" y="7595.246833816309">
46
</text>
<text font-size="142.13381090374028" text-anchor="middle" x="6378" y="805.746833816309">
47
</text>
<text font-size="142.13381090374028" text-anchor="middle" x="2592.5" y="5744.746833816309">
48
</text>
<text font-size="142.13381090374028" text-anchor="middle" x="802" y="3756.746833816309">
49
</text>
<text font-size="142.13381090374028" text-anchor="middle" x="435.5" y="4923.746833816309">
50
</text>
<text font-size="142.13381090374028" text-anchor="middle" x="2144.5" y="408.2468338163091">
51
</text>
<text font-size="142.13381090374028" text-anchor="middle" x="3859.5" y="168.2468338163091">
52
</text>
<text font-size="142.13381090374028" text-anchor="middle" x="3499.5" y="7874.246833816309">
53
</text>
<text font-size="142.13381090374028" text-anchor="middle" x="128" y="4952.746833816309">
54
</text>
<text font-size="142.13381090374028" text-anchor="middle" x="204.5" y="3455.746833816309">
55
</text>
<text font-size="142.13381090374028" text-anchor="middle" x="7144.5" y="293.2468338163091">
56
</text>
<text font-size="142.13381090374028" text-anchor="middle" x="723.5" y="4434.246833816309">
57
</text>
<text font-size="142.13381090374028" text-anchor="middle" x="4493" y="8644.746833816309">
58
</text>
<text font-size="142.13381090374028" text-anchor="middle" x="4066.5" y="7199.746833816309">
59
</text>
<text font-size="142.13381090374028" text-anchor="middle" x="9837.5" y="5808.246833816309">
60
</text>
<text font-size="142.13381090374028" text-anchor="middle" x="1278.5" y="5736.746833816309">
61
</text>
<text font-size="142.13381090374028" text-anchor="middle" x="3406" y="2053.246833816309">
62
</text>
<text font-size="142.13381090374028" text-anchor="middle" x="7782" y="2299.246833816309">
63
</text>
<text font-size="142.13381090374028" text-anchor="middle" x="9373.5" y="5817.246833816309">
64
</text>
<text font-size="142.13381090374028" text-anchor="middle" x="1814.5" y="142.7468338163091">
65
</text>
<text font-size="142.13381090374028" text-anchor="middle" x="4352.5" y="9098.746833816309">
66
</text>
<text font-size="142.13381090374028" text-anchor="middle" x="2632" y="4756.246833816309">
67
</text>
<text font-size="142.13381090374028" text-anchor="middle" x="7111" y="4072.746833816309">
68
</text>
<text font-size="142.13381090374028" text-anchor="middle" x="3188" y="783.246833816309">
69
</text>
<text font-size="142.13381090374028" text-anchor="middle" x="2057" y="7221.746833816309">
70
</text>
<text font-size="142.13381090374028" text-anchor="middle" x="2309.5" y="4072.746833816309">
71
</text>
<text font-size="142.13381090374028" text-anchor="middle" x="7673.5" y="6829.746833816309">
72
</text>
<text font-size="142.13381090374028" text-anchor="middle" x="2659" y="1132.7468338163092">
73
</text>
<text font-size="142.13381090374028" text-anchor="middle" x="3009.5" y="624.246833816309">
74
</text>
<text font-size="142.13381090374028" text-anchor="middle" x="5352.5" y="7986.246833816309">
75
</text>
<text font-size="142.13381090374028" text-anchor="middle" x="1284.5" y="8456.746833816309">
76
</text>
<text font-size="142.13381090374028" text-anchor="middle" x="6636" y="2623.246833816309">
77
</text>
<text font-size="142.13381090374028" text-anchor="middle" x="6425.5" y="1894.2468338163092">
78
</text>
<text font-size="142.13381090374028" text-anchor="middle" x="7045" y="103.2468338163091">
79
</text>
<text font-size="142.13381090374028" text-anchor="middle" x="3490" y="1227.2468338163092">
80
</text>
<text font-size="142.13381090374028" text-anchor="middle" x="5086.5" y="8889.746833816309">
81
</text>
<text font-size="142.13381090374028" text-anchor="middle" x="704.5" y="2106.246833816309">
82
</text>
<text font-size="142.13381090374028" text-anchor="middle" x="2095" y="7346.246833816309">
83
</text>
<text font-size="142.13381090374028" text-anchor="middle" x="7418" y="851.246833816309">
84
</text>
<text font-size="142.13381090374028" text-anchor="middle" x="1792.5" y="2464.246833816309">
85
</text>
<text font-size="142.13381090374028" text-anchor="middle" x="5279" y="5397.246833816309">
86
</text>
<text font-size="142.13381090374028" text-anchor="middle" x="9661.5" y="7985.246833816309">
87
</text>
<text font-size="142.13381090374028" text-anchor="middle" x="4366" y="9382.746833816309">
88
</text>
<text font-size="142.13381090374028" text-anchor="middle" x="1736" y="8021.246833816309">
89
</text>
<text font-size="142.13381090374028" text-anchor="middle" x="2946" y="1711.2468338163092">
90
</text>
<text font-size="142.13381090374028" text-anchor="middle" x="8957.5" y="2295.246833816309">
91
</text>
<text font-size="142.13381090374028" text-anchor="middle" x="6630.5" y="8653.246833816309">
92
</text>
<text font-size="142.13381090374028" text-anchor="middle" x="5496.5" y="3659.246833816309">
93
</text>
<text font-size="142.13381090374028" text-anchor="middle" x="3434" y="3464.746833816309">
94
</text>
<text font-size="142.13381090374028" text-anchor="middle" x="3913.5" y="3294.746833816309">
95
</text>
<text font-size="142.13381090374028" text-anchor="middle" x="1693" y="2636.746833816309">
96
</text>
<text font-size="142.13381090374028" text-anchor="middle" x="2167" y="6988.246833816309">
97
</text>
<text font-size="142.13381090374028" text-anchor="middle" x="7434.5" y="1433.2468338163092">
98
</text>
</svg>