<svg viewBox="0 0 10000 10000" xmlns="http://www.w3.org/2000/svg">
<path d="M0,0 l10000,0 l0,10000 l-10000,0 z" fill="white"/>
<path d="M7003,5261 l2997,0 l0,1122 l-2997,0 z" fill="#fe00ff" stroke="black" stroke-width="5"/>
<path d="M4945,887 l5055,0 l0,548 l-5055,0 z" fill="#fe00ff" stroke="black" stroke-width="5"/>
<path d="M2291,0 l2211,0 l0,2167 l-2211,0 z" fill="#fc00ff" stroke="black" stroke-width="5"/>
<path d="M2312,3241 l2602,0 l0,949 l-2602,0 z" fill="#fe00ff" stroke="black" stroke-width="5"/>
<path d="M4425,7898 l4171,0 l0,344 l-4171,0 z" fill="#fe00ff" stroke="black" stroke-width="5"/>
<path d="M6631,6985 l304,0 l0,646 l-304,0 z" fill="#fe00ff" stroke="black" stroke-width="5"/>
<path d="M1085,9763 l7677,0 l0,237 l-7677,0 z" fill="#fe00ff" stroke="black" stroke-width="5"/>
<path d="M5794,4190 l442,0 l0,242 l-442,0 z" fill="#fe00ff" stroke="black" stroke-width="5"/>
<path d="M2290,8242 l6490,0 l0,636 l-6490,0 z" fill="#f400ff" stroke="black" stroke-width="5"/>
<path d="M333,518 l1627,0 l0,3920 l-1627,0 z" fill="#e100ff" stroke="black" stroke-width="5"/>
<path d="M2290,6374 l1477,0 l0,1035 l-1477,0 z" fill="#fe00ff" stroke="black" stroke-width="5"/>
<path d="M5925,7164 l307,0 l0,460 l-307,0 z" fill="#fe00ff" stroke="black" stroke-width="5"/>
<path d="M0,522 l333,0 l0,4967 l-333,0 z" fill="#fe00ff" stroke="black" stroke-width="5"/>
<path d="M1984,1129 l103,0 l0,5666 l-103,0 z" fill="#fe00ff" stroke="black" stroke-width="5"/>
<path d="M3218,5671 l3785,0 l0,703 l-3785,0 z" fill="#fe00ff" stroke="black" stroke-width="5"/>
<path d="M2316,3001 l23,0 l0,171 l-23,0 z" fill="#fe00ff" stroke="black" stroke-width="5"/>
<path d="M6935,6598 l3065,0 l0,1076 l-3065,0 z" fill="#fe00ff" stroke="black" stroke-width="5"/>
<path d="M3865,6375 l1545,0 l0,1211 l-1545,0 z" fill="#fe00ff" stroke="black" stroke-width="5"/>
<path d="M0,0 l2291,0 l0,518 l-2291,0 z" fill="#fe00ff" stroke="black" stroke-width="5"/>
<path d="M2438,5343 l780,0 l0,909 l-780,0 z" fill="#fe00ff" stroke="black" stroke-width="5"/>
<path d="M2350,7754 l2070,0 l0,488 l-2070,0 z" fill="#fe00ff" stroke="black" stroke-width="5"/>
<path d="M5,5490 l349,0 l0,2303 l-349,0 z" fill="#fe00ff" stroke="black" stroke-width="5"/>
<path d="M5524,5280 l1412,0 l0,391 l-1412,0 z" fill="#fe00ff" stroke="black" stroke-width="5"/>
<path d="M7385,2224 l1718,0 l0,2247 l-1718,0 z" fill="#fe00ff" stroke="black" stroke-width="5"/>
<path d="M9254,3135 l744,0 l0,1610 l-744,0 z" fill="#fe00ff" stroke="black" stroke-width="5"/>
<path d="M9686,9883 l242,0 l0,93 l-242,0 z" fill="#fe00ff" stroke="black" stroke-width="5"/>
<path d="M5410,6669 l515,0 l0,1111 l-515,0 z" fill="#fe00ff" stroke="black" stroke-width="5"/>
<path d="M2087,522 l202,0 l0,8356 l-202,0 z" fill="#fe00ff" stroke="black" stroke-width="5"/>
<path d="M5577,6383 l4423,0 l0,215 l-4423,0 z" fill="#fe00ff" stroke="black" stroke-width="5"/>
<path d="M8781,7674 l1219,0 l0,2209 l-1219,0 z" fill="#fe00ff" stroke="black" stroke-width="5"/>
<path d="M7112,0 l2888,0 l0,887 l-2888,0 z" fill="#f900ff" stroke="black" stroke-width="5"/>
<path d="M6364,4077 l907,0 l0,316 l-907,0 z" fill="#fe00ff" stroke="black" stroke-width="5"/>
<path d="M354,4438 l731,0 l0,5562 l-731,0 z" fill="#f900ff" stroke="black" stroke-width="5"/>
<path d="M2692,2852 l817,0 l0,297 l-817,0 z" fill="#fe00ff" stroke="black" stroke-width="5"/>
<path d="M4,7798 l350,0 l0,2202 l-350,0 z" fill="#fe00ff" stroke="black" stroke-width="5"/>
<path d="M5059,7789 l2686,0 l0,109 l-2686,0 z" fill="#fe00ff" stroke="black" stroke-width="5"/>
<path d="M1085,8878 l7696,0 l0,885 l-7696,0 z" fill="#e500ff" stroke="black" stroke-width="5"/>
<path d="M3645,2852 l749,0 l0,163 l-749,0 z" fill="#fe00ff" stroke="black" stroke-width="5"/>
<path d="M2317,2167 l2631,0 l0,685 l-2631,0 z" fill="#fe00ff" stroke="black" stroke-width="5"/>
<path d="M4948,1435 l1127,0 l0,2755 l-1127,0 z" fill="#fe00ff" stroke="black" stroke-width="5"/>
<path d="M3338,5632 l1119,0 l0,38 l-1119,0 z" fill="#fe00ff" stroke="black" stroke-width="5"/>
<path d="M4502,860 l442,0 l0,1287 l-442,0 z" fill="#fe00ff" stroke="black" stroke-width="5"/>
<path d="M3218,5260 l2306,0 l0,367 l-2306,0 z" fill="#fe00ff" stroke="black" stroke-width="5"/>
<path d="M2289,4471 l6965,0 l0,341 l-6965,0 z" fill="#fe00ff" stroke="black" stroke-width="5"/>
<path d="M6075,1475 l1309,0 l0,2602 l-1309,0 z" fill="#fe00ff" stroke="black" stroke-width="5"/>
<path d="M2290,4812 l7644,0 l0,448 l-7644,0 z" fill="#fe00ff" stroke="black" stroke-width="5"/>
<path d="M9107,2259 l796,0 l0,725 l-796,0 z" fill="#fe00ff" stroke="black" stroke-width="5"/>
<path d="M1085,6795 l1002,0 l0,2083 l-1002,0 z" fill="#fd00ff" stroke="black" stroke-width="5"/>
<path d="M7443,1435 l2557,0 l0,783 l-2557,0 z" fill="#fe00ff" stroke="black" stroke-width="5"/>
<path d="M1085,4438 l875,0 l0,2357 l-875,0 z" fill="#fa00ff" stroke="black" stroke-width="5"/>
<path d="M4502,0 l2610,0 l0,813 l-2610,0 z" fill="#fe00ff" stroke="black" stroke-width="5"/>
<path d="M1960,522 l24,0 l0,6271 l-24,0 z" fill="#fe00ff" stroke="black" stroke-width="5"/>
<path d="M8330,5316 l60,0 l0,60 l-60,0 z" fill="green"/>
<path d="M8360,5346 l141.5,476" stroke="black" stroke-width="5"/>
<path d="M7156,1291 l60,0 l0,60 l-60,0 z" fill="green"/>
<path d="M7186,1321 l286.5,-160" stroke="black" stroke-width="5"/>
<path d="M2808,1820 l60,0 l0,60 l-60,0 z" fill="green"/>
<path d="M2838,1850 l558.5,-766.5" stroke="black" stroke-width="5"/>
<path d="M3793,4069 l60,0 l0,60 l-60,0 z" fill="green"/>
<path d="M3823,4099 l-210,-383.5" stroke="black" stroke-width="5"/>
<path d="M6578,8211 l60,0 l0,60 l-60,0 z" fill="green"/>
<path d="M6608,8241 l-97.5,-171" stroke="black" stroke-width="5"/>
<path d="M6904,6956 l60,0 l0,60 l-60,0 z" fill="green"/>
<path d="M6934,6986 l-151,322" stroke="black" stroke-width="5"/>
<path d="M3170,9875 l60,0 l0,60 l-60,0 z" fill="green"/>
<path d="M3200,9905 l1723.5,-23.5" stroke="black" stroke-width="5"/>
<path d="M6189,4161 l60,0 l0,60 l-60,0 z" fill="green"/>
<path d="M6219,4191 l-204,120" stroke="black" stroke-width="5"/>
<path d="M2735,8801 l60,0 l0,60 l-60,0 z" fill="green"/>
<path d="M2765,8831 l2770,-271" stroke="black" stroke-width="5"/>
<path d="M844,1104 l60,0 l0,60 l-60,0 z" fill="green"/>
<path d="M874,1134 l272.5,1344" stroke="black" stroke-width="5"/>
<path d="M3262,7374 l60,0 l0,60 l-60,0 z" fill="green"/>
<path d="M3292,7404 l-263.5,-512.5" stroke="black" stroke-width="5"/>
<path d="M5923,7134 l60,0 l0,60 l-60,0 z" fill="green"/>
<path d="M5953,7164 l125.5,230" stroke="black" stroke-width="5"/>
<path d="M72,4228 l60,0 l0,60 l-60,0 z" fill="green"/>
<path d="M102,4258 l64.5,-1252.5" stroke="black" stroke-width="5"/>
<path d="M2056,1501 l60,0 l0,60 l-60,0 z" fill="green"/>
<path d="M2086,1531 l-50.5,2431" stroke="black" stroke-width="5"/>
<path d="M4154,6302 l60,0 l0,60 l-60,0 z" fill="green"/>
<path d="M4184,6332 l926.5,-309.5" stroke="black" stroke-width="5"/>
<path d="M2286,3130 l60,0 l0,60 l-60,0 z" fill="green"/>
<path d="M2316,3160 l11.5,-73.5" stroke="black" stroke-width="5"/>
<path d="M6918,7082 l60,0 l0,60 l-60,0 z" fill="green"/>
<path d="M6948,7112 l1519.5,24" stroke="black" stroke-width="5"/>
<path d="M3921,7402 l60,0 l0,60 l-60,0 z" fill="green"/>
<path d="M3951,7432 l686.5,-451.5" stroke="black" stroke-width="5"/>
<path d="M2147,483 l60,0 l0,60 l-60,0 z" fill="green"/>
<path d="M2177,513 l-1031.5,-254" stroke="black" stroke-width="5"/>
<path d="M3187,6221 l60,0 l0,60 l-60,0 z" fill="green"/>
<path d="M3217,6251 l-389,-453.5" stroke="black" stroke-width="5"/>
<path d="M4389,7724 l60,0 l0,60 l-60,0 z" fill="green"/>
<path d="M4419,7754 l-1034,244" stroke="black" stroke-width="5"/>
<path d="M323,5460 l60,0 l0,60 l-60,0 z" fill="green"/>
<path d="M353,5490 l-173.5,1151.5" stroke="black" stroke-width="5"/>
<path d="M6895,5250 l60,0 l0,60 l-60,0 z" fill="green"/>
<path d="M6925,5280 l-695,195.5" stroke="black" stroke-width="5"/>
<path d="M8575,2345 l60,0 l0,60 l-60,0 z" fill="green"/>
<path d="M8605,2375 l-361,972.5" stroke="black" stroke-width="5"/>
<path d="M9224,4714 l60,0 l0,60 l-60,0 z" fill="green"/>
<path d="M9254,4744 l372,-804" stroke="black" stroke-width="5"/>
<path d="M9897,9945 l60,0 l0,60 l-60,0 z" fill="green"/>
<path d="M9927,9975 l-120,-45.5" stroke="black" stroke-width="5"/>
<path d="M5380,6640 l60,0 l0,60 l-60,0 z" fill="green"/>
<path d="M5410,6670 l257.5,554.5" stroke="black" stroke-width="5"/>
<path d="M2057,8376 l60,0 l0,60 l-60,0 z" fill="green"/>
<path d="M2087,8406 l101,-3706" stroke="black" stroke-width="5"/>
<path d="M6384,6436 l60,0 l0,60 l-60,0 z" fill="green"/>
<path d="M6414,6466 l1374.5,24.5" stroke="black" stroke-width="5"/>
<path d="M9371,8479 l60,0 l0,60 l-60,0 z" fill="green"/>
<path d="M9401,8509 l-10.5,269.5" stroke="black" stroke-width="5"/>
<path d="M9581,633 l60,0 l0,60 l-60,0 z" fill="green"/>
<path d="M9611,663 l-1055,-219.5" stroke="black" stroke-width="5"/>
<path d="M6334,4050 l60,0 l0,60 l-60,0 z" fill="green"/>
<path d="M6364,4080 l453.5,155" stroke="black" stroke-width="5"/>
<path d="M972,9051 l60,0 l0,60 l-60,0 z" fill="green"/>
<path d="M1002,9081 l-282.5,-1862" stroke="black" stroke-width="5"/>
<path d="M2670,3116 l60,0 l0,60 l-60,0 z" fill="green"/>
<path d="M2700,3146 l400.5,-145.5" stroke="black" stroke-width="5"/>
<path d="M264,7821 l60,0 l0,60 l-60,0 z" fill="green"/>
<path d="M294,7851 l-115,1048" stroke="black" stroke-width="5"/>
<path d="M7663,7759 l60,0 l0,60 l-60,0 z" fill="green"/>
<path d="M7693,7789 l-1291,54.5" stroke="black" stroke-width="5"/>
<path d="M3211,9054 l60,0 l0,60 l-60,0 z" fill="green"/>
<path d="M3241,9084 l1692,236.5" stroke="black" stroke-width="5"/>
<path d="M3616,2822 l60,0 l0,60 l-60,0 z" fill="green"/>
<path d="M3646,2852 l373.5,81.5" stroke="black" stroke-width="5"/>
<path d="M3648,2503 l60,0 l0,60 l-60,0 z" fill="green"/>
<path d="M3678,2533 l-45.5,-23.5" stroke="black" stroke-width="5"/>
<path d="M4922,1405 l60,0 l0,60 l-60,0 z" fill="green"/>
<path d="M4952,1435 l559.5,1377.5" stroke="black" stroke-width="5"/>
<path d="M4422,5620 l60,0 l0,60 l-60,0 z" fill="green"/>
<path d="M4452,5650 l-554.5,1" stroke="black" stroke-width="5"/>
<path d="M4472,1414 l60,0 l0,60 l-60,0 z" fill="green"/>
<path d="M4502,1444 l221,59.5" stroke="black" stroke-width="5"/>
<path d="M4311,5571 l60,0 l0,60 l-60,0 z" fill="green"/>
<path d="M4341,5601 l30,-157.5" stroke="black" stroke-width="5"/>
<path d="M7574,4566 l60,0 l0,60 l-60,0 z" fill="green"/>
<path d="M7604,4596 l-1832.5,45.5" stroke="black" stroke-width="5"/>
<path d="M7351,1732 l60,0 l0,60 l-60,0 z" fill="green"/>
<path d="M7381,1762 l-651.5,1014" stroke="black" stroke-width="5"/>
<path d="M8311,4846 l60,0 l0,60 l-60,0 z" fill="green"/>
<path d="M8341,4876 l-2229,160" stroke="black" stroke-width="5"/>
<path d="M9077,2953 l60,0 l0,60 l-60,0 z" fill="green"/>
<path d="M9107,2983 l398,-361.5" stroke="black" stroke-width="5"/>
<path d="M1277,8417 l60,0 l0,60 l-60,0 z" fill="green"/>
<path d="M1307,8447 l279,-610.5" stroke="black" stroke-width="5"/>
<path d="M7987,1645 l60,0 l0,60 l-60,0 z" fill="green"/>
<path d="M8017,1675 l704.5,151.5" stroke="black" stroke-width="5"/>
<path d="M1729,4566 l60,0 l0,60 l-60,0 z" fill="green"/>
<path d="M1759,4596 l-236.5,1020.5" stroke="black" stroke-width="5"/>
<path d="M7081,734 l60,0 l0,60 l-60,0 z" fill="green"/>
<path d="M7111,764 l-1304,-357.5" stroke="black" stroke-width="5"/>
<path d="M1930,6751 l60,0 l0,60 l-60,0 z" fill="green"/>
<path d="M1960,6781 l12,-3123.5" stroke="black" stroke-width="5"/>
<text font-size="196.116135138184" text-anchor="middle" x="8501.5" y="5890.6406472983645">
0
</text>
<text font-size="196.116135138184" text-anchor="middle" x="7472.5" y="1229.6406472983645">
1
</text>
<text font-size="196.116135138184" text-anchor="middle" x="3396.5" y="1152.1406472983645">
2
</text>
<text font-size="196.116135138184" text-anchor="middle" x="3613" y="3784.1406472983645">
3
</text>
<text font-size="196.116135138184" text-anchor="middle" x="6510.5" y="8138.6406472983645">
4
</text>
<text font-size="196.116135138184" text-anchor="middle" x="6783" y="7376.6406472983645">
5
</text>
<text font-size="196.116135138184" text-anchor="middle" x="4923.5" y="9950.140647298364">
6
</text>
<text font-size="196.116135138184" text-anchor="middle" x="6015" y="4379.6406472983645">
7
</text>
<text font-size="196.116135138184" text-anchor="middle" x="5535" y="8628.640647298364">
8
</text>
<text font-size="196.116135138184" text-anchor="middle" x="1146.5" y="2546.6406472983645">
9
</text>
<text font-size="196.116135138184" text-anchor="middle" x="3028.5" y="6960.1406472983645">
10
</text>
<text font-size="196.116135138184" text-anchor="middle" x="6078.5" y="7462.6406472983645">
11
</text>
<text font-size="196.116135138184" text-anchor="middle" x="166.5" y="3074.1406472983645">
12
</text>
<text font-size="196.116135138184" text-anchor="middle" x="2035.5" y="4030.6406472983645">
13
</text>
<text font-size="196.116135138184" text-anchor="middle" x="5110.5" y="6091.1406472983645">
14
</text>
<text font-size="196.116135138184" text-anchor="middle" x="2327.5" y="3155.1406472983645">
15
</text>
<text font-size="196.116135138184" text-anchor="middle" x="8467.5" y="7204.6406472983645">
16
</text>
<text font-size="196.116135138184" text-anchor="middle" x="4637.5" y="7049.1406472983645">
17
</text>
<text font-size="196.116135138184" text-anchor="middle" x="1145.5" y="327.6406472983644">
18
</text>
<text font-size="196.116135138184" text-anchor="middle" x="2828" y="5866.1406472983645">
19
</text>
<text font-size="196.116135138184" text-anchor="middle" x="3385" y="8066.6406472983645">
20
</text>
<text font-size="196.116135138184" text-anchor="middle" x="179.5" y="6710.1406472983645">
21
</text>
<text font-size="196.116135138184" text-anchor="middle" x="6230" y="5544.1406472983645">
22
</text>
<text font-size="196.116135138184" text-anchor="middle" x="8244" y="3416.1406472983645">
23
</text>
<text font-size="196.116135138184" text-anchor="middle" x="9626" y="4008.6406472983645">
24
</text>
<text font-size="196.116135138184" text-anchor="middle" x="9807" y="9998.140647298364">
25
</text>
<text font-size="196.116135138184" text-anchor="middle" x="5667.5" y="7293.1406472983645">
26
</text>
<text font-size="196.116135138184" text-anchor="middle" x="2188" y="4768.6406472983645">
27
</text>
<text font-size="196.116135138184" text-anchor="middle" x="7788.5" y="6559.1406472983645">
28
</text>
<text font-size="196.116135138184" text-anchor="middle" x="9390.5" y="8847.140647298364">
29
</text>
<text font-size="196.116135138184" text-anchor="middle" x="8556" y="512.1406472983645">
30
</text>
<text font-size="196.116135138184" text-anchor="middle" x="6817.5" y="4303.6406472983645">
31
</text>
<text font-size="196.116135138184" text-anchor="middle" x="719.5" y="7287.6406472983645">
32
</text>
<text font-size="196.116135138184" text-anchor="middle" x="3100.5" y="3069.1406472983645">
33
</text>
<text font-size="196.116135138184" text-anchor="middle" x="179" y="8967.640647298364">
34
</text>
<text font-size="196.116135138184" text-anchor="middle" x="6402" y="7912.1406472983645">
35
</text>
<text font-size="196.116135138184" text-anchor="middle" x="4933" y="9389.140647298364">
36
</text>
<text font-size="196.116135138184" text-anchor="middle" x="4019.5" y="3002.1406472983645">
37
</text>
<text font-size="196.116135138184" text-anchor="middle" x="3632.5" y="2578.1406472983645">
38
</text>
<text font-size="196.116135138184" text-anchor="middle" x="5511.5" y="2881.1406472983645">
39
</text>
<text font-size="196.116135138184" text-anchor="middle" x="3897.5" y="5719.6406472983645">
40
</text>
<text font-size="196.116135138184" text-anchor="middle" x="4723" y="1572.1406472983645">
41
</text>
<text font-size="196.116135138184" text-anchor="middle" x="4371" y="5512.1406472983645">
42
</text>
<text font-size="196.116135138184" text-anchor="middle" x="5771.5" y="4710.1406472983645">
43
</text>
<text font-size="196.116135138184" text-anchor="middle" x="6729.5" y="2844.6406472983645">
44
</text>
<text font-size="196.116135138184" text-anchor="middle" x="6112" y="5104.6406472983645">
45
</text>
<text font-size="196.116135138184" text-anchor="middle" x="9505" y="2690.1406472983645">
46
</text>
<text font-size="196.116135138184" text-anchor="middle" x="1586" y="7905.1406472983645">
47
</text>
<text font-size="196.116135138184" text-anchor="middle" x="8721.5" y="1895.1406472983645">
48
</text>
<text font-size="196.116135138184" text-anchor="middle" x="1522.5" y="5685.1406472983645">
49
</text>
<text font-size="196.116135138184" text-anchor="middle" x="5807" y="475.1406472983644">
50
</text>
<text font-size="196.116135138184" text-anchor="middle" x="1972" y="3726.1406472983645">
51
</text>
</svg>