<svg viewBox="0 0 10000 10000" xmlns="http://www.w3.org/2000/svg">
<path d="M0,0 l10000,0 l0,10000 l-10000,0 z" fill="white"/>
<path d="M556,5288 l1034,0 l0,1880 l-1034,0 z" fill="#fe00ff" stroke="black" stroke-width="5"/>
<path d="M8102,3367 l694,0 l0,610 l-694,0 z" fill="#fe00ff" stroke="black" stroke-width="5"/>
<path d="M0,1000 l4190,0 l0,175 l-4190,0 z" fill="#fe00ff" stroke="black" stroke-width="5"/>
<path d="M2521,3240 l1215,0 l0,2198 l-1215,0 z" fill="#fe00ff" stroke="black" stroke-width="5"/>
<path d="M2895,1175 l800,0 l0,1264 l-800,0 z" fill="#fe00ff" stroke="black" stroke-width="5"/>
<path d="M9526,6764 l366,0 l0,1942 l-366,0 z" fill="#fb00ff" stroke="black" stroke-width="5"/>
<path d="M8798,0 l985,0 l0,4383 l-985,0 z" fill="#fe00ff" stroke="black" stroke-width="5"/>
<path d="M2341,2794 l123,0 l0,123 l-123,0 z" fill="#fe00ff" stroke="black" stroke-width="5"/>
<path d="M3553,2614 l3894,0 l0,540 l-3894,0 z" fill="#fe00ff" stroke="black" stroke-width="5"/>
<path d="M4190,1027 l1540,0 l0,162 l-1540,0 z" fill="#fe00ff" stroke="black" stroke-width="5"/>
<path d="M475,7965 l1039,0 l0,173 l-1039,0 z" fill="#fe00ff" stroke="black" stroke-width="5"/>
<path d="M7602,7913 l561,0 l0,1837 l-561,0 z" fill="#b800ff" stroke="black" stroke-width="5"/>
<path d="M5603,7462 l644,0 l0,755 l-644,0 z" fill="#fe00ff" stroke="black" stroke-width="5"/>
<path d="M1900,188 l862,0 l0,772 l-862,0 z" fill="#fe00ff" stroke="black" stroke-width="5"/>
<path d="M5642,483 l855,0 l0,173 l-855,0 z" fill="#fe00ff" stroke="black" stroke-width="5"/>
<path d="M6844,0 l1233,0 l0,1150 l-1233,0 z" fill="#fe00ff" stroke="black" stroke-width="5"/>
<path d="M0,8145 l1379,0 l0,802 l-1379,0 z" fill="#fe00ff" stroke="black" stroke-width="5"/>
<path d="M2597,5443 l2787,0 l0,624 l-2787,0 z" fill="#fe00ff" stroke="black" stroke-width="5"/>
<path d="M3218,8701 l3064,0 l0,460 l-3064,0 z" fill="#f700ff" stroke="black" stroke-width="5"/>
<path d="M4273,6077 l1975,0 l0,603 l-1975,0 z" fill="#fe00ff" stroke="black" stroke-width="5"/>
<path d="M55,4618 l247,0 l0,1946 l-247,0 z" fill="#fe00ff" stroke="black" stroke-width="5"/>
<path d="M4149,9161 l1959,0 l0,42 l-1959,0 z" fill="#fe00ff" stroke="black" stroke-width="5"/>
<path d="M0,7168 l1586,0 l0,797 l-1586,0 z" fill="#fe00ff" stroke="black" stroke-width="5"/>
<path d="M3228,8088 l2025,0 l0,131 l-2025,0 z" fill="#fe00ff" stroke="black" stroke-width="5"/>
<path d="M4044,9891 l1720,0 l0,11 l-1720,0 z" fill="#fe00ff" stroke="black" stroke-width="5"/>
<path d="M5764,9881 l4236,0 l0,119 l-4236,0 z" fill="#f800ff" stroke="black" stroke-width="5"/>
<path d="M2584,2615 l672,0 l0,455 l-672,0 z" fill="#fe00ff" stroke="black" stroke-width="5"/>
<path d="M6773,6078 l611,0 l0,3293 l-611,0 z" fill="#f400ff" stroke="black" stroke-width="5"/>
<path d="M261,1182 l111,0 l0,2657 l-111,0 z" fill="#fe00ff" stroke="black" stroke-width="5"/>
<path d="M7384,6077 l218,0 l0,3294 l-218,0 z" fill="#fe00ff" stroke="black" stroke-width="5"/>
<path d="M2564,6067 l1695,0 l0,1096 l-1695,0 z" fill="#fe00ff" stroke="black" stroke-width="5"/>
<path d="M2762,188 l2781,0 l0,738 l-2781,0 z" fill="#fe00ff" stroke="black" stroke-width="5"/>
<path d="M8366,6764 l1160,0 l0,1872 l-1160,0 z" fill="#8f00ff" stroke="black" stroke-width="5"/>
<path d="M9417,8706 l475,0 l0,1173 l-475,0 z" fill="#fd00ff" stroke="black" stroke-width="5"/>
<path d="M8163,6763 l203,0 l0,1873 l-203,0 z" fill="#fd00ff" stroke="black" stroke-width="5"/>
<path d="M8077,225 l55,0 l0,2999 l-55,0 z" fill="#fe00ff" stroke="black" stroke-width="5"/>
<path d="M7603,6078 l447,0 l0,1835 l-447,0 z" fill="#a700ff" stroke="black" stroke-width="5"/>
<path d="M1379,8324 l369,0 l0,1423 l-369,0 z" fill="#fe00ff" stroke="black" stroke-width="5"/>
<path d="M2669,2501 l4780,0 l0,103 l-4780,0 z" fill="#fe00ff" stroke="black" stroke-width="5"/>
<path d="M8163,6078 l1729,0 l0,685 l-1729,0 z" fill="#f500ff" stroke="black" stroke-width="5"/>
<path d="M8166,8636 l1251,0 l0,206 l-1251,0 z" fill="#fe00ff" stroke="black" stroke-width="5"/>
<path d="M1745,3356 l776,0 l0,3788 l-776,0 z" fill="#fe00ff" stroke="black" stroke-width="5"/>
<path d="M845,233 l1049,0 l0,740 l-1049,0 z" fill="#fe00ff" stroke="black" stroke-width="5"/>
<path d="M5730,656 l1114,0 l0,595 l-1114,0 z" fill="#fe00ff" stroke="black" stroke-width="5"/>
<path d="M421,4119 l1090,0 l0,506 l-1090,0 z" fill="#fe00ff" stroke="black" stroke-width="5"/>
<path d="M8512,8842 l905,0 l0,908 l-905,0 z" fill="#f000ff" stroke="black" stroke-width="5"/>
<path d="M9892,0 l108,0 l0,9800 l-108,0 z" fill="#fe00ff" stroke="black" stroke-width="5"/>
<path d="M6248,6127 l34,0 l0,1729 l-34,0 z" fill="#fe00ff" stroke="black" stroke-width="5"/>
<path d="M1826,7323 l113,0 l0,2180 l-113,0 z" fill="#fe00ff" stroke="black" stroke-width="5"/>
<path d="M4259,6680 l1989,0 l0,717 l-1989,0 z" fill="#fe00ff" stroke="black" stroke-width="5"/>
<path d="M8132,0 l666,0 l0,3342 l-666,0 z" fill="#fe00ff" stroke="black" stroke-width="5"/>
<path d="M45,4037 l256,0 l0,436 l-256,0 z" fill="#fe00ff" stroke="black" stroke-width="5"/>
<path d="M6282,6078 l491,0 l0,3293 l-491,0 z" fill="#f700ff" stroke="black" stroke-width="5"/>
<path d="M298,281 l547,0 l0,473 l-547,0 z" fill="#fe00ff" stroke="black" stroke-width="5"/>
<path d="M3217,9371 l4384,0 l0,379 l-4384,0 z" fill="#a200ff" stroke="black" stroke-width="5"/>
<path d="M380,1185 l937,0 l0,2779 l-937,0 z" fill="#fe00ff" stroke="black" stroke-width="5"/>
<path d="M9783,0 l109,0 l0,6077 l-109,0 z" fill="#fe00ff" stroke="black" stroke-width="5"/>
<path d="M8050,6078 l112,0 l0,1797 l-112,0 z" fill="#fe00ff" stroke="black" stroke-width="5"/>
<path d="M5018,4936 l4764,0 l0,507 l-4764,0 z" fill="#fa00ff" stroke="black" stroke-width="5"/>
<path d="M5020,3977 l3774,0 l0,406 l-3774,0 z" fill="#fe00ff" stroke="black" stroke-width="5"/>
<path d="M2338,3154 l5092,0 l0,86 l-5092,0 z" fill="#fe00ff" stroke="black" stroke-width="5"/>
<path d="M5018,3242 l3084,0 l0,731 l-3084,0 z" fill="#fe00ff" stroke="black" stroke-width="5"/>
<path d="M1066,4645 l651,0 l0,643 l-651,0 z" fill="#fe00ff" stroke="black" stroke-width="5"/>
<path d="M1590,5288 l155,0 l0,3003 l-155,0 z" fill="#fe00ff" stroke="black" stroke-width="5"/>
<path d="M8163,8842 l349,0 l0,908 l-349,0 z" fill="#fe00ff" stroke="black" stroke-width="5"/>
<path d="M1661,1311 l677,0 l0,2045 l-677,0 z" fill="#fe00ff" stroke="black" stroke-width="5"/>
<path d="M495,21 l3788,0 l0,167 l-3788,0 z" fill="#fe00ff" stroke="black" stroke-width="5"/>
<path d="M7624,1156 l453,0 l0,2086 l-453,0 z" fill="#fe00ff" stroke="black" stroke-width="5"/>
<path d="M127,9012 l1243,0 l0,722 l-1243,0 z" fill="#fe00ff" stroke="black" stroke-width="5"/>
<path d="M3863,1251 l3727,0 l0,1241 l-3727,0 z" fill="#fe00ff" stroke="black" stroke-width="5"/>
<path d="M2468,1779 l346,0 l0,538 l-346,0 z" fill="#fe00ff" stroke="black" stroke-width="5"/>
<path d="M3217,8219 l3065,0 l0,482 l-3065,0 z" fill="#fa00ff" stroke="black" stroke-width="5"/>
<path d="M5017,4383 l4763,0 l0,553 l-4763,0 z" fill="#fb00ff" stroke="black" stroke-width="5"/>
<path d="M1317,1393 l344,0 l0,2726 l-344,0 z" fill="#fe00ff" stroke="black" stroke-width="5"/>
<path d="M3218,7397 l2299,0 l0,691 l-2299,0 z" fill="#fe00ff" stroke="black" stroke-width="5"/>
<path d="M3220,9208 l2066,0 l0,114 l-2066,0 z" fill="#fe00ff" stroke="black" stroke-width="5"/>
<path d="M5384,5443 l4398,0 l0,634 l-4398,0 z" fill="#f500ff" stroke="black" stroke-width="5"/>
<path d="M1939,7164 l1278,0 l0,2586 l-1278,0 z" fill="#f700ff" stroke="black" stroke-width="5"/>
<path d="M3703,1273 l160,0 l0,1178 l-160,0 z" fill="#fe00ff" stroke="black" stroke-width="5"/>
<path d="M1688,1236 l1029,0 l0,75 l-1029,0 z" fill="#fe00ff" stroke="black" stroke-width="5"/>
<path d="M5752,0 l1087,0 l0,460 l-1087,0 z" fill="#fe00ff" stroke="black" stroke-width="5"/>
<path d="M0,9750 l9412,0 l0,131 l-9412,0 z" fill="#fb00ff" stroke="black" stroke-width="5"/>
<path d="M319,5607 l237,0 l0,1365 l-237,0 z" fill="#fe00ff" stroke="black" stroke-width="5"/>
<path d="M2537,5439 l27,0 l0,1495 l-27,0 z" fill="#fe00ff" stroke="black" stroke-width="5"/>
<path d="M3736,3241 l1281,0 l0,2198 l-1281,0 z" fill="#fd00ff" stroke="black" stroke-width="5"/>
<path d="M625,6656 l60,0 l0,60 l-60,0 z" fill="green"/>
<path d="M655,6686 l418,-458" stroke="black" stroke-width="5"/>
<path d="M8760,3340 l60,0 l0,60 l-60,0 z" fill="green"/>
<path d="M8790,3370 l-341,302" stroke="black" stroke-width="5"/>
<path d="M2968,1120 l60,0 l0,60 l-60,0 z" fill="green"/>
<path d="M2998,1150 l-903,-62.5" stroke="black" stroke-width="5"/>
<path d="M2538,3372 l60,0 l0,60 l-60,0 z" fill="green"/>
<path d="M2568,3402 l560.5,937" stroke="black" stroke-width="5"/>
<path d="M2916,2389 l60,0 l0,60 l-60,0 z" fill="green"/>
<path d="M2946,2419 l349,-612" stroke="black" stroke-width="5"/>
<path d="M9515,8675 l60,0 l0,60 l-60,0 z" fill="green"/>
<path d="M9545,8705 l164,-970" stroke="black" stroke-width="5"/>
<path d="M8870,4352 l60,0 l0,60 l-60,0 z" fill="green"/>
<path d="M8900,4382 l390.5,-2190.5" stroke="black" stroke-width="5"/>
<path d="M2311,2883 l60,0 l0,60 l-60,0 z" fill="green"/>
<path d="M2341,2913 l61.5,-57.5" stroke="black" stroke-width="5"/>
<path d="M7416,3123 l60,0 l0,60 l-60,0 z" fill="green"/>
<path d="M7446,3153 l-1946,-269" stroke="black" stroke-width="5"/>
<path d="M4160,997 l60,0 l0,60 l-60,0 z" fill="green"/>
<path d="M4190,1027 l770,81" stroke="black" stroke-width="5"/>
<path d="M739,7935 l60,0 l0,60 l-60,0 z" fill="green"/>
<path d="M769,7965 l225.5,86.5" stroke="black" stroke-width="5"/>
<path d="M7923,9193 l60,0 l0,60 l-60,0 z" fill="green"/>
<path d="M7953,9223 l-70.5,-391.5" stroke="black" stroke-width="5"/>
<path d="M5957,7514 l60,0 l0,60 l-60,0 z" fill="green"/>
<path d="M5987,7544 l-62,295.5" stroke="black" stroke-width="5"/>
<path d="M2336,436 l60,0 l0,60 l-60,0 z" fill="green"/>
<path d="M2366,466 l-35,108" stroke="black" stroke-width="5"/>
<path d="M6246,455 l60,0 l0,60 l-60,0 z" fill="green"/>
<path d="M6276,485 l-206.5,84.5" stroke="black" stroke-width="5"/>
<path d="M7384,795 l60,0 l0,60 l-60,0 z" fill="green"/>
<path d="M7414,825 l46.5,-250" stroke="black" stroke-width="5"/>
<path d="M685,8916 l60,0 l0,60 l-60,0 z" fill="green"/>
<path d="M715,8946 l-25.5,-400" stroke="black" stroke-width="5"/>
<path d="M5350,5414 l60,0 l0,60 l-60,0 z" fill="green"/>
<path d="M5380,5444 l-1389.5,311" stroke="black" stroke-width="5"/>
<path d="M6098,9038 l60,0 l0,60 l-60,0 z" fill="green"/>
<path d="M6128,9068 l-1378,-137" stroke="black" stroke-width="5"/>
<path d="M5288,6595 l60,0 l0,60 l-60,0 z" fill="green"/>
<path d="M5318,6625 l-57.5,-246.5" stroke="black" stroke-width="5"/>
<path d="M271,6518 l60,0 l0,60 l-60,0 z" fill="green"/>
<path d="M301,6548 l-122.5,-957" stroke="black" stroke-width="5"/>
<path d="M4678,9131 l60,0 l0,60 l-60,0 z" fill="green"/>
<path d="M4708,9161 l420.5,21" stroke="black" stroke-width="5"/>
<path d="M462,7317 l60,0 l0,60 l-60,0 z" fill="green"/>
<path d="M492,7347 l301,219.5" stroke="black" stroke-width="5"/>
<path d="M5098,8188 l60,0 l0,60 l-60,0 z" fill="green"/>
<path d="M5128,8218 l-887.5,-64.5" stroke="black" stroke-width="5"/>
<path d="M5733,9861 l60,0 l0,60 l-60,0 z" fill="green"/>
<path d="M5763,9891 l-859,5.5" stroke="black" stroke-width="5"/>
<path d="M8290,9854 l60,0 l0,60 l-60,0 z" fill="green"/>
<path d="M8320,9884 l-438,56.5" stroke="black" stroke-width="5"/>
<path d="M3132,2952 l60,0 l0,60 l-60,0 z" fill="green"/>
<path d="M3162,2982 l-242,-139.5" stroke="black" stroke-width="5"/>
<path d="M7333,9340 l60,0 l0,60 l-60,0 z" fill="green"/>
<path d="M7363,9370 l-284.5,-1645.5" stroke="black" stroke-width="5"/>
<path d="M341,2955 l60,0 l0,60 l-60,0 z" fill="green"/>
<path d="M371,2985 l-54.5,-474.5" stroke="black" stroke-width="5"/>
<path d="M7571,9176 l60,0 l0,60 l-60,0 z" fill="green"/>
<path d="M7601,9206 l-108,-1482" stroke="black" stroke-width="5"/>
<path d="M3930,7045 l60,0 l0,60 l-60,0 z" fill="green"/>
<path d="M3960,7075 l-548.5,-460" stroke="black" stroke-width="5"/>
<path d="M4716,642 l60,0 l0,60 l-60,0 z" fill="green"/>
<path d="M4746,672 l-593.5,-115" stroke="black" stroke-width="5"/>
<path d="M8336,8605 l60,0 l0,60 l-60,0 z" fill="green"/>
<path d="M8366,8635 l580,-935" stroke="black" stroke-width="5"/>
<path d="M9594,9432 l60,0 l0,60 l-60,0 z" fill="green"/>
<path d="M9624,9462 l30.5,-169.5" stroke="black" stroke-width="5"/>
<path d="M8133,8234 l60,0 l0,60 l-60,0 z" fill="green"/>
<path d="M8163,8264 l101.5,-564.5" stroke="black" stroke-width="5"/>
<path d="M8048,720 l60,0 l0,60 l-60,0 z" fill="green"/>
<path d="M8078,750 l26.5,974.5" stroke="black" stroke-width="5"/>
<path d="M7908,7882 l60,0 l0,60 l-60,0 z" fill="green"/>
<path d="M7938,7912 l-111.5,-916.5" stroke="black" stroke-width="5"/>
<path d="M1351,8304 l60,0 l0,60 l-60,0 z" fill="green"/>
<path d="M1381,8334 l182.5,701.5" stroke="black" stroke-width="5"/>
<path d="M2640,2471 l60,0 l0,60 l-60,0 z" fill="green"/>
<path d="M2670,2501 l2389,51.5" stroke="black" stroke-width="5"/>
<path d="M8236,6311 l60,0 l0,60 l-60,0 z" fill="green"/>
<path d="M8266,6341 l761.5,79.5" stroke="black" stroke-width="5"/>
<path d="M8169,8780 l60,0 l0,60 l-60,0 z" fill="green"/>
<path d="M8199,8810 l592.5,-71" stroke="black" stroke-width="5"/>
<path d="M1727,7057 l60,0 l0,60 l-60,0 z" fill="green"/>
<path d="M1757,7087 l376,-1837" stroke="black" stroke-width="5"/>
<path d="M1860,212 l60,0 l0,60 l-60,0 z" fill="green"/>
<path d="M1890,242 l-520.5,361" stroke="black" stroke-width="5"/>
<path d="M5765,828 l60,0 l0,60 l-60,0 z" fill="green"/>
<path d="M5795,858 l492,95.5" stroke="black" stroke-width="5"/>
<path d="M1480,4089 l60,0 l0,60 l-60,0 z" fill="green"/>
<path d="M1510,4119 l-544,253" stroke="black" stroke-width="5"/>
<path d="M8791,9315 l60,0 l0,60 l-60,0 z" fill="green"/>
<path d="M8821,9345 l143.5,-49" stroke="black" stroke-width="5"/>
<path d="M9862,9205 l60,0 l0,60 l-60,0 z" fill="green"/>
<path d="M9892,9235 l54,-4335" stroke="black" stroke-width="5"/>
<path d="M6251,6097 l60,0 l0,60 l-60,0 z" fill="green"/>
<path d="M6281,6127 l-16,864.5" stroke="black" stroke-width="5"/>
<path d="M1908,9472 l60,0 l0,60 l-60,0 z" fill="green"/>
<path d="M1938,9502 l-55.5,-1089" stroke="black" stroke-width="5"/>
<path d="M5202,6700 l60,0 l0,60 l-60,0 z" fill="green"/>
<path d="M5232,6730 l21.5,308.5" stroke="black" stroke-width="5"/>
<path d="M8158,2987 l60,0 l0,60 l-60,0 z" fill="green"/>
<path d="M8188,3017 l277,-1346" stroke="black" stroke-width="5"/>
<path d="M270,4442 l60,0 l0,60 l-60,0 z" fill="green"/>
<path d="M300,4472 l-127,-217" stroke="black" stroke-width="5"/>
<path d="M6426,8391 l60,0 l0,60 l-60,0 z" fill="green"/>
<path d="M6456,8421 l71.5,-696.5" stroke="black" stroke-width="5"/>
<path d="M814,251 l60,0 l0,60 l-60,0 z" fill="green"/>
<path d="M844,281 l-272.5,236.5" stroke="black" stroke-width="5"/>
<path d="M7515,9380 l60,0 l0,60 l-60,0 z" fill="green"/>
<path d="M7545,9410 l-2136,150.5" stroke="black" stroke-width="5"/>
<path d="M518,3460 l60,0 l0,60 l-60,0 z" fill="green"/>
<path d="M548,3490 l300.5,-915.5" stroke="black" stroke-width="5"/>
<path d="M9754,3126 l60,0 l0,60 l-60,0 z" fill="green"/>
<path d="M9784,3156 l53.5,-117.5" stroke="black" stroke-width="5"/>
<path d="M8020,7727 l60,0 l0,60 l-60,0 z" fill="green"/>
<path d="M8050,7757 l56,-780.5" stroke="black" stroke-width="5"/>
<path d="M8618,5200 l60,0 l0,60 l-60,0 z" fill="green"/>
<path d="M8648,5230 l-1248,-40.5" stroke="black" stroke-width="5"/>
<path d="M8731,4215 l60,0 l0,60 l-60,0 z" fill="green"/>
<path d="M8761,4245 l-1854,-65" stroke="black" stroke-width="5"/>
<path d="M7336,3166 l60,0 l0,60 l-60,0 z" fill="green"/>
<path d="M7366,3196 l-2482,1" stroke="black" stroke-width="5"/>
<path d="M7634,3575 l60,0 l0,60 l-60,0 z" fill="green"/>
<path d="M7664,3605 l-1104,2.5" stroke="black" stroke-width="5"/>
<path d="M1036,5257 l60,0 l0,60 l-60,0 z" fill="green"/>
<path d="M1066,5287 l325.5,-320.5" stroke="black" stroke-width="5"/>
<path d="M1670,7839 l60,0 l0,60 l-60,0 z" fill="green"/>
<path d="M1700,7869 l-32.5,-1079.5" stroke="black" stroke-width="5"/>
<path d="M8283,9595 l60,0 l0,60 l-60,0 z" fill="green"/>
<path d="M8313,9625 l24.5,-329" stroke="black" stroke-width="5"/>
<path d="M2275,1840 l60,0 l0,60 l-60,0 z" fill="green"/>
<path d="M2305,1870 l-305.5,463.5" stroke="black" stroke-width="5"/>
<path d="M4248,157 l60,0 l0,60 l-60,0 z" fill="green"/>
<path d="M4278,187 l-1889,-82.5" stroke="black" stroke-width="5"/>
<path d="M7597,3167 l60,0 l0,60 l-60,0 z" fill="green"/>
<path d="M7627,3197 l223.5,-998" stroke="black" stroke-width="5"/>
<path d="M385,9192 l60,0 l0,60 l-60,0 z" fill="green"/>
<path d="M415,9222 l333.5,151" stroke="black" stroke-width="5"/>
<path d="M7246,1675 l60,0 l0,60 l-60,0 z" fill="green"/>
<path d="M7276,1705 l-1549.5,166.5" stroke="black" stroke-width="5"/>
<path d="M2782,2285 l60,0 l0,60 l-60,0 z" fill="green"/>
<path d="M2812,2315 l-171,-267" stroke="black" stroke-width="5"/>
<path d="M6225,8506 l60,0 l0,60 l-60,0 z" fill="green"/>
<path d="M6255,8536 l-1505.5,-76" stroke="black" stroke-width="5"/>
<path d="M8126,4661 l60,0 l0,60 l-60,0 z" fill="green"/>
<path d="M8156,4691 l-757.5,-31.5" stroke="black" stroke-width="5"/>
<path d="M1630,1368 l60,0 l0,60 l-60,0 z" fill="green"/>
<path d="M1660,1398 l-171,1358" stroke="black" stroke-width="5"/>
<path d="M5447,7367 l60,0 l0,60 l-60,0 z" fill="green"/>
<path d="M5477,7397 l-1109.5,345.5" stroke="black" stroke-width="5"/>
<path d="M3190,9272 l60,0 l0,60 l-60,0 z" fill="green"/>
<path d="M3220,9302 l1033,-37" stroke="black" stroke-width="5"/>
<path d="M8909,5943 l60,0 l0,60 l-60,0 z" fill="green"/>
<path d="M8939,5973 l-1356,-213" stroke="black" stroke-width="5"/>
<path d="M3059,9495 l60,0 l0,60 l-60,0 z" fill="green"/>
<path d="M3089,9525 l-511,-1068" stroke="black" stroke-width="5"/>
<path d="M3673,1802 l60,0 l0,60 l-60,0 z" fill="green"/>
<path d="M3703,1832 l80,30" stroke="black" stroke-width="5"/>
<path d="M1951,1248 l60,0 l0,60 l-60,0 z" fill="green"/>
<path d="M1981,1278 l221.5,-4.5" stroke="black" stroke-width="5"/>
<path d="M5722,429 l60,0 l0,60 l-60,0 z" fill="green"/>
<path d="M5752,459 l543.5,-229" stroke="black" stroke-width="5"/>
<path d="M9038,9803 l60,0 l0,60 l-60,0 z" fill="green"/>
<path d="M9068,9833 l-4362,-17.5" stroke="black" stroke-width="5"/>
<path d="M525,6941 l60,0 l0,60 l-60,0 z" fill="green"/>
<path d="M555,6971 l-117.5,-681.5" stroke="black" stroke-width="5"/>
<path d="M2531,6875 l60,0 l0,60 l-60,0 z" fill="green"/>
<path d="M2561,6905 l-10.5,-718.5" stroke="black" stroke-width="5"/>
<path d="M3806,4292 l60,0 l0,60 l-60,0 z" fill="green"/>
<path d="M3836,4322 l540.5,18" stroke="black" stroke-width="5"/>
<text font-size="153.39299776947408" text-anchor="middle" x="1073" y="6281.687549219316">
0
</text>
<text font-size="153.39299776947408" text-anchor="middle" x="8449" y="3725.6875492193158">
1
</text>
<text font-size="153.39299776947408" text-anchor="middle" x="2095" y="1141.187549219316">
2
</text>
<text font-size="153.39299776947408" text-anchor="middle" x="3128.5" y="4392.687549219316">
3
</text>
<text font-size="153.39299776947408" text-anchor="middle" x="3295" y="1860.687549219316">
4
</text>
<text font-size="153.39299776947408" text-anchor="middle" x="9709" y="7788.687549219316">
5
</text>
<text font-size="153.39299776947408" text-anchor="middle" x="9290.5" y="2245.1875492193158">
6
</text>
<text font-size="153.39299776947408" text-anchor="middle" x="2402.5" y="2909.1875492193158">
7
</text>
<text font-size="153.39299776947408" text-anchor="middle" x="5500" y="2937.6875492193158">
8
</text>
<text font-size="153.39299776947408" text-anchor="middle" x="4960" y="1161.687549219316">
9
</text>
<text font-size="153.39299776947408" text-anchor="middle" x="994.5" y="8105.187549219316">
10
</text>
<text font-size="153.39299776947408" text-anchor="middle" x="7882.5" y="8885.187549219316">
11
</text>
<text font-size="153.39299776947408" text-anchor="middle" x="5925" y="7893.187549219316">
12
</text>
<text font-size="153.39299776947408" text-anchor="middle" x="2331" y="627.6875492193159">
13
</text>
<text font-size="153.39299776947408" text-anchor="middle" x="6069.5" y="623.1875492193159">
14
</text>
<text font-size="153.39299776947408" text-anchor="middle" x="7460.5" y="628.6875492193159">
15
</text>
<text font-size="153.39299776947408" text-anchor="middle" x="689.5" y="8599.687549219316">
16
</text>
<text font-size="153.39299776947408" text-anchor="middle" x="3990.5" y="5808.687549219316">
17
</text>
<text font-size="153.39299776947408" text-anchor="middle" x="4750" y="8984.687549219316">
18
</text>
<text font-size="153.39299776947408" text-anchor="middle" x="5260.5" y="6432.187549219316">
19
</text>
<text font-size="153.39299776947408" text-anchor="middle" x="178.5" y="5644.687549219316">
20
</text>
<text font-size="153.39299776947408" text-anchor="middle" x="5128.5" y="9235.687549219316">
21
</text>
<text font-size="153.39299776947408" text-anchor="middle" x="793" y="7620.187549219316">
22
</text>
<text font-size="153.39299776947408" text-anchor="middle" x="4240.5" y="8207.187549219316">
23
</text>
<text font-size="153.39299776947408" text-anchor="middle" x="4904" y="9950.187549219316">
24
</text>
<text font-size="153.39299776947408" text-anchor="middle" x="7882" y="9994.187549219316">
25
</text>
<text font-size="153.39299776947408" text-anchor="middle" x="2920" y="2896.1875492193158">
26
</text>
<text font-size="153.39299776947408" text-anchor="middle" x="7078.5" y="7778.187549219316">
27
</text>
<text font-size="153.39299776947408" text-anchor="middle" x="316.5" y="2564.1875492193158">
28
</text>
<text font-size="153.39299776947408" text-anchor="middle" x="7493" y="7777.687549219316">
29
</text>
<text font-size="153.39299776947408" text-anchor="middle" x="3411.5" y="6668.687549219316">
30
</text>
<text font-size="153.39299776947408" text-anchor="middle" x="4152.5" y="610.6875492193159">
31
</text>
<text font-size="153.39299776947408" text-anchor="middle" x="8946" y="7753.687549219316">
32
</text>
<text font-size="153.39299776947408" text-anchor="middle" x="9654.5" y="9346.187549219316">
33
</text>
<text font-size="153.39299776947408" text-anchor="middle" x="8264.5" y="7753.187549219316">
34
</text>
<text font-size="153.39299776947408" text-anchor="middle" x="8104.5" y="1778.187549219316">
35
</text>
<text font-size="153.39299776947408" text-anchor="middle" x="7826.5" y="7049.187549219316">
36
</text>
<text font-size="153.39299776947408" text-anchor="middle" x="1563.5" y="9089.187549219316">
37
</text>
<text font-size="153.39299776947408" text-anchor="middle" x="5059" y="2606.1875492193158">
38
</text>
<text font-size="153.39299776947408" text-anchor="middle" x="9027.5" y="6474.187549219316">
39
</text>
<text font-size="153.39299776947408" text-anchor="middle" x="8791.5" y="8792.687549219316">
40
</text>
<text font-size="153.39299776947408" text-anchor="middle" x="2133" y="5303.687549219316">
41
</text>
<text font-size="153.39299776947408" text-anchor="middle" x="1369.5" y="656.6875492193159">
42
</text>
<text font-size="153.39299776947408" text-anchor="middle" x="6287" y="1007.1875492193159">
43
</text>
<text font-size="153.39299776947408" text-anchor="middle" x="966" y="4425.687549219316">
44
</text>
<text font-size="153.39299776947408" text-anchor="middle" x="8964.5" y="9349.687549219316">
45
</text>
<text font-size="153.39299776947408" text-anchor="middle" x="9946" y="4953.687549219316">
46
</text>
<text font-size="153.39299776947408" text-anchor="middle" x="6265" y="7045.187549219316">
47
</text>
<text font-size="153.39299776947408" text-anchor="middle" x="1882.5" y="8466.687549219316">
48
</text>
<text font-size="153.39299776947408" text-anchor="middle" x="5253.5" y="7092.187549219316">
49
</text>
<text font-size="153.39299776947408" text-anchor="middle" x="8465" y="1724.687549219316">
50
</text>
<text font-size="153.39299776947408" text-anchor="middle" x="173" y="4308.687549219316">
51
</text>
<text font-size="153.39299776947408" text-anchor="middle" x="6527.5" y="7778.187549219316">
52
</text>
<text font-size="153.39299776947408" text-anchor="middle" x="571.5" y="571.1875492193159">
53
</text>
<text font-size="153.39299776947408" text-anchor="middle" x="5409" y="9614.187549219316">
54
</text>
<text font-size="153.39299776947408" text-anchor="middle" x="848.5" y="2628.1875492193158">
55
</text>
<text font-size="153.39299776947408" text-anchor="middle" x="9837.5" y="3092.1875492193158">
56
</text>
<text font-size="153.39299776947408" text-anchor="middle" x="8106" y="7030.187549219316">
57
</text>
<text font-size="153.39299776947408" text-anchor="middle" x="7400" y="5243.187549219316">
58
</text>
<text font-size="153.39299776947408" text-anchor="middle" x="6907" y="4233.687549219316">
59
</text>
<text font-size="153.39299776947408" text-anchor="middle" x="4884" y="3250.6875492193158">
60
</text>
<text font-size="153.39299776947408" text-anchor="middle" x="6560" y="3661.1875492193158">
61
</text>
<text font-size="153.39299776947408" text-anchor="middle" x="1391.5" y="5020.187549219316">
62
</text>
<text font-size="153.39299776947408" text-anchor="middle" x="1667.5" y="6843.187549219316">
63
</text>
<text font-size="153.39299776947408" text-anchor="middle" x="8337.5" y="9349.687549219316">
64
</text>
<text font-size="153.39299776947408" text-anchor="middle" x="1999.5" y="2387.1875492193158">
65
</text>
<text font-size="153.39299776947408" text-anchor="middle" x="2389" y="158.18754921931594">
66
</text>
<text font-size="153.39299776947408" text-anchor="middle" x="7850.5" y="2252.6875492193158">
67
</text>
<text font-size="153.39299776947408" text-anchor="middle" x="748.5" y="9426.687549219316">
68
</text>
<text font-size="153.39299776947408" text-anchor="middle" x="5726.5" y="1925.187549219316">
69
</text>
<text font-size="153.39299776947408" text-anchor="middle" x="2641" y="2101.6875492193158">
70
</text>
<text font-size="153.39299776947408" text-anchor="middle" x="4749.5" y="8513.687549219316">
71
</text>
<text font-size="153.39299776947408" text-anchor="middle" x="7398.5" y="4713.187549219316">
72
</text>
<text font-size="153.39299776947408" text-anchor="middle" x="1489" y="2809.6875492193158">
73
</text>
<text font-size="153.39299776947408" text-anchor="middle" x="4367.5" y="7796.187549219316">
74
</text>
<text font-size="153.39299776947408" text-anchor="middle" x="4253" y="9318.687549219316">
75
</text>
<text font-size="153.39299776947408" text-anchor="middle" x="7583" y="5813.687549219316">
76
</text>
<text font-size="153.39299776947408" text-anchor="middle" x="2578" y="8510.687549219316">
77
</text>
<text font-size="153.39299776947408" text-anchor="middle" x="3783" y="1915.687549219316">
78
</text>
<text font-size="153.39299776947408" text-anchor="middle" x="2202.5" y="1327.187549219316">
79
</text>
<text font-size="153.39299776947408" text-anchor="middle" x="6295.5" y="283.68754921931594">
80
</text>
<text font-size="153.39299776947408" text-anchor="middle" x="4706" y="9869.187549219316">
81
</text>
<text font-size="153.39299776947408" text-anchor="middle" x="437.5" y="6343.187549219316">
82
</text>
<text font-size="153.39299776947408" text-anchor="middle" x="2550.5" y="6240.187549219316">
83
</text>
<text font-size="153.39299776947408" text-anchor="middle" x="4376.5" y="4393.687549219316">
84
</text>
</svg>