<svg viewBox="0 0 10000 10000" xmlns="http://www.w3.org/2000/svg">
<path d="M0,0 l10000,0 l0,10000 l-10000,0 z" fill="white"/>
<path d="M4447,5797 l805,0 l0,3898 l-805,0 z" fill="#fe00ff" stroke="black" stroke-width="5"/>
<path d="M331,7505 l3309,0 l0,653 l-3309,0 z" fill="#fd00ff" stroke="black" stroke-width="5"/>
<path d="M7569,274 l1676,0 l0,1842 l-1676,0 z" fill="#fe00ff" stroke="black" stroke-width="5"/>
<path d="M4901,3580 l539,0 l0,2198 l-539,0 z" fill="#fe00ff" stroke="black" stroke-width="5"/>
<path d="M6294,5504 l288,0 l0,2261 l-288,0 z" fill="#fe00ff" stroke="black" stroke-width="5"/>
<path d="M0,1964 l755,0 l0,2620 l-755,0 z" fill="#fe00ff" stroke="black" stroke-width="5"/>
<path d="M330,8158 l3016,0 l0,1842 l-3016,0 z" fill="#e300ff" stroke="black" stroke-width="5"/>
<path d="M5167,1738 l1164,0 l0,1842 l-1164,0 z" fill="#f900ff" stroke="black" stroke-width="5"/>
<path d="M6044,5128 l24,0 l0,3200 l-24,0 z" fill="#fe00ff" stroke="black" stroke-width="5"/>
<path d="M7863,4898 l681,0 l0,3586 l-681,0 z" fill="#db00ff" stroke="black" stroke-width="5"/>
<path d="M3346,9697 l3495,0 l0,303 l-3495,0 z" fill="#fe00ff" stroke="black" stroke-width="5"/>
<path d="M8702,4043 l694,0 l0,4441 l-694,0 z" fill="#fe00ff" stroke="black" stroke-width="5"/>
<path d="M1682,2649 l193,0 l0,1715 l-193,0 z" fill="#fe00ff" stroke="black" stroke-width="5"/>
<path d="M6648,9191 l254,0 l0,266 l-254,0 z" fill="#fe00ff" stroke="black" stroke-width="5"/>
<path d="M4448,2972 l453,0 l0,2686 l-453,0 z" fill="#fe00ff" stroke="black" stroke-width="5"/>
<path d="M6331,2116 l2174,0 l0,1789 l-2174,0 z" fill="#e200ff" stroke="black" stroke-width="5"/>
<path d="M1651,0 l4347,0 l0,1737 l-4347,0 z" fill="#ed00ff" stroke="black" stroke-width="5"/>
<path d="M8510,2116 l775,0 l0,1927 l-775,0 z" fill="#fe00ff" stroke="black" stroke-width="5"/>
<path d="M7583,8484 l1808,0 l0,738 l-1808,0 z" fill="#fe00ff" stroke="black" stroke-width="5"/>
<path d="M4658,1772 l509,0 l0,1186 l-509,0 z" fill="#fe00ff" stroke="black" stroke-width="5"/>
<path d="M6218,3905 l2292,0 l0,993 l-2292,0 z" fill="#fa00ff" stroke="black" stroke-width="5"/>
<path d="M6840,7461 l877,0 l0,263 l-877,0 z" fill="#fe00ff" stroke="black" stroke-width="5"/>
<path d="M3910,1738 l748,0 l0,774 l-748,0 z" fill="#fe00ff" stroke="black" stroke-width="5"/>
<path d="M0,0 l752,0 l0,1964 l-752,0 z" fill="#fe00ff" stroke="black" stroke-width="5"/>
<path d="M6275,0 l1824,0 l0,116 l-1824,0 z" fill="#fe00ff" stroke="black" stroke-width="5"/>
<path d="M3640,7609 l744,0 l0,1105 l-744,0 z" fill="#fe00ff" stroke="black" stroke-width="5"/>
<path d="M6949,9316 l2968,0 l0,679 l-2968,0 z" fill="#fe00ff" stroke="black" stroke-width="5"/>
<path d="M9931,0 l69,0 l0,10000 l-69,0 z" fill="#fe00ff" stroke="black" stroke-width="5"/>
<path d="M9396,2963 l535,0 l0,6121 l-535,0 z" fill="#fe00ff" stroke="black" stroke-width="5"/>
<path d="M755,0 l896,0 l0,4584 l-896,0 z" fill="#fe00ff" stroke="black" stroke-width="5"/>
<path d="M5440,3699 l79,0 l0,5962 l-79,0 z" fill="#fe00ff" stroke="black" stroke-width="5"/>
<path d="M9285,252 l646,0 l0,2711 l-646,0 z" fill="#fe00ff" stroke="black" stroke-width="5"/>
<path d="M9024,15 l668,0 l0,237 l-668,0 z" fill="#fe00ff" stroke="black" stroke-width="5"/>
<path d="M3897,2512 l550,0 l0,5097 l-550,0 z" fill="#fe00ff" stroke="black" stroke-width="5"/>
<path d="M6226,7765 l1276,0 l0,1177 l-1276,0 z" fill="#fe00ff" stroke="black" stroke-width="5"/>
<path d="M3078,7007 l807,0 l0,494 l-807,0 z" fill="#fe00ff" stroke="black" stroke-width="5"/>
<path d="M5998,212 l1570,0 l0,1508 l-1570,0 z" fill="#fe00ff" stroke="black" stroke-width="5"/>
<path d="M2284,2031 l1613,0 l0,4976 l-1613,0 z" fill="#fa00ff" stroke="black" stroke-width="5"/>
<path d="M5255,7403 l180,0 l0,2164 l-180,0 z" fill="#fe00ff" stroke="black" stroke-width="5"/>
<path d="M51,4584 l1670,0 l0,1204 l-1670,0 z" fill="#fe00ff" stroke="black" stroke-width="5"/>
<path d="M6582,4898 l1281,0 l0,2563 l-1281,0 z" fill="#e600ff" stroke="black" stroke-width="5"/>
<path d="M1657,1737 l1997,0 l0,287 l-1997,0 z" fill="#fe00ff" stroke="black" stroke-width="5"/>
<path d="M1883,4024 l283,0 l0,3423 l-283,0 z" fill="#fe00ff" stroke="black" stroke-width="5"/>
<path d="M6068,3605 l149,0 l0,6003 l-149,0 z" fill="#fe00ff" stroke="black" stroke-width="5"/>
<path d="M9521,9084 l404,0 l0,213 l-404,0 z" fill="#fe00ff" stroke="black" stroke-width="5"/>
<path d="M8544,4109 l158,0 l0,4375 l-158,0 z" fill="#fe00ff" stroke="black" stroke-width="5"/>
<path d="M2170,4886 l114,0 l0,1413 l-114,0 z" fill="#fe00ff" stroke="black" stroke-width="5"/>
<path d="M13,6793 l317,0 l0,1972 l-317,0 z" fill="#fe00ff" stroke="black" stroke-width="5"/>
<path d="M5519,3580 l525,0 l0,6117 l-525,0 z" fill="#fe00ff" stroke="black" stroke-width="5"/>
<path d="M454,5788 l1341,0 l0,1717 l-1341,0 z" fill="#fe00ff" stroke="black" stroke-width="5"/>
<path d="M3346,8714 l1101,0 l0,983 l-1101,0 z" fill="#fe00ff" stroke="black" stroke-width="5"/>
<path d="M4417,7535 l60,0 l0,60 l-60,0 z" fill="green"/>
<path d="M4447,7565 l402.5,181" stroke="black" stroke-width="5"/>
<path d="M2392,7884 l60,0 l0,60 l-60,0 z" fill="green"/>
<path d="M2422,7914 l-436.5,-82.5" stroke="black" stroke-width="5"/>
<path d="M8137,2085 l60,0 l0,60 l-60,0 z" fill="green"/>
<path d="M8167,2115 l240,-920" stroke="black" stroke-width="5"/>
<path d="M5409,3550 l60,0 l0,60 l-60,0 z" fill="green"/>
<path d="M5439,3580 l-268.5,1099" stroke="black" stroke-width="5"/>
<path d="M6551,5572 l60,0 l0,60 l-60,0 z" fill="green"/>
<path d="M6581,5602 l-143,1032.5" stroke="black" stroke-width="5"/>
<path d="M493,3287 l60,0 l0,60 l-60,0 z" fill="green"/>
<path d="M523,3317 l-145.5,-43" stroke="black" stroke-width="5"/>
<path d="M2922,9393 l60,0 l0,60 l-60,0 z" fill="green"/>
<path d="M2952,9423 l-1114,-344" stroke="black" stroke-width="5"/>
<path d="M6126,3288 l60,0 l0,60 l-60,0 z" fill="green"/>
<path d="M6156,3318 l-407,-659" stroke="black" stroke-width="5"/>
<path d="M6037,8297 l60,0 l0,60 l-60,0 z" fill="green"/>
<path d="M6067,8327 l-11,-1599" stroke="black" stroke-width="5"/>
<path d="M8279,4868 l60,0 l0,60 l-60,0 z" fill="green"/>
<path d="M8309,4898 l-105.5,1793" stroke="black" stroke-width="5"/>
<path d="M5777,9667 l60,0 l0,60 l-60,0 z" fill="green"/>
<path d="M5807,9697 l-713.5,151.5" stroke="black" stroke-width="5"/>
<path d="M8729,5878 l60,0 l0,60 l-60,0 z" fill="green"/>
<path d="M8759,5908 l290,355.5" stroke="black" stroke-width="5"/>
<path d="M1794,2722 l60,0 l0,60 l-60,0 z" fill="green"/>
<path d="M1824,2752 l-45.5,754.5" stroke="black" stroke-width="5"/>
<path d="M6871,9377 l60,0 l0,60 l-60,0 z" fill="green"/>
<path d="M6901,9407 l-126,-83" stroke="black" stroke-width="5"/>
<path d="M4713,4547 l60,0 l0,60 l-60,0 z" fill="green"/>
<path d="M4743,4577 l-68.5,-262" stroke="black" stroke-width="5"/>
<path d="M8225,3508 l60,0 l0,60 l-60,0 z" fill="green"/>
<path d="M8255,3538 l-837,-527.5" stroke="black" stroke-width="5"/>
<path d="M4720,1491 l60,0 l0,60 l-60,0 z" fill="green"/>
<path d="M4750,1521 l-925.5,-652.5" stroke="black" stroke-width="5"/>
<path d="M8480,4009 l60,0 l0,60 l-60,0 z" fill="green"/>
<path d="M8510,4039 l387.5,-959.5" stroke="black" stroke-width="5"/>
<path d="M8057,8454 l60,0 l0,60 l-60,0 z" fill="green"/>
<path d="M8087,8484 l400,369" stroke="black" stroke-width="5"/>
<path d="M5136,2923 l60,0 l0,60 l-60,0 z" fill="green"/>
<path d="M5166,2953 l-253.5,-588" stroke="black" stroke-width="5"/>
<path d="M6576,3968 l60,0 l0,60 l-60,0 z" fill="green"/>
<path d="M6606,3998 l758,403.5" stroke="black" stroke-width="5"/>
<path d="M7143,7431 l60,0 l0,60 l-60,0 z" fill="green"/>
<path d="M7173,7461 l105.5,131.5" stroke="black" stroke-width="5"/>
<path d="M4613,2138 l60,0 l0,60 l-60,0 z" fill="green"/>
<path d="M4643,2168 l-359,-43" stroke="black" stroke-width="5"/>
<path d="M85,1542 l60,0 l0,60 l-60,0 z" fill="green"/>
<path d="M115,1572 l261,-590" stroke="black" stroke-width="5"/>
<path d="M6250,77 l60,0 l0,60 l-60,0 z" fill="green"/>
<path d="M6280,107 l907,-49" stroke="black" stroke-width="5"/>
<path d="M4344,7693 l60,0 l0,60 l-60,0 z" fill="green"/>
<path d="M4374,7723 l-362,438.5" stroke="black" stroke-width="5"/>
<path d="M6923,9729 l60,0 l0,60 l-60,0 z" fill="green"/>
<path d="M6953,9759 l1480,-103.5" stroke="black" stroke-width="5"/>
<path d="M9969,7758 l60,0 l0,60 l-60,0 z" fill="green"/>
<path d="M9999,7788 l-33.5,-2788" stroke="black" stroke-width="5"/>
<path d="M9366,7459 l60,0 l0,60 l-60,0 z" fill="green"/>
<path d="M9396,7489 l267.5,-1465.5" stroke="black" stroke-width="5"/>
<path d="M1147,1368 l60,0 l0,60 l-60,0 z" fill="green"/>
<path d="M1177,1398 l26,894" stroke="black" stroke-width="5"/>
<path d="M5446,3758 l60,0 l0,60 l-60,0 z" fill="green"/>
<path d="M5476,3788 l3.5,2892" stroke="black" stroke-width="5"/>
<path d="M9785,2463 l60,0 l0,60 l-60,0 z" fill="green"/>
<path d="M9815,2493 l-207,-885.5" stroke="black" stroke-width="5"/>
<path d="M9650,221 l60,0 l0,60 l-60,0 z" fill="green"/>
<path d="M9680,251 l-322,-117.5" stroke="black" stroke-width="5"/>
<path d="M4190,3944 l60,0 l0,60 l-60,0 z" fill="green"/>
<path d="M4220,3974 l-48,1086.5" stroke="black" stroke-width="5"/>
<path d="M7471,8745 l60,0 l0,60 l-60,0 z" fill="green"/>
<path d="M7501,8775 l-637,-421.5" stroke="black" stroke-width="5"/>
<path d="M3049,6977 l60,0 l0,60 l-60,0 z" fill="green"/>
<path d="M3079,7007 l402.5,247" stroke="black" stroke-width="5"/>
<path d="M5968,1686 l60,0 l0,60 l-60,0 z" fill="green"/>
<path d="M5998,1716 l785,-750" stroke="black" stroke-width="5"/>
<path d="M3264,6301 l60,0 l0,60 l-60,0 z" fill="green"/>
<path d="M3294,6331 l-203.5,-1812" stroke="black" stroke-width="5"/>
<path d="M5225,7377 l60,0 l0,60 l-60,0 z" fill="green"/>
<path d="M5255,7407 l90,1078" stroke="black" stroke-width="5"/>
<path d="M31,4554 l60,0 l0,60 l-60,0 z" fill="green"/>
<path d="M61,4584 l825,602" stroke="black" stroke-width="5"/>
<path d="M7832,4916 l60,0 l0,60 l-60,0 z" fill="green"/>
<path d="M7862,4946 l-639.5,1233.5" stroke="black" stroke-width="5"/>
<path d="M3007,1708 l60,0 l0,60 l-60,0 z" fill="green"/>
<path d="M3037,1738 l-381.5,142.5" stroke="black" stroke-width="5"/>
<path d="M2135,7416 l60,0 l0,60 l-60,0 z" fill="green"/>
<path d="M2165,7446 l-140.5,-1710.5" stroke="black" stroke-width="5"/>
<path d="M6186,3575 l60,0 l0,60 l-60,0 z" fill="green"/>
<path d="M6216,3605 l-73.5,3001.5" stroke="black" stroke-width="5"/>
<path d="M9591,9054 l60,0 l0,60 l-60,0 z" fill="green"/>
<path d="M9621,9084 l102,106.5" stroke="black" stroke-width="5"/>
<path d="M8516,4612 l60,0 l0,60 l-60,0 z" fill="green"/>
<path d="M8546,4642 l77,1654.5" stroke="black" stroke-width="5"/>
<path d="M2253,4856 l60,0 l0,60 l-60,0 z" fill="green"/>
<path d="M2283,4886 l-56,706.5" stroke="black" stroke-width="5"/>
<path d="M299,8734 l60,0 l0,60 l-60,0 z" fill="green"/>
<path d="M329,8764 l-157.5,-985" stroke="black" stroke-width="5"/>
<path d="M5783,3830 l60,0 l0,60 l-60,0 z" fill="green"/>
<path d="M5813,3860 l-31.5,2778.5" stroke="black" stroke-width="5"/>
<path d="M1753,7474 l60,0 l0,60 l-60,0 z" fill="green"/>
<path d="M1783,7504 l-658.5,-857.5" stroke="black" stroke-width="5"/>
<path d="M3316,9630 l60,0 l0,60 l-60,0 z" fill="green"/>
<path d="M3346,9660 l550.5,-454.5" stroke="black" stroke-width="5"/>
<text font-size="198.02950859533485" text-anchor="middle" x="4849.5" y="7815.310328008367">
0
</text>
<text font-size="198.02950859533485" text-anchor="middle" x="1985.5" y="7900.810328008367">
1
</text>
<text font-size="198.02950859533485" text-anchor="middle" x="8407" y="1264.3103280083672">
2
</text>
<text font-size="198.02950859533485" text-anchor="middle" x="5170.5" y="4748.310328008367">
3
</text>
<text font-size="198.02950859533485" text-anchor="middle" x="6438" y="6703.810328008367">
4
</text>
<text font-size="198.02950859533485" text-anchor="middle" x="377.5" y="3343.3103280083674">
5
</text>
<text font-size="198.02950859533485" text-anchor="middle" x="1838" y="9148.310328008367">
6
</text>
<text font-size="198.02950859533485" text-anchor="middle" x="5749" y="2728.3103280083674">
7
</text>
<text font-size="198.02950859533485" text-anchor="middle" x="6056" y="6797.310328008367">
8
</text>
<text font-size="198.02950859533485" text-anchor="middle" x="8203.5" y="6760.310328008367">
9
</text>
<text font-size="198.02950859533485" text-anchor="middle" x="5093.5" y="9917.810328008367">
10
</text>
<text font-size="198.02950859533485" text-anchor="middle" x="9049" y="6332.810328008367">
11
</text>
<text font-size="198.02950859533485" text-anchor="middle" x="1778.5" y="3575.8103280083674">
12
</text>
<text font-size="198.02950859533485" text-anchor="middle" x="6775" y="9393.310328008367">
13
</text>
<text font-size="198.02950859533485" text-anchor="middle" x="4674.5" y="4384.310328008367">
14
</text>
<text font-size="198.02950859533485" text-anchor="middle" x="7418" y="3079.8103280083674">
15
</text>
<text font-size="198.02950859533485" text-anchor="middle" x="3824.5" y="937.8103280083672">
16
</text>
<text font-size="198.02950859533485" text-anchor="middle" x="8897.5" y="3148.8103280083674">
17
</text>
<text font-size="198.02950859533485" text-anchor="middle" x="8487" y="8922.310328008367">
18
</text>
<text font-size="198.02950859533485" text-anchor="middle" x="4912.5" y="2434.3103280083674">
19
</text>
<text font-size="198.02950859533485" text-anchor="middle" x="7364" y="4470.810328008367">
20
</text>
<text font-size="198.02950859533485" text-anchor="middle" x="7278.5" y="7661.810328008367">
21
</text>
<text font-size="198.02950859533485" text-anchor="middle" x="4284" y="2194.3103280083674">
22
</text>
<text font-size="198.02950859533485" text-anchor="middle" x="376" y="1051.3103280083672">
23
</text>
<text font-size="198.02950859533485" text-anchor="middle" x="7187" y="127.3103280083672">
24
</text>
<text font-size="198.02950859533485" text-anchor="middle" x="4012" y="8230.810328008367">
25
</text>
<text font-size="198.02950859533485" text-anchor="middle" x="8433" y="9724.810328008367">
26
</text>
<text font-size="198.02950859533485" text-anchor="middle" x="9965.5" y="5069.310328008367">
27
</text>
<text font-size="198.02950859533485" text-anchor="middle" x="9663.5" y="6092.810328008367">
28
</text>
<text font-size="198.02950859533485" text-anchor="middle" x="1203" y="2361.3103280083674">
29
</text>
<text font-size="198.02950859533485" text-anchor="middle" x="5479.5" y="6749.310328008367">
30
</text>
<text font-size="198.02950859533485" text-anchor="middle" x="9608" y="1676.8103280083672">
31
</text>
<text font-size="198.02950859533485" text-anchor="middle" x="9358" y="202.8103280083672">
32
</text>
<text font-size="198.02950859533485" text-anchor="middle" x="4172" y="5129.810328008367">
33
</text>
<text font-size="198.02950859533485" text-anchor="middle" x="6864" y="8422.810328008367">
34
</text>
<text font-size="198.02950859533485" text-anchor="middle" x="3481.5" y="7323.310328008367">
35
</text>
<text font-size="198.02950859533485" text-anchor="middle" x="6783" y="1035.3103280083672">
36
</text>
<text font-size="198.02950859533485" text-anchor="middle" x="3090.5" y="4588.310328008367">
37
</text>
<text font-size="198.02950859533485" text-anchor="middle" x="5345" y="8554.310328008367">
38
</text>
<text font-size="198.02950859533485" text-anchor="middle" x="886" y="5255.310328008367">
39
</text>
<text font-size="198.02950859533485" text-anchor="middle" x="7222.5" y="6248.810328008367">
40
</text>
<text font-size="198.02950859533485" text-anchor="middle" x="2655.5" y="1949.8103280083672">
41
</text>
<text font-size="198.02950859533485" text-anchor="middle" x="2024.5" y="5804.810328008367">
42
</text>
<text font-size="198.02950859533485" text-anchor="middle" x="6142.5" y="6675.810328008367">
43
</text>
<text font-size="198.02950859533485" text-anchor="middle" x="9723" y="9259.810328008367">
44
</text>
<text font-size="198.02950859533485" text-anchor="middle" x="8623" y="6365.810328008367">
45
</text>
<text font-size="198.02950859533485" text-anchor="middle" x="2227" y="5661.810328008367">
46
</text>
<text font-size="198.02950859533485" text-anchor="middle" x="171.5" y="7848.310328008367">
47
</text>
<text font-size="198.02950859533485" text-anchor="middle" x="5781.5" y="6707.810328008367">
48
</text>
<text font-size="198.02950859533485" text-anchor="middle" x="1124.5" y="6715.810328008367">
49
</text>
<text font-size="198.02950859533485" text-anchor="middle" x="3896.5" y="9274.810328008367">
50
</text>
</svg>